<svg width="720" height="480" viewBox="0 0 720 480" fill="none" xmlns="http://www.w3.org/2000/svg">
<g clip-path="url(#clip0_10:6)">
<rect width="720" height="480" fill="#0A516D"/>
<g clip-path="url(#clip1_10:6)">
<rect width="80" height="80" fill="#E8647C"/>
<path d="M40 40L80 0V80L40 40Z" fill="#ECE8D9"/>
<path d="M40 40L80 80L-9.37785e-06 80L40 40Z" fill="#ECE8D9"/>
<path d="M40 40L0 0V80L40 40Z" fill="#ECE8D9"/>
<path d="M40 40L80 0L-5.88094e-06 -3.49691e-06L40 40Z" fill="#ECE8D9"/>
<path fill-rule="evenodd" clip-rule="evenodd" d="M80 0H40C40 22.0914 22.0914 40 0 40V80C44.1828 80 80 44.1828 80 0Z" fill="#47E4BB"/>
</g>
<g clip-path="url(#clip2_10:6)">
<rect width="80" height="80" transform="translate(80)" fill="#E8647C"/>
<path d="M120 40L160 0V80L120 40Z" fill="#ECE8D9"/>
<path d="M120 40L160 80L80 80L120 40Z" fill="#ECE8D9"/>
<path d="M120 40L80 0V80L120 40Z" fill="#ECE8D9"/>
<path d="M120 40L160 0L80 -3.49691e-06L120 40Z" fill="#ECE8D9"/>
<rect x="104" y="24" width="32" height="32" fill="#E8647C"/>
</g>
<g clip-path="url(#clip3_10:6)">
<rect width="80" height="80" transform="translate(160)" fill="#E8647C"/>
<path d="M200 40L240 0V80L200 40Z" fill="#ECE8D9"/>
<path d="M200 40L240 80L160 80L200 40Z" fill="#ECE8D9"/>
<path d="M200 40L160 0V80L200 40Z" fill="#ECE8D9"/>
<path d="M200 40L240 0L160 -3.49691e-06L200 40Z" fill="#ECE8D9"/>
<rect x="176" y="80" width="80" height="16" transform="rotate(-90 176 80)" fill="#E8647C"/>
<rect x="208" y="80" width="80" height="16" transform="rotate(-90 208 80)" fill="#E8647C"/>
</g>
<g clip-path="url(#clip4_10:6)">
<rect width="80" height="80" transform="translate(240)" fill="#E8647C"/>
<path d="M280 40L320 0V80L280 40Z" fill="#ECE8D9"/>
<path d="M280 40L320 80L240 80L280 40Z" fill="#ECE8D9"/>
<path d="M280 40L240 0V80L280 40Z" fill="#ECE8D9"/>
<path d="M280 40L320 0L240 -3.49691e-06L280 40Z" fill="#ECE8D9"/>
<path fill-rule="evenodd" clip-rule="evenodd" d="M280 0C257.909 0 240 17.9086 240 40C240 62.0914 257.909 80 280 80C302.091 80 320 62.0914 320 40C320 17.9086 302.091 0 280 0ZM280 14.8584L254.858 40L280 65.1416L305.142 40L280 14.8584Z" fill="#023047"/>
</g>
<g clip-path="url(#clip5_10:6)">
<rect width="80" height="80" transform="translate(320)" fill="#E8647C"/>
<path d="M360 40L400 0V80L360 40Z" fill="#ECE8D9"/>
<path d="M360 40L400 80L320 80L360 40Z" fill="#ECE8D9"/>
<path d="M360 40L320 0V80L360 40Z" fill="#ECE8D9"/>
<path d="M360 40L400 0L320 -3.49691e-06L360 40Z" fill="#ECE8D9"/>
<path d="M320 0L400 0V80V80C355.817 80 320 44.1828 320 0V0Z" fill="#47E4BB"/>
<path d="M360 0L400 0V40V40C377.909 40 360 22.0914 360 0V0Z" fill="#999999"/>
</g>
<g clip-path="url(#clip6_10:6)">
<rect width="80" height="80" transform="translate(400)" fill="#E8647C"/>
<path d="M440 40L480 0V80L440 40Z" fill="#ECE8D9"/>
<path d="M440 40L480 80L400 80L440 40Z" fill="#ECE8D9"/>
<path d="M440 40L400 0V80L440 40Z" fill="#ECE8D9"/>
<path d="M440 40L480 0L400 -3.49691e-06L440 40Z" fill="#ECE8D9"/>
<path d="M400 0L480 0V0C480 44.1828 444.183 80 400 80V80V0Z" fill="#47E4BB"/>
<path d="M400 0L440 0V0C440 22.0914 422.091 40 400 40V40V0Z" fill="#999999"/>
</g>
<g clip-path="url(#clip7_10:6)">
<rect width="80" height="80" transform="translate(480)" fill="#F77754"/>
<path d="M520 40L560 0V80L520 40Z" fill="#ECE8D9"/>
<path d="M520 40L560 80L480 80L520 40Z" fill="#ECE8D9"/>
<path d="M520 40L480 0V80L520 40Z" fill="#ECE8D9"/>
<path d="M520 40L560 0L480 -3.49691e-06L520 40Z" fill="#ECE8D9"/>
<rect x="520" width="40" height="40" fill="#023047"/>
</g>
<g clip-path="url(#clip8_10:6)">
<rect width="80" height="80" transform="translate(560)" fill="#FFB703"/>
<path d="M600 40L640 0V80L600 40Z" fill="#ECE8D9"/>
<path d="M600 40L640 80L560 80L600 40Z" fill="#ECE8D9"/>
<path d="M600 40L560 0V80L600 40Z" fill="#ECE8D9"/>
<path d="M600 40L640 0L560 -3.49691e-06L600 40Z" fill="#ECE8D9"/>
<rect x="560" width="40" height="40" fill="#023047"/>
</g>
<g clip-path="url(#clip9_10:6)">
<rect width="80" height="80" transform="translate(640)" fill="#E8647C"/>
<path d="M680 40L720 0V80L680 40Z" fill="#ECE8D9"/>
<path d="M680 40L720 80L640 80L680 40Z" fill="#ECE8D9"/>
<path d="M680 40L640 0V80L680 40Z" fill="#ECE8D9"/>
<path d="M680 40L720 0L640 -3.49691e-06L680 40Z" fill="#ECE8D9"/>
<path d="M640 0L720 0V80V80C675.817 80 640 44.1828 640 0V0Z" fill="#47E4BB"/>
<path d="M680 0L720 0V40V40C697.909 40 680 22.0914 680 0V0Z" fill="#999999"/>
</g>
<g clip-path="url(#clip10_10:6)">
<rect width="80" height="80" transform="translate(0 80)" fill="#F77754"/>
<path d="M40 120L80 80V160L40 120Z" fill="#ECE8D9"/>
<path d="M40 120L80 160L-9.37785e-06 160L40 120Z" fill="#ECE8D9"/>
<path d="M40 120L0 80V160L40 120Z" fill="#ECE8D9"/>
<path d="M40 120L80 80L-5.88094e-06 80L40 120Z" fill="#ECE8D9"/>
<path d="M0 80V80C44.1828 80 80 115.817 80 160V160H0L0 80Z" fill="#47E4BB"/>
<path d="M0 120V120C22.0914 120 40 137.909 40 160V160H0L0 120Z" fill="#999999"/>
</g>
<g clip-path="url(#clip11_10:6)">
<rect width="80" height="80" transform="translate(0 160)" fill="#E8647C"/>
<path d="M40 200L80 160V240L40 200Z" fill="#ECE8D9"/>
<path d="M40 200L80 240L-9.37785e-06 240L40 200Z" fill="#ECE8D9"/>
<path d="M40 200L0 160V240L40 200Z" fill="#ECE8D9"/>
<path d="M40 200L80 160L-5.88094e-06 160L40 200Z" fill="#ECE8D9"/>
<rect y="176" width="80" height="16" fill="#E8647C"/>
<rect y="208" width="80" height="16" fill="#E8647C"/>
</g>
<g clip-path="url(#clip12_10:6)">
<rect width="80" height="80" transform="translate(0 240)" fill="#E8647C"/>
<path d="M40 280L80 240V320L40 280Z" fill="#ECE8D9"/>
<path d="M40 280L80 320L-9.37785e-06 320L40 280Z" fill="#ECE8D9"/>
<path d="M40 280L0 240V320L40 280Z" fill="#ECE8D9"/>
<path d="M40 280L80 240L-5.88094e-06 240L40 280Z" fill="#ECE8D9"/>
<rect x="24" y="264" width="32" height="32" rx="16" fill="#023047"/>
</g>
<g clip-path="url(#clip13_10:6)">
<rect width="80" height="80" transform="translate(0 320)" fill="#E8647C"/>
<path d="M40 360L80 320V400L40 360Z" fill="#ECE8D9"/>
<path d="M40 360L80 400L-9.37785e-06 400L40 360Z" fill="#ECE8D9"/>
<path d="M40 360L0 320V400L40 360Z" fill="#ECE8D9"/>
<path d="M40 360L80 320L-5.88094e-06 320L40 360Z" fill="#ECE8D9"/>
<rect x="16" y="336" width="16" height="16" fill="#E8647C"/>
<rect x="16" y="368" width="16" height="16" fill="#E8647C"/>
<rect x="48" y="336" width="16" height="16" fill="#E8647C"/>
<rect x="48" y="368" width="16" height="16" fill="#E8647C"/>
</g>
<g clip-path="url(#clip14_10:6)">
<rect width="80" height="80" transform="translate(0 400)" fill="#E8647C"/>
<path d="M40 440L80 400V480L40 440Z" fill="#ECE8D9"/>
<path d="M40 440L80 480L-9.37785e-06 480L40 440Z" fill="#ECE8D9"/>
<path d="M40 440L0 400V480L40 440Z" fill="#ECE8D9"/>
<path d="M40 440L80 400L-5.88094e-06 400L40 440Z" fill="#ECE8D9"/>
<path d="M0 440V440C22.0914 440 40 457.909 40 480V480H0L0 440Z" fill="#47E4BB"/>
</g>
<g clip-path="url(#clip15_10:6)">
<rect width="80" height="80" transform="translate(80 80)" fill="#E8647C"/>
<path d="M120 120L160 80V160L120 120Z" fill="#ECE8D9"/>
<path d="M120 120L160 160L80 160L120 120Z" fill="#ECE8D9"/>
<path d="M120 120L80 80V160L120 120Z" fill="#ECE8D9"/>
<path d="M120 120L160 80L80 80L120 120Z" fill="#ECE8D9"/>
<rect x="120" y="120" width="40" height="40" fill="#E8647C"/>
</g>
<g clip-path="url(#clip16_10:6)">
<rect width="80" height="80" transform="translate(80 160)" fill="#FFB703"/>
<path d="M120 200L160 160V240L120 200Z" fill="#ECE8D9"/>
<path d="M120 200L160 240L80 240L120 200Z" fill="#ECE8D9"/>
<path d="M120 200L80 160V240L120 200Z" fill="#ECE8D9"/>
<path d="M120 200L160 160L80 160L120 200Z" fill="#ECE8D9"/>
<rect x="120" y="160" width="40" height="40" fill="#F77754"/>
</g>
<g clip-path="url(#clip17_10:6)">
<rect width="80" height="80" transform="translate(80 240)" fill="#E8647C"/>
<path d="M120 280L160 240V320L120 280Z" fill="#ECE8D9"/>
<path d="M120 280L160 320L80 320L120 280Z" fill="#ECE8D9"/>
<path d="M120 280L80 240V320L120 280Z" fill="#ECE8D9"/>
<path d="M120 280L160 240L80 240L120 280Z" fill="#ECE8D9"/>
<rect x="80" y="240" width="80" height="80" rx="40" fill="#FFB703"/>
</g>
<g clip-path="url(#clip18_10:6)">
<rect width="80" height="80" transform="translate(80 320)" fill="#E8647C"/>
<path d="M120 360L160 320V400L120 360Z" fill="#ECE8D9"/>
<path d="M120 360L160 400L80 400L120 360Z" fill="#ECE8D9"/>
<path d="M120 360L80 320V400L120 360Z" fill="#ECE8D9"/>
<path d="M120 360L160 320L80 320L120 360Z" fill="#ECE8D9"/>
<path d="M80 360V360C102.091 360 120 377.909 120 400V400H80V360Z" fill="#47E4BB"/>
</g>
<g clip-path="url(#clip19_10:6)">
<rect width="80" height="80" transform="translate(80 400)" fill="#E8647C"/>
<path d="M120 440L160 400V480L120 440Z" fill="#ECE8D9"/>
<path d="M120 440L160 480L80 480L120 440Z" fill="#ECE8D9"/>
<path d="M120 440L80 400V480L120 440Z" fill="#ECE8D9"/>
<path d="M120 440L160 400L80 400L120 440Z" fill="#ECE8D9"/>
<path d="M120 400H160V440V440C137.909 440 120 422.091 120 400V400Z" fill="#47E4BB"/>
</g>
<g clip-path="url(#clip20_10:6)">
<rect width="80" height="80" transform="translate(160 80)" fill="#FFB703"/>
<path d="M200 120L240 80V160L200 120Z" fill="#ECE8D9"/>
<path d="M200 120L240 160L160 160L200 120Z" fill="#ECE8D9"/>
<path d="M200 120L160 80V160L200 120Z" fill="#ECE8D9"/>
<path d="M200 120L240 80L160 80L200 120Z" fill="#ECE8D9"/>
<rect x="160" y="120" width="40" height="40" fill="#023047"/>
</g>
<g clip-path="url(#clip21_10:6)">
<rect width="80" height="80" transform="translate(160 160)" fill="#E8647C"/>
<path d="M200 200L240 160V240L200 200Z" fill="#ECE8D9"/>
<path d="M200 200L240 240L160 240L200 200Z" fill="#ECE8D9"/>
<path d="M200 200L160 160V240L200 200Z" fill="#ECE8D9"/>
<path d="M200 200L240 160L160 160L200 200Z" fill="#ECE8D9"/>
<rect x="160" y="160" width="40" height="40" fill="#FFB703"/>
</g>
<g clip-path="url(#clip22_10:6)">
<rect width="80" height="80" transform="translate(160 240)" fill="#E8647C"/>
<path d="M200 280L240 240V320L200 280Z" fill="#ECE8D9"/>
<path d="M200 280L240 320L160 320L200 280Z" fill="#ECE8D9"/>
<path d="M200 280L160 240V320L200 280Z" fill="#ECE8D9"/>
<path d="M200 280L240 240L160 240L200 280Z" fill="#ECE8D9"/>
<path d="M200 320C200 297.909 217.909 280 240 280V280V320H200V320Z" fill="#47E4BB"/>
</g>
<g clip-path="url(#clip23_10:6)">
<rect width="80" height="80" transform="translate(160 320)" fill="#E8647C"/>
<path d="M200 360L240 320V400L200 360Z" fill="#ECE8D9"/>
<path d="M200 360L240 400L160 400L200 360Z" fill="#ECE8D9"/>
<path d="M200 360L160 320V400L200 360Z" fill="#ECE8D9"/>
<path d="M200 360L240 320L160 320L200 360Z" fill="#ECE8D9"/>
<path fill-rule="evenodd" clip-rule="evenodd" d="M200 320H160C160 364.183 195.817 400 240 400V360C217.909 360 200 342.091 200 320Z" fill="#47E4BB"/>
</g>
<g clip-path="url(#clip24_10:6)">
<rect width="80" height="80" transform="translate(160 400)" fill="#E8647C"/>
<path d="M200 440L240 400V480L200 440Z" fill="#ECE8D9"/>
<path d="M200 440L240 480L160 480L200 440Z" fill="#ECE8D9"/>
<path d="M200 440L160 400V480L200 440Z" fill="#ECE8D9"/>
<path d="M200 440L240 400L160 400L200 440Z" fill="#ECE8D9"/>
<rect x="200" y="440" width="40" height="40" fill="#023047"/>
</g>
<g clip-path="url(#clip25_10:6)">
<rect width="80" height="80" transform="translate(240 80)" fill="#E8647C"/>
<path d="M280 120L320 80V160L280 120Z" fill="#ECE8D9"/>
<path d="M280 120L320 160L240 160L280 120Z" fill="#ECE8D9"/>
<path d="M280 120L240 80V160L280 120Z" fill="#ECE8D9"/>
<path d="M280 120L320 80L240 80L280 120Z" fill="#ECE8D9"/>
<rect x="240" y="80" width="40" height="40" fill="#023047"/>
</g>
<g clip-path="url(#clip26_10:6)">
<rect width="80" height="80" transform="translate(240 160)" fill="#E8647C"/>
<path d="M280 200L320 160V240L280 200Z" fill="#ECE8D9"/>
<path d="M280 200L320 240L240 240L280 200Z" fill="#ECE8D9"/>
<path d="M280 200L240 160V240L280 200Z" fill="#ECE8D9"/>
<path d="M280 200L320 160L240 160L280 200Z" fill="#ECE8D9"/>
<rect x="240" y="200" width="40" height="40" fill="#023047"/>
</g>
<g clip-path="url(#clip27_10:6)">
<rect width="80" height="80" transform="translate(240 240)" fill="#F77754"/>
<path d="M280 280L320 240V320L280 280Z" fill="#ECE8D9"/>
<path d="M280 280L320 320L240 320L280 280Z" fill="#ECE8D9"/>
<path d="M280 280L240 240V320L280 280Z" fill="#ECE8D9"/>
<path d="M280 280L320 240L240 240L280 280Z" fill="#ECE8D9"/>
<rect x="257.373" y="280" width="32" height="32" transform="rotate(-45 257.373 280)" fill="#023047"/>
</g>
<g clip-path="url(#clip28_10:6)">
<rect width="80" height="80" transform="translate(240 320)" fill="#E8647C"/>
<path d="M280 360L320 320V400L280 360Z" fill="#ECE8D9"/>
<path d="M280 360L320 400L240 400L280 360Z" fill="#ECE8D9"/>
<path d="M280 360L240 320V400L280 360Z" fill="#ECE8D9"/>
<path d="M280 360L320 320L240 320L280 360Z" fill="#ECE8D9"/>
<path d="M240 320H280V320C280 342.091 262.091 360 240 360V360V320Z" fill="#47E4BB"/>
</g>
<g clip-path="url(#clip29_10:6)">
<rect width="80" height="80" transform="translate(240 400)" fill="#E8647C"/>
<path d="M280 440L320 400V480L280 440Z" fill="#ECE8D9"/>
<path d="M280 440L320 480L240 480L280 440Z" fill="#ECE8D9"/>
<path d="M280 440L240 400V480L280 440Z" fill="#ECE8D9"/>
<path d="M280 440L320 400L240 400L280 440Z" fill="#ECE8D9"/>
<rect x="256" y="416" width="16" height="16" rx="8" fill="#FFB703"/>
<rect x="256" y="448" width="16" height="16" rx="8" fill="#FFB703"/>
<rect x="288" y="416" width="16" height="16" rx="8" fill="#FFB703"/>
<rect x="288" y="448" width="16" height="16" rx="8" fill="#FFB703"/>
</g>
<g clip-path="url(#clip30_10:6)">
<rect width="80" height="80" transform="translate(320 80)" fill="#E8647C"/>
<path d="M360 120L400 80V160L360 120Z" fill="#ECE8D9"/>
<path d="M360 120L400 160L320 160L360 120Z" fill="#ECE8D9"/>
<path d="M360 120L320 80V160L360 120Z" fill="#ECE8D9"/>
<path d="M360 120L400 80L320 80L360 120Z" fill="#ECE8D9"/>
<rect x="320" y="80" width="80" height="80" rx="40" fill="#023047"/>
</g>
<g clip-path="url(#clip31_10:6)">
<rect width="80" height="80" transform="translate(320 160)" fill="#E8647C"/>
<path d="M360 200L400 160V240L360 200Z" fill="#ECE8D9"/>
<path d="M360 200L400 240L320 240L360 200Z" fill="#ECE8D9"/>
<path d="M360 200L320 160V240L360 200Z" fill="#ECE8D9"/>
<path d="M360 200L400 160L320 160L360 200Z" fill="#ECE8D9"/>
<rect x="320" y="176" width="80" height="16" fill="#E8647C"/>
<rect x="320" y="208" width="80" height="16" fill="#E8647C"/>
</g>
<g clip-path="url(#clip32_10:6)">
<rect width="80" height="80" transform="translate(320 240)" fill="#E8647C"/>
<path d="M360 280L400 240V320L360 280Z" fill="#ECE8D9"/>
<path d="M360 280L400 320L320 320L360 280Z" fill="#ECE8D9"/>
<path d="M360 280L320 240V320L360 280Z" fill="#ECE8D9"/>
<path d="M360 280L400 240L320 240L360 280Z" fill="#ECE8D9"/>
<rect x="344" y="264" width="32" height="32" fill="#E8647C"/>
</g>
<g clip-path="url(#clip33_10:6)">
<rect width="80" height="80" transform="translate(320 320)" fill="#E8647C"/>
<path d="M360 360L400 320V400L360 360Z" fill="#ECE8D9"/>
<path d="M360 360L400 400L320 400L360 360Z" fill="#ECE8D9"/>
<path d="M360 360L320 320V400L360 360Z" fill="#ECE8D9"/>
<path d="M360 360L400 320L320 320L360 360Z" fill="#ECE8D9"/>
<rect x="320" y="360" width="40" height="40" fill="#023047"/>
</g>
<g clip-path="url(#clip34_10:6)">
<rect width="80" height="80" transform="translate(320 400)" fill="#FFB703"/>
<path d="M360 440L400 400V480L360 440Z" fill="#ECE8D9"/>
<path d="M360 440L400 480L320 480L360 440Z" fill="#ECE8D9"/>
<path d="M360 440L320 400V480L360 440Z" fill="#ECE8D9"/>
<path d="M360 440L400 400L320 400L360 440Z" fill="#ECE8D9"/>
<path d="M360 480C360 457.909 377.909 440 400 440V440V480H360V480Z" fill="#47E4BB"/>
</g>
<g clip-path="url(#clip35_10:6)">
<rect width="80" height="80" transform="translate(400 80)" fill="#E8647C"/>
<path d="M440 120L480 80V160L440 120Z" fill="#ECE8D9"/>
<path d="M440 120L480 160L400 160L440 120Z" fill="#ECE8D9"/>
<path d="M440 120L400 80V160L440 120Z" fill="#ECE8D9"/>
<path d="M440 120L480 80L400 80L440 120Z" fill="#ECE8D9"/>
<path fill-rule="evenodd" clip-rule="evenodd" d="M480 80C435.817 80 400 115.817 400 160H440C440 137.909 457.909 120 480 120V80Z" fill="#47E4BB"/>
</g>
<g clip-path="url(#clip36_10:6)">
<rect width="80" height="80" transform="translate(400 160)" fill="#E8647C"/>
<path d="M440 200L480 160V240L440 200Z" fill="#ECE8D9"/>
<path d="M440 200L480 240L400 240L440 200Z" fill="#ECE8D9"/>
<path d="M440 200L400 160V240L440 200Z" fill="#ECE8D9"/>
<path d="M440 200L480 160L400 160L440 200Z" fill="#ECE8D9"/>
<path d="M440 160H480V200V200C457.909 200 440 182.091 440 160V160Z" fill="#47E4BB"/>
</g>
<g clip-path="url(#clip37_10:6)">
<rect width="80" height="80" transform="translate(400 240)" fill="#E8647C"/>
<path d="M440 280L480 240V320L440 280Z" fill="#ECE8D9"/>
<path d="M440 280L480 320L400 320L440 280Z" fill="#ECE8D9"/>
<path d="M440 280L400 240V320L440 280Z" fill="#ECE8D9"/>
<path d="M440 280L480 240L400 240L440 280Z" fill="#ECE8D9"/>
<rect x="416" y="256" width="16" height="16" rx="8" fill="#E8647C"/>
<rect x="416" y="288" width="16" height="16" rx="8" fill="#E8647C"/>
<rect x="448" y="256" width="16" height="16" rx="8" fill="#E8647C"/>
<rect x="448" y="288" width="16" height="16" rx="8" fill="#E8647C"/>
</g>
<g clip-path="url(#clip38_10:6)">
<rect width="80" height="80" transform="translate(400 320)" fill="#E8647C"/>
<path d="M440 360L480 320V400L440 360Z" fill="#ECE8D9"/>
<path d="M440 360L480 400L400 400L440 360Z" fill="#ECE8D9"/>
<path d="M440 360L400 320V400L440 360Z" fill="#ECE8D9"/>
<path d="M440 360L480 320L400 320L440 360Z" fill="#ECE8D9"/>
<path d="M440 400C440 377.909 457.909 360 480 360V360V400H440V400Z" fill="#47E4BB"/>
</g>
<g clip-path="url(#clip39_10:6)">
<rect width="80" height="80" transform="translate(400 400)" fill="#E8647C"/>
<path d="M440 440L480 400V480L440 440Z" fill="#ECE8D9"/>
<path d="M440 440L480 480L400 480L440 440Z" fill="#ECE8D9"/>
<path d="M440 440L400 400V480L440 440Z" fill="#ECE8D9"/>
<path d="M440 440L480 400L400 400L440 440Z" fill="#ECE8D9"/>
<path fill-rule="evenodd" clip-rule="evenodd" d="M440 400H400C400 444.183 435.817 480 480 480V440C457.909 440 440 422.091 440 400Z" fill="#47E4BB"/>
</g>
<g clip-path="url(#clip40_10:6)">
<rect width="80" height="80" transform="translate(480 80)" fill="#E8647C"/>
<path d="M520 120L560 80V160L520 120Z" fill="#ECE8D9"/>
<path d="M520 120L560 160L480 160L520 120Z" fill="#ECE8D9"/>
<path d="M520 120L480 80V160L520 120Z" fill="#ECE8D9"/>
<path d="M520 120L560 80L480 80L520 120Z" fill="#ECE8D9"/>
<path d="M480 80V80C524.183 80 560 115.817 560 160V160H480V80Z" fill="#47E4BB"/>
<path d="M480 120V120C502.091 120 520 137.909 520 160V160H480V120Z" fill="#999999"/>
</g>
<g clip-path="url(#clip41_10:6)">
<rect width="80" height="80" transform="translate(480 160)" fill="#E8647C"/>
<path d="M520 200L560 160V240L520 200Z" fill="#ECE8D9"/>
<path d="M520 200L560 240L480 240L520 200Z" fill="#ECE8D9"/>
<path d="M520 200L480 160V240L520 200Z" fill="#ECE8D9"/>
<path d="M520 200L560 160L480 160L520 200Z" fill="#ECE8D9"/>
<path d="M480 160H560V160C560 204.183 524.183 240 480 240V240V160Z" fill="#47E4BB"/>
<path d="M480 160H520V160C520 182.091 502.091 200 480 200V200V160Z" fill="#999999"/>
</g>
<g clip-path="url(#clip42_10:6)">
<rect width="80" height="80" transform="translate(480 240)" fill="#FFB703"/>
<path d="M520 280L560 240V320L520 280Z" fill="#ECE8D9"/>
<path d="M520 280L560 320L480 320L520 280Z" fill="#ECE8D9"/>
<path d="M520 280L480 240V320L520 280Z" fill="#ECE8D9"/>
<path d="M520 280L560 240L480 240L520 280Z" fill="#ECE8D9"/>
<rect x="480" y="280" width="40" height="40" fill="#023047"/>
</g>
<g clip-path="url(#clip43_10:6)">
<rect width="80" height="80" transform="translate(480 320)" fill="#E8647C"/>
<path d="M520 360L560 320V400L520 360Z" fill="#ECE8D9"/>
<path d="M520 360L560 400L480 400L520 360Z" fill="#ECE8D9"/>
<path d="M520 360L480 320V400L520 360Z" fill="#ECE8D9"/>
<path d="M520 360L560 320L480 320L520 360Z" fill="#ECE8D9"/>
<path d="M480 320H520V320C520 342.091 502.091 360 480 360V360V320Z" fill="#47E4BB"/>
</g>
<g clip-path="url(#clip44_10:6)">
<rect width="80" height="80" transform="translate(480 400)" fill="#E8647C"/>
<path d="M520 440L560 400V480L520 440Z" fill="#ECE8D9"/>
<path d="M520 440L560 480L480 480L520 440Z" fill="#ECE8D9"/>
<path d="M520 440L480 400V480L520 440Z" fill="#ECE8D9"/>
<path d="M520 440L560 400L480 400L520 440Z" fill="#ECE8D9"/>
<path d="M480 440V440C502.091 440 520 457.909 520 480V480H480V440Z" fill="#47E4BB"/>
</g>
<g clip-path="url(#clip45_10:6)">
<rect width="80" height="80" transform="translate(560 80)" fill="#F77754"/>
<path d="M600 120L640 80V160L600 120Z" fill="#ECE8D9"/>
<path d="M600 120L640 160L560 160L600 120Z" fill="#ECE8D9"/>
<path d="M600 120L560 80V160L600 120Z" fill="#ECE8D9"/>
<path d="M600 120L640 80L560 80L600 120Z" fill="#ECE8D9"/>
<rect x="576" y="96" width="16" height="16" rx="8" fill="#FFB703"/>
<rect x="576" y="128" width="16" height="16" rx="8" fill="#FFB703"/>
<rect x="608" y="96" width="16" height="16" rx="8" fill="#FFB703"/>
<rect x="608" y="128" width="16" height="16" rx="8" fill="#FFB703"/>
</g>
<g clip-path="url(#clip46_10:6)">
<rect width="80" height="80" transform="translate(560 160)" fill="#E8647C"/>
<path d="M600 200L640 160V240L600 200Z" fill="#ECE8D9"/>
<path d="M600 200L640 240L560 240L600 200Z" fill="#ECE8D9"/>
<path d="M600 200L560 160V240L600 200Z" fill="#ECE8D9"/>
<path d="M600 200L640 160L560 160L600 200Z" fill="#ECE8D9"/>
<path fill-rule="evenodd" clip-rule="evenodd" d="M600 160C577.909 160 560 177.909 560 200C560 222.091 577.909 240 600 240C622.091 240 640 222.091 640 200C640 177.909 622.091 160 600 160ZM600 174.858L574.858 200L600 225.142L625.142 200L600 174.858Z" fill="#E8647C"/>
</g>
<g clip-path="url(#clip47_10:6)">
<rect width="80" height="80" transform="translate(560 240)" fill="#E8647C"/>
<path d="M600 280L640 240V320L600 280Z" fill="#ECE8D9"/>
<path d="M600 280L640 320L560 320L600 280Z" fill="#ECE8D9"/>
<path d="M600 280L560 240V320L600 280Z" fill="#ECE8D9"/>
<path d="M600 280L640 240L560 240L600 280Z" fill="#ECE8D9"/>
<rect x="584" y="264" width="32" height="32" rx="16" fill="#FFB703"/>
</g>
<g clip-path="url(#clip48_10:6)">
<rect width="80" height="80" transform="translate(560 320)" fill="#E8647C"/>
<path d="M600 360L640 320V400L600 360Z" fill="#ECE8D9"/>
<path d="M600 360L640 400L560 400L600 360Z" fill="#ECE8D9"/>
<path d="M600 360L560 320V400L600 360Z" fill="#ECE8D9"/>
<path d="M600 360L640 320L560 320L600 360Z" fill="#ECE8D9"/>
<rect x="576" y="336" width="16" height="16" fill="#023047"/>
<rect x="576" y="368" width="16" height="16" fill="#023047"/>
<rect x="608" y="336" width="16" height="16" fill="#023047"/>
<rect x="608" y="368" width="16" height="16" fill="#023047"/>
</g>
<g clip-path="url(#clip49_10:6)">
<rect width="80" height="80" transform="translate(560 400)" fill="#E8647C"/>
<path d="M600 440L640 400V480L600 440Z" fill="#ECE8D9"/>
<path d="M600 440L640 480L560 480L600 440Z" fill="#ECE8D9"/>
<path d="M600 440L560 400V480L600 440Z" fill="#ECE8D9"/>
<path d="M600 440L640 400L560 400L600 440Z" fill="#ECE8D9"/>
<rect x="560" y="400" width="80" height="80" rx="40" fill="#E8647C"/>
</g>
<g clip-path="url(#clip50_10:6)">
<rect width="80" height="80" transform="translate(640 80)" fill="#E8647C"/>
<path d="M680 120L720 80V160L680 120Z" fill="#ECE8D9"/>
<path d="M680 120L720 160L640 160L680 120Z" fill="#ECE8D9"/>
<path d="M680 120L640 80V160L680 120Z" fill="#ECE8D9"/>
<path d="M680 120L720 80L640 80L680 120Z" fill="#ECE8D9"/>
<rect x="664" y="104" width="32" height="32" fill="#023047"/>
</g>
<g clip-path="url(#clip51_10:6)">
<rect width="80" height="80" transform="translate(640 160)" fill="#F77754"/>
<path d="M680 200L720 160V240L680 200Z" fill="#ECE8D9"/>
<path d="M680 200L720 240L640 240L680 200Z" fill="#ECE8D9"/>
<path d="M680 200L640 160V240L680 200Z" fill="#ECE8D9"/>
<path d="M680 200L720 160L640 160L680 200Z" fill="#ECE8D9"/>
<path fill-rule="evenodd" clip-rule="evenodd" d="M720 160C675.817 160 640 195.817 640 240H680C680 217.909 697.909 200 720 200V160Z" fill="#47E4BB"/>
</g>
<g clip-path="url(#clip52_10:6)">
<rect width="80" height="80" transform="translate(640 240)" fill="#E8647C"/>
<path d="M680 280L720 240V320L680 280Z" fill="#ECE8D9"/>
<path d="M680 280L720 320L640 320L680 280Z" fill="#ECE8D9"/>
<path d="M680 280L640 240V320L680 280Z" fill="#ECE8D9"/>
<path d="M680 280L720 240L640 240L680 280Z" fill="#ECE8D9"/>
<path d="M680 240H720V280V280C697.909 280 680 262.091 680 240V240Z" fill="#47E4BB"/>
</g>
<g clip-path="url(#clip53_10:6)">
<rect width="80" height="80" transform="translate(640 320)" fill="#E8647C"/>
<path d="M680 360L720 320V400L680 360Z" fill="#ECE8D9"/>
<path d="M680 360L720 400L640 400L680 360Z" fill="#ECE8D9"/>
<path d="M680 360L640 320V400L680 360Z" fill="#ECE8D9"/>
<path d="M680 360L720 320L640 320L680 360Z" fill="#ECE8D9"/>
<rect x="640" y="336" width="80" height="16" fill="#F77754"/>
<rect x="640" y="368" width="80" height="16" fill="#F77754"/>
</g>
<g clip-path="url(#clip54_10:6)">
<rect width="80" height="80" transform="translate(640 400)" fill="#E8647C"/>
<path d="M680 440L720 400V480L680 440Z" fill="#ECE8D9"/>
<path d="M680 440L720 480L640 480L680 440Z" fill="#ECE8D9"/>
<path d="M680 440L640 400V480L680 440Z" fill="#ECE8D9"/>
<path d="M680 440L720 400L640 400L680 440Z" fill="#ECE8D9"/>
<rect x="680" y="440" width="40" height="40" fill="#023047"/>
</g>
<rect x="55" y="48" width="225" height="128" fill="#F8B500"/>
<path d="M70.2695 77L72.4668 64.5195H74.8047L72.6074 77H70.2695ZM68.7227 66.6641L69.1006 64.5195H78.2061L77.8281 66.6641H68.7227ZM78.0215 77L80.2275 64.5195H82.6445L80.4385 77H78.0215ZM83.5146 77L84.5078 71.375C84.6016 70.8477 84.5576 70.4492 84.376 70.1797C84.2002 69.9043 83.9072 69.7666 83.4971 69.7666C83.1572 69.7666 82.835 69.8516 82.5303 70.0215C82.2314 70.1914 81.9678 70.4785 81.7393 70.8828C81.5166 71.2812 81.3467 71.8232 81.2295 72.5088L81.6514 69.3711H82.0908C82.2783 68.7793 82.5801 68.3223 82.9961 68C83.4121 67.6719 83.9395 67.5078 84.5781 67.5078C85.5684 67.5078 86.2627 67.8301 86.6611 68.4746C87.0654 69.1191 87.1562 70.0684 86.9336 71.3223L85.9316 77H83.5146ZM94.5801 66.4268C94.1289 66.4268 93.7627 66.2861 93.4814 66.0049C93.2002 65.7236 93.0596 65.3574 93.0596 64.9062C93.0596 64.4551 93.2002 64.0889 93.4814 63.8076C93.7627 63.5264 94.1289 63.3857 94.5801 63.3857C95.0312 63.3857 95.3975 63.5264 95.6787 63.8076C95.96 64.0889 96.1006 64.4551 96.1006 64.9062C96.1006 65.3574 95.96 65.7236 95.6787 66.0049C95.3975 66.2861 95.0312 66.4268 94.5801 66.4268ZM96.584 74.4336L97.1904 76.4375C96.833 76.6426 96.4551 76.8184 96.0566 76.9648C95.6582 77.1055 95.2012 77.1758 94.6855 77.1758C93.5605 77.1758 92.7256 76.9268 92.1807 76.4287C91.6416 75.9307 91.4014 75.2012 91.46 74.2402C91.4893 73.8242 91.5566 73.417 91.6621 73.0186C91.7734 72.6201 91.8936 72.2334 92.0225 71.8584C92.1572 71.4834 92.2656 71.126 92.3477 70.7861C92.4355 70.4463 92.4004 70.1914 92.2422 70.0215C92.084 69.8457 91.8086 69.7578 91.416 69.7578C90.8594 69.7578 90.3232 69.8252 89.8076 69.96L89.623 67.7451C89.9688 67.6455 90.3145 67.5811 90.6602 67.5518C91.0059 67.5166 91.3516 67.499 91.6973 67.499C92.9863 67.499 93.8857 67.7773 94.3955 68.334C94.9111 68.8848 95.0371 69.7021 94.7734 70.7861C94.6855 71.167 94.5771 71.5244 94.4482 71.8584C94.3252 72.1865 94.2109 72.5146 94.1055 72.8428C94.0059 73.1709 93.9414 73.5225 93.9121 73.8975C93.8652 74.5771 94.2373 74.917 95.0283 74.917C95.3213 74.917 95.5762 74.8818 95.793 74.8115C96.0156 74.7354 96.2793 74.6094 96.584 74.4336ZM104.178 67.6836H105.224L105.654 69.7227C105.455 69.9043 105.18 70.1211 104.828 70.373C104.477 70.625 104.09 70.8916 103.668 71.1729C103.246 71.4482 102.821 71.7178 102.394 71.9814C101.966 72.2451 101.573 72.4795 101.216 72.6846C100.864 72.8896 100.583 73.0449 100.372 73.1504L99.1855 71.1201C99.4785 70.9502 99.8447 70.7305 100.284 70.4609C100.729 70.1855 101.195 69.8867 101.682 69.5645C102.174 69.2363 102.64 68.9082 103.079 68.5801C103.524 68.252 103.891 67.9531 104.178 67.6836ZM104.266 69.0898L104.187 67.6836H106.454C106.665 68.4746 106.864 69.1455 107.052 69.6963C107.245 70.2471 107.418 70.7305 107.57 71.1465C107.723 71.5566 107.84 71.9463 107.922 72.3154C108.01 72.6787 108.054 73.0713 108.054 73.4932C108.06 74.665 107.638 75.5732 106.788 76.2178C105.944 76.8564 104.752 77.1758 103.211 77.1758C102.531 77.1758 101.937 77.123 101.427 77.0176C100.923 76.9121 100.428 76.7334 99.9414 76.4814L100.592 74.3809C101.055 74.5684 101.488 74.7061 101.893 74.7939C102.297 74.876 102.736 74.917 103.211 74.917C103.973 74.917 104.564 74.7793 104.986 74.5039C105.408 74.2227 105.619 73.8271 105.619 73.3174C105.619 72.9893 105.578 72.6553 105.496 72.3154C105.42 71.9697 105.314 71.6182 105.18 71.2607C105.045 70.9033 104.898 70.543 104.74 70.1797C104.582 69.8164 104.424 69.4531 104.266 69.0898ZM128.62 74.6006L129.086 76.7803C128.617 76.9209 128.192 77.0205 127.812 77.0791C127.431 77.1436 127.056 77.1758 126.687 77.1758C125.022 77.1758 123.815 76.6748 123.065 75.6729C122.321 74.665 121.949 73.0479 121.949 70.8213C121.949 69.374 122.151 68.1143 122.556 67.042C122.966 65.9639 123.54 65.1289 124.278 64.5371C125.017 63.9395 125.878 63.6406 126.862 63.6406C127.653 63.6406 128.286 63.9131 128.761 64.458C129.241 65.0029 129.481 65.7295 129.481 66.6377C129.481 68.126 129.112 69.4912 128.374 70.7334C127.642 71.9697 126.593 73.0361 125.228 73.9326C123.862 74.8291 122.233 75.5117 120.341 75.9805L119.822 73.9678C121.316 73.6162 122.603 73.0947 123.681 72.4033C124.765 71.7061 125.6 70.874 126.186 69.9072C126.771 68.9404 127.064 67.874 127.064 66.708C127.059 66.4326 127.003 66.2305 126.897 66.1016C126.792 65.9668 126.631 65.8994 126.414 65.8994C125.957 65.8994 125.559 66.1074 125.219 66.5234C124.879 66.9395 124.615 67.5225 124.428 68.2725C124.24 69.0225 124.146 69.9014 124.146 70.9092C124.146 72.3154 124.349 73.335 124.753 73.9678C125.163 74.6006 125.822 74.917 126.73 74.917C127.076 74.917 127.398 74.8936 127.697 74.8467C127.996 74.7939 128.304 74.7119 128.62 74.6006ZM133.322 77.1846C132.443 77.1846 131.764 76.9561 131.283 76.499C130.803 76.042 130.562 75.3975 130.562 74.5654C130.562 73.5107 130.797 72.5557 131.266 71.7002C131.734 70.8389 132.391 70.1035 133.234 69.4941C134.084 68.8848 135.077 68.416 136.214 68.0879C137.351 67.7598 138.587 67.5957 139.923 67.5957H140.143L139.026 74.0029C138.956 74.4131 138.997 74.6943 139.149 74.8467C139.302 74.999 139.618 75.0752 140.099 75.0752H140.521L140.169 77.0879H139.211C138.572 77.0879 138.08 77.0205 137.734 76.8857C137.395 76.7451 137.16 76.5635 137.031 76.3408C136.902 76.1123 136.835 75.8662 136.829 75.6025C136.829 75.333 136.847 75.0664 136.882 74.8027L137.462 75.0312H136.442L136.996 73.8447C136.691 74.9053 136.217 75.7285 135.572 76.3145C134.928 76.8945 134.178 77.1846 133.322 77.1846ZM133.894 74.9258C134.661 74.9258 135.335 74.5977 135.915 73.9414C136.501 73.2793 136.899 72.3447 137.11 71.1377L137.559 68.5889L138.402 69.8545C137.646 69.8838 136.94 70.0127 136.284 70.2412C135.628 70.4639 135.054 70.7656 134.562 71.1465C134.069 71.5215 133.686 71.9609 133.41 72.4648C133.135 72.9629 132.997 73.502 132.997 74.082C132.997 74.3691 133.07 74.583 133.217 74.7236C133.363 74.8584 133.589 74.9258 133.894 74.9258ZM141.338 77L142.981 67.6836H145.064L145.003 69.9072L143.755 77H141.338ZM146.805 77L147.798 71.375C147.892 70.8477 147.848 70.4492 147.666 70.1797C147.484 69.9043 147.188 69.7666 146.778 69.7666C146.444 69.7666 146.128 69.8516 145.829 70.0215C145.53 70.1914 145.27 70.4785 145.047 70.8828C144.824 71.2812 144.657 71.8232 144.546 72.5088L144.968 69.3711H145.275C145.475 68.7793 145.791 68.3223 146.225 68C146.658 67.6719 147.203 67.5078 147.859 67.5078C148.855 67.5078 149.553 67.8301 149.951 68.4746C150.355 69.1191 150.446 70.0684 150.224 71.3223L149.222 77H146.805ZM151.894 81.2188L151.806 79.1533L153.651 79.0391C154.325 78.998 154.896 78.8721 155.365 78.6611C155.834 78.4502 156.221 78.1807 156.525 77.8525C156.836 77.5303 157.076 77.167 157.246 76.7627C157.416 76.3584 157.539 75.9424 157.615 75.5146L158.784 68.8877L161.368 67.5957H161.438L160.085 75.2334C159.938 76.0596 159.722 76.8213 159.435 77.5186C159.147 78.2158 158.755 78.8252 158.257 79.3467C157.759 79.874 157.12 80.293 156.341 80.6035C155.562 80.9141 154.606 81.0957 153.476 81.1484L151.894 81.2188ZM159.54 69.8721C158.813 69.9014 158.137 70.0332 157.51 70.2676C156.883 70.4961 156.332 70.8096 155.857 71.208C155.389 71.6006 155.022 72.0576 154.759 72.5791C154.495 73.0947 154.363 73.6543 154.363 74.2578C154.363 74.5449 154.439 74.7676 154.592 74.9258C154.75 75.084 154.97 75.1631 155.251 75.1631C155.772 75.1631 156.241 75.0107 156.657 74.7061C157.073 74.3955 157.428 73.9414 157.721 73.3438C158.014 72.7402 158.236 72.0049 158.389 71.1377L158.45 70.7861L159.558 71.5244L158.538 75.0576H157.167L157.765 74.1963C157.489 75.1455 157.047 75.8809 156.438 76.4023C155.828 76.9238 155.096 77.1846 154.24 77.1846C153.502 77.1846 152.931 76.9648 152.526 76.5254C152.128 76.0801 151.929 75.4561 151.929 74.6533C151.929 73.5811 152.163 72.6143 152.632 71.7529C153.101 70.8857 153.757 70.1416 154.601 69.5205C155.45 68.8994 156.44 68.4248 157.571 68.0967C158.708 67.7627 159.941 67.5957 161.271 67.5957H161.43L159.54 69.8721ZM165.288 77.1846C164.421 77.1846 163.75 76.9092 163.275 76.3584C162.807 75.8076 162.572 75.0342 162.572 74.0381C162.572 73.1826 162.71 72.2393 162.985 71.208C163.261 70.1768 163.706 68.9434 164.321 67.5078L166.712 67.8506C166.12 69.3154 165.687 70.5195 165.411 71.4629C165.142 72.4062 165.007 73.1914 165.007 73.8184C165.007 74.1699 165.104 74.4424 165.297 74.6357C165.49 74.8291 165.766 74.9258 166.123 74.9258C166.773 74.9258 167.298 74.6006 167.696 73.9502C168.101 73.2998 168.42 72.3623 168.654 71.1377L168.566 75.0312H167.986L168.329 74.1084C168.142 74.7412 167.937 75.2891 167.714 75.752C167.491 76.209 167.192 76.5635 166.817 76.8154C166.442 77.0615 165.933 77.1846 165.288 77.1846ZM170.359 77.0879C169.861 77.0879 169.457 77.0029 169.146 76.833C168.842 76.6631 168.628 76.4111 168.505 76.0771C168.388 75.7373 168.361 75.3125 168.426 74.8027L168.364 72.7725L169.27 67.6836H171.678L170.57 74.0029C170.5 74.4131 170.515 74.6943 170.614 74.8467C170.714 74.999 170.925 75.0752 171.247 75.0752H171.669L171.317 77.0879H170.359ZM175.51 77.1846C174.631 77.1846 173.951 76.9561 173.471 76.499C172.99 76.042 172.75 75.3975 172.75 74.5654C172.75 73.5107 172.984 72.5557 173.453 71.7002C173.922 70.8389 174.578 70.1035 175.422 69.4941C176.271 68.8848 177.265 68.416 178.401 68.0879C179.538 67.7598 180.774 67.5957 182.11 67.5957H182.33L181.214 74.0029C181.144 74.4131 181.185 74.6943 181.337 74.8467C181.489 74.999 181.806 75.0752 182.286 75.0752H182.708L182.356 77.0879H181.398C180.76 77.0879 180.268 77.0205 179.922 76.8857C179.582 76.7451 179.348 76.5635 179.219 76.3408C179.09 76.1123 179.022 75.8662 179.017 75.6025C179.017 75.333 179.034 75.0664 179.069 74.8027L179.649 75.0312H178.63L179.184 73.8447C178.879 74.9053 178.404 75.7285 177.76 76.3145C177.115 76.8945 176.365 77.1846 175.51 77.1846ZM176.081 74.9258C176.849 74.9258 177.522 74.5977 178.103 73.9414C178.688 73.2793 179.087 72.3447 179.298 71.1377L179.746 68.5889L180.59 69.8545C179.834 69.8838 179.128 70.0127 178.472 70.2412C177.815 70.4639 177.241 70.7656 176.749 71.1465C176.257 71.5215 175.873 71.9609 175.598 72.4648C175.322 72.9629 175.185 73.502 175.185 74.082C175.185 74.3691 175.258 74.583 175.404 74.7236C175.551 74.8584 175.776 74.9258 176.081 74.9258ZM183.534 81.2188L183.446 79.1533L185.292 79.0391C185.966 78.998 186.537 78.8721 187.006 78.6611C187.475 78.4502 187.861 78.1807 188.166 77.8525C188.477 77.5303 188.717 77.167 188.887 76.7627C189.057 76.3584 189.18 75.9424 189.256 75.5146L190.425 68.8877L193.009 67.5957H193.079L191.726 75.2334C191.579 76.0596 191.362 76.8213 191.075 77.5186C190.788 78.2158 190.396 78.8252 189.897 79.3467C189.399 79.874 188.761 80.293 187.981 80.6035C187.202 80.9141 186.247 81.0957 185.116 81.1484L183.534 81.2188ZM191.181 69.8721C190.454 69.9014 189.777 70.0332 189.15 70.2676C188.523 70.4961 187.973 70.8096 187.498 71.208C187.029 71.6006 186.663 72.0576 186.399 72.5791C186.136 73.0947 186.004 73.6543 186.004 74.2578C186.004 74.5449 186.08 74.7676 186.232 74.9258C186.391 75.084 186.61 75.1631 186.892 75.1631C187.413 75.1631 187.882 75.0107 188.298 74.7061C188.714 74.3955 189.068 73.9414 189.361 73.3438C189.654 72.7402 189.877 72.0049 190.029 71.1377L190.091 70.7861L191.198 71.5244L190.179 75.0576H188.808L189.405 74.1963C189.13 75.1455 188.688 75.8809 188.078 76.4023C187.469 76.9238 186.736 77.1846 185.881 77.1846C185.143 77.1846 184.571 76.9648 184.167 76.5254C183.769 76.0801 183.569 75.4561 183.569 74.6533C183.569 73.5811 183.804 72.6143 184.272 71.7529C184.741 70.8857 185.397 70.1416 186.241 69.5205C187.091 68.8994 188.081 68.4248 189.212 68.0967C190.349 67.7627 191.582 67.5957 192.912 67.5957H193.07L191.181 69.8721ZM198.994 74.917C199.416 74.917 199.867 74.8525 200.348 74.7236C200.828 74.5947 201.291 74.4131 201.736 74.1787L202.343 76.2617C201.786 76.5898 201.191 76.8242 200.559 76.9648C199.926 77.1055 199.319 77.1758 198.739 77.1758C197.45 77.1758 196.442 76.8447 195.716 76.1826C194.995 75.5146 194.635 74.5889 194.635 73.4053C194.635 72.2217 194.872 71.1904 195.347 70.3115C195.821 69.4268 196.483 68.7383 197.333 68.2461C198.188 67.7539 199.185 67.5078 200.321 67.5078C201.282 67.5078 202.032 67.748 202.571 68.2285C203.116 68.709 203.389 69.377 203.389 70.2324C203.389 71.3633 202.809 72.1924 201.648 72.7197C200.488 73.2471 198.795 73.5283 196.568 73.5635L196.208 71.8936C197.731 71.8818 198.918 71.7471 199.768 71.4893C200.617 71.2256 201.042 70.8682 201.042 70.417C201.042 70.1885 200.942 70.0098 200.743 69.8809C200.544 69.752 200.263 69.6875 199.899 69.6875C199.296 69.6875 198.766 69.8311 198.309 70.1182C197.852 70.4053 197.494 70.8066 197.236 71.3223C196.984 71.8379 196.855 72.4385 196.85 73.124C196.855 73.6865 197.046 74.126 197.421 74.4424C197.802 74.7588 198.326 74.917 198.994 74.917ZM72.3525 95.917C72.8799 95.917 73.3955 95.835 73.8994 95.6709C74.4092 95.5068 74.8604 95.29 75.2529 95.0205L76.1494 96.9541C75.5986 97.3232 74.9688 97.6191 74.2598 97.8418C73.5566 98.0645 72.8359 98.1758 72.0977 98.1758C70.75 98.1758 69.7041 97.8477 68.96 97.1914C68.2217 96.5293 67.8525 95.6006 67.8525 94.4053C67.8525 93.2158 68.0811 92.1816 68.5381 91.3027C69.001 90.418 69.6484 89.7324 70.4805 89.2461C71.3184 88.7539 72.2969 88.5078 73.416 88.5078C74.2891 88.5078 75.0127 88.6396 75.5869 88.9033C76.167 89.167 76.6562 89.5918 77.0547 90.1777L75.4287 91.751C75.1416 91.4053 74.8193 91.1562 74.4619 91.0039C74.1045 90.8457 73.6738 90.7666 73.1699 90.7666C72.5898 90.7666 72.083 90.9043 71.6494 91.1797C71.2217 91.4492 70.8877 91.8301 70.6475 92.3223C70.4131 92.8086 70.293 93.3799 70.2871 94.0361C70.293 94.6338 70.4746 95.0967 70.832 95.4248C71.1953 95.7529 71.7021 95.917 72.3525 95.917ZM81.959 98.1758C80.8633 98.1758 80.0078 97.8799 79.3926 97.2881C78.7832 96.6904 78.4785 95.8613 78.4785 94.8008C78.4785 92.8203 78.9355 91.2764 79.8496 90.1689C80.7637 89.0615 82.0352 88.5078 83.6641 88.5078C84.7598 88.5078 85.6123 88.8125 86.2217 89.4219C86.8369 90.0312 87.1445 90.8809 87.1445 91.9707C87.1445 93.9219 86.6875 95.4453 85.7734 96.541C84.8594 97.6309 83.5879 98.1758 81.959 98.1758ZM82.3809 95.917C83.1074 95.917 83.6729 95.6035 84.0771 94.9766C84.4873 94.3438 84.6924 93.4678 84.6924 92.3486C84.6924 91.8506 84.5693 91.4639 84.3232 91.1885C84.0771 90.9072 83.7314 90.7666 83.2861 90.7666C82.5479 90.7666 81.9707 91.083 81.5547 91.7158C81.1387 92.3428 80.9307 93.2158 80.9307 94.335C80.9307 94.833 81.0566 95.2227 81.3086 95.5039C81.5664 95.7793 81.9238 95.917 82.3809 95.917ZM91.8291 88.6836L91.7061 91.083L90.4932 98H88.1113L89.7725 88.6836H91.8291ZM91.6973 98L92.8398 91.5312C92.9336 90.9922 92.793 90.7227 92.418 90.7227C92.2012 90.7227 92.0195 90.834 91.873 91.0566C91.7324 91.2734 91.6182 91.6045 91.5303 92.0498L91.4951 89.8438H92.0225C92.1982 89.3633 92.4092 89.0205 92.6553 88.8154C92.9072 88.6104 93.2266 88.5078 93.6133 88.5078C94.082 88.5078 94.4014 88.7041 94.5713 89.0967C94.7471 89.4893 94.7646 90.1133 94.624 90.9688L93.3848 98H91.6973ZM98.2275 90.9688L96.9707 98H94.5889L95.7402 91.5312C95.7871 91.2734 95.7754 91.0742 95.7051 90.9336C95.6406 90.793 95.5293 90.7227 95.3711 90.7227C95.1543 90.7227 94.9609 90.834 94.791 91.0566C94.627 91.2734 94.5068 91.6045 94.4307 92.0498L94.3955 89.8438H94.958C95.1455 89.3574 95.3828 89.0146 95.6699 88.8154C95.9629 88.6104 96.3291 88.5078 96.7686 88.5078C98.0342 88.5078 98.5205 89.3281 98.2275 90.9688ZM100.855 102.043H98.4385L100.785 88.6836H102.938L102.815 90.8896L100.855 102.043ZM101.33 98.1758C100.961 98.1758 100.598 98.1582 100.24 98.123C99.8828 98.0938 99.5195 98.0527 99.1504 98L100.196 95.6973C100.519 95.8438 101.052 95.917 101.796 95.917C102.64 95.917 103.396 95.7441 104.063 95.3984C104.737 95.0527 105.268 94.584 105.654 93.9922C106.041 93.3945 106.234 92.7207 106.234 91.9707C106.234 91.584 106.138 91.2881 105.944 91.083C105.751 90.8721 105.479 90.7666 105.127 90.7666C104.734 90.7666 104.342 90.8984 103.949 91.1621C103.562 91.4258 103.211 91.8389 102.895 92.4014C102.578 92.9639 102.335 93.6934 102.165 94.5898L102.517 90.3623H103.281L102.921 90.8545C103.091 90.1045 103.451 89.5273 104.002 89.123C104.559 88.7129 105.232 88.5078 106.023 88.5078C106.861 88.5078 107.512 88.7832 107.975 89.334C108.438 89.8789 108.669 90.6582 108.669 91.6719C108.669 92.5977 108.484 93.4561 108.115 94.2471C107.746 95.0381 107.23 95.7295 106.568 96.3213C105.906 96.9072 105.13 97.3643 104.239 97.6924C103.349 98.0146 102.379 98.1758 101.33 98.1758ZM115.674 87.4268C115.223 87.4268 114.856 87.2861 114.575 87.0049C114.294 86.7236 114.153 86.3574 114.153 85.9062C114.153 85.4551 114.294 85.0889 114.575 84.8076C114.856 84.5264 115.223 84.3857 115.674 84.3857C116.125 84.3857 116.491 84.5264 116.772 84.8076C117.054 85.0889 117.194 85.4551 117.194 85.9062C117.194 86.3574 117.054 86.7236 116.772 87.0049C116.491 87.2861 116.125 87.4268 115.674 87.4268ZM117.678 95.4336L118.284 97.4375C117.927 97.6426 117.549 97.8184 117.15 97.9648C116.752 98.1055 116.295 98.1758 115.779 98.1758C114.654 98.1758 113.819 97.9268 113.274 97.4287C112.735 96.9307 112.495 96.2012 112.554 95.2402C112.583 94.8242 112.65 94.417 112.756 94.0186C112.867 93.6201 112.987 93.2334 113.116 92.8584C113.251 92.4834 113.359 92.126 113.441 91.7861C113.529 91.4463 113.494 91.1914 113.336 91.0215C113.178 90.8457 112.902 90.7578 112.51 90.7578C111.953 90.7578 111.417 90.8252 110.901 90.96L110.717 88.7451C111.062 88.6455 111.408 88.5811 111.754 88.5518C112.1 88.5166 112.445 88.499 112.791 88.499C114.08 88.499 114.979 88.7773 115.489 89.334C116.005 89.8848 116.131 90.7021 115.867 91.7861C115.779 92.167 115.671 92.5244 115.542 92.8584C115.419 93.1865 115.305 93.5146 115.199 93.8428C115.1 94.1709 115.035 94.5225 115.006 94.8975C114.959 95.5771 115.331 95.917 116.122 95.917C116.415 95.917 116.67 95.8818 116.887 95.8115C117.109 95.7354 117.373 95.6094 117.678 95.4336ZM128.62 95.6006L129.086 97.7803C128.617 97.9209 128.192 98.0205 127.812 98.0791C127.431 98.1436 127.056 98.1758 126.687 98.1758C125.022 98.1758 123.815 97.6748 123.065 96.6729C122.321 95.665 121.949 94.0479 121.949 91.8213C121.949 90.374 122.151 89.1143 122.556 88.042C122.966 86.9639 123.54 86.1289 124.278 85.5371C125.017 84.9395 125.878 84.6406 126.862 84.6406C127.653 84.6406 128.286 84.9131 128.761 85.458C129.241 86.0029 129.481 86.7295 129.481 87.6377C129.481 89.126 129.112 90.4912 128.374 91.7334C127.642 92.9697 126.593 94.0361 125.228 94.9326C123.862 95.8291 122.233 96.5117 120.341 96.9805L119.822 94.9678C121.316 94.6162 122.603 94.0947 123.681 93.4033C124.765 92.7061 125.6 91.874 126.186 90.9072C126.771 89.9404 127.064 88.874 127.064 87.708C127.059 87.4326 127.003 87.2305 126.897 87.1016C126.792 86.9668 126.631 86.8994 126.414 86.8994C125.957 86.8994 125.559 87.1074 125.219 87.5234C124.879 87.9395 124.615 88.5225 124.428 89.2725C124.24 90.0225 124.146 90.9014 124.146 91.9092C124.146 93.3154 124.349 94.335 124.753 94.9678C125.163 95.6006 125.822 95.917 126.73 95.917C127.076 95.917 127.398 95.8936 127.697 95.8467C127.996 95.7939 128.304 95.7119 128.62 95.6006ZM135.713 95.917C136.135 95.917 136.586 95.8525 137.066 95.7236C137.547 95.5947 138.01 95.4131 138.455 95.1787L139.062 97.2617C138.505 97.5898 137.91 97.8242 137.277 97.9648C136.645 98.1055 136.038 98.1758 135.458 98.1758C134.169 98.1758 133.161 97.8447 132.435 97.1826C131.714 96.5146 131.354 95.5889 131.354 94.4053C131.354 93.2217 131.591 92.1904 132.065 91.3115C132.54 90.4268 133.202 89.7383 134.052 89.2461C134.907 88.7539 135.903 88.5078 137.04 88.5078C138.001 88.5078 138.751 88.748 139.29 89.2285C139.835 89.709 140.107 90.377 140.107 91.2324C140.107 92.3633 139.527 93.1924 138.367 93.7197C137.207 94.2471 135.514 94.5283 133.287 94.5635L132.927 92.8936C134.45 92.8818 135.637 92.7471 136.486 92.4893C137.336 92.2256 137.761 91.8682 137.761 91.417C137.761 91.1885 137.661 91.0098 137.462 90.8809C137.263 90.752 136.981 90.6875 136.618 90.6875C136.015 90.6875 135.484 90.8311 135.027 91.1182C134.57 91.4053 134.213 91.8066 133.955 92.3223C133.703 92.8379 133.574 93.4385 133.568 94.124C133.574 94.6865 133.765 95.126 134.14 95.4424C134.521 95.7588 135.045 95.917 135.713 95.917ZM146.365 88.6836H147.411L147.842 90.7227C147.643 90.9043 147.367 91.1211 147.016 91.373C146.664 91.625 146.277 91.8916 145.855 92.1729C145.434 92.4482 145.009 92.7178 144.581 92.9814C144.153 93.2451 143.761 93.4795 143.403 93.6846C143.052 93.8896 142.771 94.0449 142.56 94.1504L141.373 92.1201C141.666 91.9502 142.032 91.7305 142.472 91.4609C142.917 91.1855 143.383 90.8867 143.869 90.5645C144.361 90.2363 144.827 89.9082 145.267 89.5801C145.712 89.252 146.078 88.9531 146.365 88.6836ZM146.453 90.0898L146.374 88.6836H148.642C148.853 89.4746 149.052 90.1455 149.239 90.6963C149.433 91.2471 149.605 91.7305 149.758 92.1465C149.91 92.5566 150.027 92.9463 150.109 93.3154C150.197 93.6787 150.241 94.0713 150.241 94.4932C150.247 95.665 149.825 96.5732 148.976 97.2178C148.132 97.8564 146.939 98.1758 145.398 98.1758C144.719 98.1758 144.124 98.123 143.614 98.0176C143.11 97.9121 142.615 97.7334 142.129 97.4814L142.779 95.3809C143.242 95.5684 143.676 95.7061 144.08 95.7939C144.484 95.876 144.924 95.917 145.398 95.917C146.16 95.917 146.752 95.7793 147.174 95.5039C147.596 95.2227 147.807 94.8271 147.807 94.3174C147.807 93.9893 147.766 93.6553 147.684 93.3154C147.607 92.9697 147.502 92.6182 147.367 92.2607C147.232 91.9033 147.086 91.543 146.928 91.1797C146.77 90.8164 146.611 90.4531 146.453 90.0898ZM167.749 98.1758C166.694 98.1758 165.874 97.9297 165.288 97.4375C164.708 96.9395 164.418 96.2363 164.418 95.3281C164.418 95.0586 164.424 94.8008 164.436 94.5547C164.453 94.3027 164.482 94.0244 164.523 93.7197C164.564 93.4092 164.623 93.0283 164.699 92.5771L165.877 85.8711H168.294L167.116 92.5771C167.017 93.1455 166.946 93.5762 166.905 93.8691C166.87 94.1621 166.853 94.4727 166.853 94.8008C166.853 95.1934 166.958 95.4775 167.169 95.6533C167.38 95.8291 167.717 95.917 168.18 95.917C168.619 95.917 169.006 95.8877 169.34 95.8291C169.674 95.7705 170.069 95.668 170.526 95.5215L170.957 97.6133C170.5 97.7656 170.017 97.8975 169.507 98.0088C168.997 98.1201 168.411 98.1758 167.749 98.1758ZM162.915 90.8721L163.302 88.6836H171.827L171.44 90.8721H162.915ZM176.881 98.1758C175.785 98.1758 174.93 97.8799 174.314 97.2881C173.705 96.6904 173.4 95.8613 173.4 94.8008C173.4 92.8203 173.857 91.2764 174.771 90.1689C175.686 89.0615 176.957 88.5078 178.586 88.5078C179.682 88.5078 180.534 88.8125 181.144 89.4219C181.759 90.0312 182.066 90.8809 182.066 91.9707C182.066 93.9219 181.609 95.4453 180.695 96.541C179.781 97.6309 178.51 98.1758 176.881 98.1758ZM177.303 95.917C178.029 95.917 178.595 95.6035 178.999 94.9766C179.409 94.3438 179.614 93.4678 179.614 92.3486C179.614 91.8506 179.491 91.4639 179.245 91.1885C178.999 90.9072 178.653 90.7666 178.208 90.7666C177.47 90.7666 176.893 91.083 176.477 91.7158C176.061 92.3428 175.853 93.2158 175.853 94.335C175.853 94.833 175.979 95.2227 176.23 95.5039C176.488 95.7793 176.846 95.917 177.303 95.917ZM71.3506 119.176C69.8799 119.176 68.8018 118.789 68.1162 118.016C67.4365 117.236 67.2432 116.146 67.5361 114.746H69.9531C69.8418 115.443 69.9238 115.988 70.1992 116.381C70.4805 116.768 70.9404 116.961 71.5791 116.961C72.2881 116.961 72.8447 116.788 73.249 116.442C73.6592 116.097 73.9287 115.555 74.0576 114.816L75.5166 106.52H77.8545L76.3955 114.816C76.1318 116.311 75.5928 117.412 74.7783 118.121C73.9639 118.824 72.8213 119.176 71.3506 119.176ZM72.3174 108.655L72.6953 106.52H76.7559L76.3867 108.655H72.3174ZM80.5879 119.185C79.709 119.185 79.0293 118.956 78.5488 118.499C78.0684 118.042 77.8281 117.397 77.8281 116.565C77.8281 115.511 78.0625 114.556 78.5312 113.7C79 112.839 79.6562 112.104 80.5 111.494C81.3496 110.885 82.3428 110.416 83.4795 110.088C84.6162 109.76 85.8525 109.596 87.1885 109.596H87.4082L86.292 116.003C86.2217 116.413 86.2627 116.694 86.415 116.847C86.5674 116.999 86.8838 117.075 87.3643 117.075H87.7861L87.4346 119.088H86.4766C85.8379 119.088 85.3457 119.021 85 118.886C84.6602 118.745 84.4258 118.563 84.2969 118.341C84.168 118.112 84.1006 117.866 84.0947 117.603C84.0947 117.333 84.1123 117.066 84.1475 116.803L84.7275 117.031H83.708L84.2617 115.845C83.957 116.905 83.4824 117.729 82.8379 118.314C82.1934 118.895 81.4434 119.185 80.5879 119.185ZM81.1592 116.926C81.9268 116.926 82.6006 116.598 83.1807 115.941C83.7666 115.279 84.165 114.345 84.376 113.138L84.8242 110.589L85.668 111.854C84.9121 111.884 84.2061 112.013 83.5498 112.241C82.8936 112.464 82.3193 112.766 81.8271 113.146C81.335 113.521 80.9512 113.961 80.6758 114.465C80.4004 114.963 80.2627 115.502 80.2627 116.082C80.2627 116.369 80.3359 116.583 80.4824 116.724C80.6289 116.858 80.8545 116.926 81.1592 116.926ZM90.4404 119L89.3418 109.684L91.8203 109.508L92.541 116.732H92.7344C93.6836 115.812 94.4043 114.77 94.8965 113.604C95.3887 112.432 95.6611 111.125 95.7139 109.684H98.1484C98.0723 111.6 97.627 113.334 96.8125 114.887C96.0039 116.434 94.8145 117.805 93.2441 119H90.4404ZM101.682 119.185C100.803 119.185 100.123 118.956 99.6426 118.499C99.1621 118.042 98.9219 117.397 98.9219 116.565C98.9219 115.511 99.1562 114.556 99.625 113.7C100.094 112.839 100.75 112.104 101.594 111.494C102.443 110.885 103.437 110.416 104.573 110.088C105.71 109.76 106.946 109.596 108.282 109.596H108.502L107.386 116.003C107.315 116.413 107.356 116.694 107.509 116.847C107.661 116.999 107.978 117.075 108.458 117.075H108.88L108.528 119.088H107.57C106.932 119.088 106.439 119.021 106.094 118.886C105.754 118.745 105.52 118.563 105.391 118.341C105.262 118.112 105.194 117.866 105.188 117.603C105.188 117.333 105.206 117.066 105.241 116.803L105.821 117.031H104.802L105.355 115.845C105.051 116.905 104.576 117.729 103.932 118.314C103.287 118.895 102.537 119.185 101.682 119.185ZM102.253 116.926C103.021 116.926 103.694 116.598 104.274 115.941C104.86 115.279 105.259 114.345 105.47 113.138L105.918 110.589L106.762 111.854C106.006 111.884 105.3 112.013 104.644 112.241C103.987 112.464 103.413 112.766 102.921 113.146C102.429 113.521 102.045 113.961 101.77 114.465C101.494 114.963 101.356 115.502 101.356 116.082C101.356 116.369 101.43 116.583 101.576 116.724C101.723 116.858 101.948 116.926 102.253 116.926ZM113.31 119.176C111.792 119.176 110.509 118.918 109.46 118.402L110.005 116.188C111.206 116.691 112.363 116.943 113.477 116.943C114.303 116.943 114.927 116.829 115.349 116.601C115.771 116.366 115.981 116.026 115.981 115.581C115.981 115.358 115.923 115.171 115.806 115.019C115.688 114.86 115.492 114.699 115.217 114.535L112.668 112.979C112.117 112.64 111.73 112.218 111.508 111.714C111.291 111.21 111.183 110.718 111.183 110.237C111.183 108.96 111.555 107.993 112.299 107.337C113.043 106.675 114.121 106.344 115.533 106.344C117.197 106.344 118.513 106.81 119.479 107.741L118.205 109.692C117.766 109.329 117.309 109.054 116.834 108.866C116.365 108.673 115.896 108.576 115.428 108.576C114.836 108.576 114.385 108.682 114.074 108.893C113.77 109.104 113.617 109.414 113.617 109.824C113.617 110.088 113.693 110.334 113.846 110.562C113.998 110.791 114.218 110.996 114.505 111.178L116.86 112.619C117.452 112.977 117.859 113.381 118.082 113.832C118.305 114.277 118.416 114.764 118.416 115.291C118.416 116.568 117.982 117.535 117.115 118.191C116.254 118.848 114.985 119.176 113.31 119.176ZM125.087 116.917C125.614 116.917 126.13 116.835 126.634 116.671C127.144 116.507 127.595 116.29 127.987 116.021L128.884 117.954C128.333 118.323 127.703 118.619 126.994 118.842C126.291 119.064 125.57 119.176 124.832 119.176C123.484 119.176 122.438 118.848 121.694 118.191C120.956 117.529 120.587 116.601 120.587 115.405C120.587 114.216 120.815 113.182 121.272 112.303C121.735 111.418 122.383 110.732 123.215 110.246C124.053 109.754 125.031 109.508 126.15 109.508C127.023 109.508 127.747 109.64 128.321 109.903C128.901 110.167 129.391 110.592 129.789 111.178L128.163 112.751C127.876 112.405 127.554 112.156 127.196 112.004C126.839 111.846 126.408 111.767 125.904 111.767C125.324 111.767 124.817 111.904 124.384 112.18C123.956 112.449 123.622 112.83 123.382 113.322C123.147 113.809 123.027 114.38 123.021 115.036C123.027 115.634 123.209 116.097 123.566 116.425C123.93 116.753 124.437 116.917 125.087 116.917ZM138.279 119.158C137.383 119.158 136.727 118.962 136.311 118.569C135.895 118.177 135.692 117.567 135.704 116.741C135.71 116.431 135.751 116.073 135.827 115.669C135.903 115.265 136.018 114.793 136.17 114.254L137.26 110.466L138.807 111.828H133.56V109.648L139.923 109.64L138.596 114.166C138.443 114.693 138.329 115.127 138.253 115.467C138.183 115.807 138.145 116.062 138.139 116.231C138.121 116.776 138.432 117.049 139.07 117.049C139.334 117.049 139.562 117.031 139.756 116.996L139.879 119C139.381 119.105 138.848 119.158 138.279 119.158ZM131.846 117.383L130.114 115.95C130.724 115.341 131.207 114.731 131.564 114.122C131.922 113.507 132.177 112.83 132.329 112.092C132.487 111.354 132.566 110.492 132.566 109.508V108.752H134.825V109.49C134.825 110.639 134.729 111.658 134.535 112.549C134.348 113.434 134.037 114.26 133.604 115.027C133.17 115.795 132.584 116.58 131.846 117.383ZM147.314 108.427C146.863 108.427 146.497 108.286 146.216 108.005C145.935 107.724 145.794 107.357 145.794 106.906C145.794 106.455 145.935 106.089 146.216 105.808C146.497 105.526 146.863 105.386 147.314 105.386C147.766 105.386 148.132 105.526 148.413 105.808C148.694 106.089 148.835 106.455 148.835 106.906C148.835 107.357 148.694 107.724 148.413 108.005C148.132 108.286 147.766 108.427 147.314 108.427ZM149.318 116.434L149.925 118.438C149.567 118.643 149.189 118.818 148.791 118.965C148.393 119.105 147.936 119.176 147.42 119.176C146.295 119.176 145.46 118.927 144.915 118.429C144.376 117.931 144.136 117.201 144.194 116.24C144.224 115.824 144.291 115.417 144.396 115.019C144.508 114.62 144.628 114.233 144.757 113.858C144.892 113.483 145 113.126 145.082 112.786C145.17 112.446 145.135 112.191 144.977 112.021C144.818 111.846 144.543 111.758 144.15 111.758C143.594 111.758 143.058 111.825 142.542 111.96L142.357 109.745C142.703 109.646 143.049 109.581 143.395 109.552C143.74 109.517 144.086 109.499 144.432 109.499C145.721 109.499 146.62 109.777 147.13 110.334C147.646 110.885 147.771 111.702 147.508 112.786C147.42 113.167 147.312 113.524 147.183 113.858C147.06 114.187 146.945 114.515 146.84 114.843C146.74 115.171 146.676 115.522 146.646 115.897C146.6 116.577 146.972 116.917 147.763 116.917C148.056 116.917 148.311 116.882 148.527 116.812C148.75 116.735 149.014 116.609 149.318 116.434ZM153.59 123.043H151.173L153.52 109.684H155.673L155.55 111.89L153.59 123.043ZM154.064 119.176C153.695 119.176 153.332 119.158 152.975 119.123C152.617 119.094 152.254 119.053 151.885 119L152.931 116.697C153.253 116.844 153.786 116.917 154.53 116.917C155.374 116.917 156.13 116.744 156.798 116.398C157.472 116.053 158.002 115.584 158.389 114.992C158.775 114.395 158.969 113.721 158.969 112.971C158.969 112.584 158.872 112.288 158.679 112.083C158.485 111.872 158.213 111.767 157.861 111.767C157.469 111.767 157.076 111.898 156.684 112.162C156.297 112.426 155.945 112.839 155.629 113.401C155.312 113.964 155.069 114.693 154.899 115.59L155.251 111.362H156.016L155.655 111.854C155.825 111.104 156.186 110.527 156.736 110.123C157.293 109.713 157.967 109.508 158.758 109.508C159.596 109.508 160.246 109.783 160.709 110.334C161.172 110.879 161.403 111.658 161.403 112.672C161.403 113.598 161.219 114.456 160.85 115.247C160.48 116.038 159.965 116.729 159.303 117.321C158.641 117.907 157.864 118.364 156.974 118.692C156.083 119.015 155.113 119.176 154.064 119.176ZM167.749 119.176C166.694 119.176 165.874 118.93 165.288 118.438C164.708 117.939 164.418 117.236 164.418 116.328C164.418 116.059 164.424 115.801 164.436 115.555C164.453 115.303 164.482 115.024 164.523 114.72C164.564 114.409 164.623 114.028 164.699 113.577L165.877 106.871H168.294L167.116 113.577C167.017 114.146 166.946 114.576 166.905 114.869C166.87 115.162 166.853 115.473 166.853 115.801C166.853 116.193 166.958 116.478 167.169 116.653C167.38 116.829 167.717 116.917 168.18 116.917C168.619 116.917 169.006 116.888 169.34 116.829C169.674 116.771 170.069 116.668 170.526 116.521L170.957 118.613C170.5 118.766 170.017 118.897 169.507 119.009C168.997 119.12 168.411 119.176 167.749 119.176ZM162.915 111.872L163.302 109.684H171.827L171.44 111.872H162.915ZM174.297 122.832L176.072 116.768H178.691L176.564 122.832H174.297ZM71.8428 140L72.2031 136.089H71.3594L71.8691 130.684L73.7324 130.578L73.1436 137.917H73.3018C73.7705 137.056 74.2012 136.045 74.5938 134.885C74.9922 133.725 75.3438 132.509 75.6484 131.237C75.959 129.96 76.2197 128.721 76.4307 127.52H78.8389C78.6807 128.627 78.4434 129.755 78.127 130.903C77.8164 132.052 77.4502 133.177 77.0283 134.278C76.6123 135.374 76.167 136.411 75.6924 137.39C75.2178 138.362 74.7461 139.232 74.2773 140H71.8428ZM67.9404 140L68.4062 127.52L70.6211 127.414L70.1992 137.917H70.3574L72.0449 134.05L72.792 136.344H71.1836L72.5107 135.377L70.6387 140H67.9404ZM82.9785 137.917C83.4004 137.917 83.8516 137.853 84.332 137.724C84.8125 137.595 85.2754 137.413 85.7207 137.179L86.3271 139.262C85.7705 139.59 85.1758 139.824 84.543 139.965C83.9102 140.105 83.3037 140.176 82.7236 140.176C81.4346 140.176 80.4268 139.845 79.7002 139.183C78.9795 138.515 78.6191 137.589 78.6191 136.405C78.6191 135.222 78.8564 134.19 79.3311 133.312C79.8057 132.427 80.4678 131.738 81.3174 131.246C82.1729 130.754 83.1689 130.508 84.3057 130.508C85.2666 130.508 86.0166 130.748 86.5557 131.229C87.1006 131.709 87.373 132.377 87.373 133.232C87.373 134.363 86.793 135.192 85.6328 135.72C84.4727 136.247 82.7793 136.528 80.5527 136.563L80.1924 134.894C81.7158 134.882 82.9023 134.747 83.752 134.489C84.6016 134.226 85.0264 133.868 85.0264 133.417C85.0264 133.188 84.9268 133.01 84.7275 132.881C84.5283 132.752 84.2471 132.688 83.8838 132.688C83.2803 132.688 82.75 132.831 82.293 133.118C81.8359 133.405 81.4785 133.807 81.2207 134.322C80.9688 134.838 80.8398 135.438 80.834 136.124C80.8398 136.687 81.0303 137.126 81.4053 137.442C81.7861 137.759 82.3105 137.917 82.9785 137.917ZM90.7656 140.176C90.3965 140.176 90.0332 140.158 89.6758 140.123C89.3184 140.094 88.9551 140.053 88.5859 140L89.6318 137.697C89.9541 137.844 90.4873 137.917 91.2314 137.917C91.8643 137.917 92.4502 137.814 92.9893 137.609C93.5283 137.398 93.9971 137.108 94.3955 136.739C94.7998 136.364 95.1133 135.928 95.3359 135.43C95.5586 134.926 95.6699 134.381 95.6699 133.795C95.6699 133.467 95.5732 133.215 95.3799 133.039C95.1865 132.857 94.9141 132.767 94.5625 132.767C94.1699 132.767 93.7773 132.898 93.3848 133.162C92.998 133.426 92.6465 133.839 92.3301 134.401C92.0137 134.964 91.7705 135.693 91.6006 136.59L91.9521 132.362H92.7168L92.4443 132.854C92.6143 132.104 92.96 131.527 93.4814 131.123C94.0088 130.713 94.668 130.508 95.459 130.508C96.2969 130.508 96.9473 130.769 97.4102 131.29C97.873 131.806 98.1045 132.541 98.1045 133.496C98.1045 134.445 97.9199 135.327 97.5508 136.142C97.1816 136.95 96.666 137.656 96.0039 138.26C95.3418 138.863 94.5654 139.335 93.6748 139.675C92.7842 140.009 91.8145 140.176 90.7656 140.176ZM89.8955 126.632C91.1084 126.632 91.9375 126.913 92.3828 127.476C92.834 128.038 92.9482 128.94 92.7256 130.183L90.9941 140L88.5771 139.991L90.2559 130.446C90.3555 129.907 90.3379 129.515 90.2031 129.269C90.0742 129.017 89.8428 128.891 89.5088 128.891C89.3975 128.891 89.2832 128.899 89.166 128.917C89.0488 128.929 88.9316 128.952 88.8145 128.987L88.5596 126.772C88.7822 126.72 89.0049 126.685 89.2275 126.667C89.4502 126.644 89.6729 126.632 89.8955 126.632ZM98.0693 140L103.861 127.511H106.753C106.882 128.343 107.002 129.175 107.113 130.007C107.225 130.839 107.33 131.671 107.43 132.503C107.529 133.335 107.62 134.17 107.702 135.008C107.784 135.84 107.86 136.672 107.931 137.504C108.001 138.336 108.065 139.168 108.124 140H105.751C105.722 139.35 105.687 138.699 105.646 138.049C105.604 137.393 105.558 136.739 105.505 136.089C105.458 135.438 105.405 134.788 105.347 134.138C105.294 133.481 105.238 132.828 105.18 132.178C105.121 131.521 105.06 130.868 104.995 130.218H104.714L100.442 140H98.0693ZM100.337 137.636L100.636 135.491H106.964L106.665 137.636H100.337ZM114.725 130.684H115.771L116.201 132.723C116.002 132.904 115.727 133.121 115.375 133.373C115.023 133.625 114.637 133.892 114.215 134.173C113.793 134.448 113.368 134.718 112.94 134.981C112.513 135.245 112.12 135.479 111.763 135.685C111.411 135.89 111.13 136.045 110.919 136.15L109.732 134.12C110.025 133.95 110.392 133.73 110.831 133.461C111.276 133.186 111.742 132.887 112.229 132.564C112.721 132.236 113.187 131.908 113.626 131.58C114.071 131.252 114.438 130.953 114.725 130.684ZM114.812 132.09L114.733 130.684H117.001C117.212 131.475 117.411 132.146 117.599 132.696C117.792 133.247 117.965 133.73 118.117 134.146C118.27 134.557 118.387 134.946 118.469 135.315C118.557 135.679 118.601 136.071 118.601 136.493C118.606 137.665 118.185 138.573 117.335 139.218C116.491 139.856 115.299 140.176 113.758 140.176C113.078 140.176 112.483 140.123 111.974 140.018C111.47 139.912 110.975 139.733 110.488 139.481L111.139 137.381C111.602 137.568 112.035 137.706 112.439 137.794C112.844 137.876 113.283 137.917 113.758 137.917C114.52 137.917 115.111 137.779 115.533 137.504C115.955 137.223 116.166 136.827 116.166 136.317C116.166 135.989 116.125 135.655 116.043 135.315C115.967 134.97 115.861 134.618 115.727 134.261C115.592 133.903 115.445 133.543 115.287 133.18C115.129 132.816 114.971 132.453 114.812 132.09ZM125.271 130.684H126.317L126.748 132.723C126.549 132.904 126.273 133.121 125.922 133.373C125.57 133.625 125.184 133.892 124.762 134.173C124.34 134.448 123.915 134.718 123.487 134.981C123.06 135.245 122.667 135.479 122.31 135.685C121.958 135.89 121.677 136.045 121.466 136.15L120.279 134.12C120.572 133.95 120.938 133.73 121.378 133.461C121.823 133.186 122.289 132.887 122.775 132.564C123.268 132.236 123.733 131.908 124.173 131.58C124.618 131.252 124.984 130.953 125.271 130.684ZM125.359 132.09L125.28 130.684H127.548C127.759 131.475 127.958 132.146 128.146 132.696C128.339 133.247 128.512 133.73 128.664 134.146C128.816 134.557 128.934 134.946 129.016 135.315C129.104 135.679 129.147 136.071 129.147 136.493C129.153 137.665 128.731 138.573 127.882 139.218C127.038 139.856 125.846 140.176 124.305 140.176C123.625 140.176 123.03 140.123 122.521 140.018C122.017 139.912 121.521 139.733 121.035 139.481L121.686 137.381C122.148 137.568 122.582 137.706 122.986 137.794C123.391 137.876 123.83 137.917 124.305 137.917C125.066 137.917 125.658 137.779 126.08 137.504C126.502 137.223 126.713 136.827 126.713 136.317C126.713 135.989 126.672 135.655 126.59 135.315C126.514 134.97 126.408 134.618 126.273 134.261C126.139 133.903 125.992 133.543 125.834 133.18C125.676 132.816 125.518 132.453 125.359 132.09ZM135.713 137.917C136.135 137.917 136.586 137.853 137.066 137.724C137.547 137.595 138.01 137.413 138.455 137.179L139.062 139.262C138.505 139.59 137.91 139.824 137.277 139.965C136.645 140.105 136.038 140.176 135.458 140.176C134.169 140.176 133.161 139.845 132.435 139.183C131.714 138.515 131.354 137.589 131.354 136.405C131.354 135.222 131.591 134.19 132.065 133.312C132.54 132.427 133.202 131.738 134.052 131.246C134.907 130.754 135.903 130.508 137.04 130.508C138.001 130.508 138.751 130.748 139.29 131.229C139.835 131.709 140.107 132.377 140.107 133.232C140.107 134.363 139.527 135.192 138.367 135.72C137.207 136.247 135.514 136.528 133.287 136.563L132.927 134.894C134.45 134.882 135.637 134.747 136.486 134.489C137.336 134.226 137.761 133.868 137.761 133.417C137.761 133.188 137.661 133.01 137.462 132.881C137.263 132.752 136.981 132.688 136.618 132.688C136.015 132.688 135.484 132.831 135.027 133.118C134.57 133.405 134.213 133.807 133.955 134.322C133.703 134.838 133.574 135.438 133.568 136.124C133.574 136.687 133.765 137.126 134.14 137.442C134.521 137.759 135.045 137.917 135.713 137.917ZM144.563 130.684L144.44 133.083L143.228 140H140.846L142.507 130.684H144.563ZM144.432 140L145.574 133.531C145.668 132.992 145.527 132.723 145.152 132.723C144.936 132.723 144.754 132.834 144.607 133.057C144.467 133.273 144.353 133.604 144.265 134.05L144.229 131.844H144.757C144.933 131.363 145.144 131.021 145.39 130.815C145.642 130.61 145.961 130.508 146.348 130.508C146.816 130.508 147.136 130.704 147.306 131.097C147.481 131.489 147.499 132.113 147.358 132.969L146.119 140H144.432ZM150.962 132.969L149.705 140H147.323L148.475 133.531C148.521 133.273 148.51 133.074 148.439 132.934C148.375 132.793 148.264 132.723 148.105 132.723C147.889 132.723 147.695 132.834 147.525 133.057C147.361 133.273 147.241 133.604 147.165 134.05L147.13 131.844H147.692C147.88 131.357 148.117 131.015 148.404 130.815C148.697 130.61 149.063 130.508 149.503 130.508C150.769 130.508 151.255 131.328 150.962 132.969ZM154.047 140.176C153.678 140.176 153.314 140.158 152.957 140.123C152.6 140.094 152.236 140.053 151.867 140L152.913 137.697C153.235 137.844 153.769 137.917 154.513 137.917C155.146 137.917 155.731 137.814 156.271 137.609C156.81 137.398 157.278 137.108 157.677 136.739C158.081 136.364 158.395 135.928 158.617 135.43C158.84 134.926 158.951 134.381 158.951 133.795C158.951 133.467 158.854 133.215 158.661 133.039C158.468 132.857 158.195 132.767 157.844 132.767C157.451 132.767 157.059 132.898 156.666 133.162C156.279 133.426 155.928 133.839 155.611 134.401C155.295 134.964 155.052 135.693 154.882 136.59L155.233 132.362H155.998L155.726 132.854C155.896 132.104 156.241 131.527 156.763 131.123C157.29 130.713 157.949 130.508 158.74 130.508C159.578 130.508 160.229 130.769 160.691 131.29C161.154 131.806 161.386 132.541 161.386 133.496C161.386 134.445 161.201 135.327 160.832 136.142C160.463 136.95 159.947 137.656 159.285 138.26C158.623 138.863 157.847 139.335 156.956 139.675C156.065 140.009 155.096 140.176 154.047 140.176ZM153.177 126.632C154.39 126.632 155.219 126.913 155.664 127.476C156.115 128.038 156.229 128.94 156.007 130.183L154.275 140L151.858 139.991L153.537 130.446C153.637 129.907 153.619 129.515 153.484 129.269C153.355 129.017 153.124 128.891 152.79 128.891C152.679 128.891 152.564 128.899 152.447 128.917C152.33 128.929 152.213 128.952 152.096 128.987L151.841 126.772C152.063 126.72 152.286 126.685 152.509 126.667C152.731 126.644 152.954 126.632 153.177 126.632ZM170.808 137.601L171.273 139.78C170.805 139.921 170.38 140.021 169.999 140.079C169.618 140.144 169.243 140.176 168.874 140.176C167.21 140.176 166.003 139.675 165.253 138.673C164.509 137.665 164.137 136.048 164.137 133.821C164.137 132.374 164.339 131.114 164.743 130.042C165.153 128.964 165.728 128.129 166.466 127.537C167.204 126.939 168.065 126.641 169.05 126.641C169.841 126.641 170.474 126.913 170.948 127.458C171.429 128.003 171.669 128.729 171.669 129.638C171.669 131.126 171.3 132.491 170.562 133.733C169.829 134.97 168.78 136.036 167.415 136.933C166.05 137.829 164.421 138.512 162.528 138.98L162.01 136.968C163.504 136.616 164.79 136.095 165.868 135.403C166.952 134.706 167.787 133.874 168.373 132.907C168.959 131.94 169.252 130.874 169.252 129.708C169.246 129.433 169.19 129.23 169.085 129.102C168.979 128.967 168.818 128.899 168.602 128.899C168.145 128.899 167.746 129.107 167.406 129.523C167.066 129.939 166.803 130.522 166.615 131.272C166.428 132.022 166.334 132.901 166.334 133.909C166.334 135.315 166.536 136.335 166.94 136.968C167.351 137.601 168.01 137.917 168.918 137.917C169.264 137.917 169.586 137.894 169.885 137.847C170.184 137.794 170.491 137.712 170.808 137.601ZM172.495 144.148L171.44 142.083C172.8 141.544 173.98 140.92 174.982 140.211C175.99 139.508 176.849 138.696 177.558 137.776C178.267 136.856 178.85 135.811 179.307 134.639C179.764 133.467 180.124 132.148 180.388 130.684H182.822C182.377 133.021 181.721 135.049 180.854 136.766C179.986 138.477 178.867 139.933 177.496 141.134C176.131 142.335 174.464 143.34 172.495 144.148ZM175.519 130.508C176.345 133.912 177.443 136.487 178.814 138.233L176.819 139.464C176.081 138.368 175.404 137.094 174.789 135.641C174.174 134.182 173.605 132.529 173.084 130.684L175.519 130.508ZM196.604 140.185C195.725 140.185 195.045 139.956 194.564 139.499C194.084 139.042 193.844 138.397 193.844 137.565C193.844 136.511 194.078 135.556 194.547 134.7C195.016 133.839 195.672 133.104 196.516 132.494C197.365 131.885 198.358 131.416 199.495 131.088C200.632 130.76 201.868 130.596 203.204 130.596H203.424L202.308 137.003C202.237 137.413 202.278 137.694 202.431 137.847C202.583 137.999 202.899 138.075 203.38 138.075H203.802L203.45 140.088H202.492C201.854 140.088 201.361 140.021 201.016 139.886C200.676 139.745 200.441 139.563 200.312 139.341C200.184 139.112 200.116 138.866 200.11 138.603C200.11 138.333 200.128 138.066 200.163 137.803L200.743 138.031H199.724L200.277 136.845C199.973 137.905 199.498 138.729 198.854 139.314C198.209 139.895 197.459 140.185 196.604 140.185ZM197.175 137.926C197.942 137.926 198.616 137.598 199.196 136.941C199.782 136.279 200.181 135.345 200.392 134.138L200.84 131.589L201.684 132.854C200.928 132.884 200.222 133.013 199.565 133.241C198.909 133.464 198.335 133.766 197.843 134.146C197.351 134.521 196.967 134.961 196.691 135.465C196.416 135.963 196.278 136.502 196.278 137.082C196.278 137.369 196.352 137.583 196.498 137.724C196.645 137.858 196.87 137.926 197.175 137.926ZM204.619 140L206.263 130.684H208.346L208.284 132.907L207.036 140H204.619ZM210.086 140L211.079 134.375C211.173 133.848 211.129 133.449 210.947 133.18C210.766 132.904 210.47 132.767 210.06 132.767C209.726 132.767 209.409 132.852 209.11 133.021C208.812 133.191 208.551 133.479 208.328 133.883C208.105 134.281 207.938 134.823 207.827 135.509L208.249 132.371H208.557C208.756 131.779 209.072 131.322 209.506 131C209.939 130.672 210.484 130.508 211.141 130.508C212.137 130.508 212.834 130.83 213.232 131.475C213.637 132.119 213.728 133.068 213.505 134.322L212.503 140H210.086ZM217.653 140.185C216.804 140.185 216.145 139.956 215.676 139.499C215.213 139.042 214.981 138.397 214.981 137.565C214.981 136.493 215.213 135.523 215.676 134.656C216.145 133.789 216.798 133.048 217.636 132.433C218.474 131.812 219.452 131.337 220.571 131.009C221.696 130.675 222.918 130.508 224.236 130.508H224.395L222.979 132.767C221.942 132.808 221.002 133.01 220.158 133.373C219.32 133.736 218.652 134.22 218.154 134.823C217.662 135.421 217.416 136.095 217.416 136.845C217.416 137.214 217.504 137.486 217.68 137.662C217.855 137.838 218.125 137.926 218.488 137.926C219.203 137.926 219.818 137.595 220.334 136.933C220.85 136.271 221.225 135.339 221.459 134.138L221.415 138.031H220.396L221.31 136.669C221.028 137.782 220.568 138.646 219.93 139.262C219.297 139.877 218.538 140.185 217.653 140.185ZM223.639 140.088C223.305 140.088 222.974 140.064 222.646 140.018C222.317 139.977 222.027 139.883 221.775 139.736C221.523 139.584 221.342 139.355 221.23 139.051C221.119 138.746 221.113 138.33 221.213 137.803L221.38 134.56L222.109 130.446C222.209 129.907 222.191 129.515 222.057 129.269C221.928 129.017 221.69 128.891 221.345 128.891C221.163 128.891 220.984 128.905 220.809 128.935C220.639 128.964 220.451 129.011 220.246 129.075L219.956 126.86C220.22 126.796 220.483 126.743 220.747 126.702C221.017 126.655 221.286 126.632 221.556 126.632C222.763 126.632 223.604 126.986 224.078 127.695C224.559 128.398 224.664 129.521 224.395 131.062L223.401 136.748C223.343 137.076 223.322 137.337 223.34 137.53C223.357 137.724 223.451 137.864 223.621 137.952C223.791 138.034 224.078 138.075 224.482 138.075H224.852L224.5 140.088H223.639ZM67.4395 161L69.6367 148.52H71.9746L69.7773 161H67.4395ZM68.5908 158.1L68.8809 155.885H69.8652C71.6523 155.885 73.0029 155.606 73.917 155.05C74.8369 154.493 75.2969 153.67 75.2969 152.58C75.2969 151.918 75.0508 151.417 74.5586 151.077C74.0664 150.731 73.3398 150.559 72.3789 150.559C71.125 150.559 70.1143 150.617 69.3467 150.734L69.6367 148.52C70.3105 148.402 71.2041 148.344 72.3174 148.344C74.0986 148.344 75.4463 148.678 76.3604 149.346C77.2744 150.014 77.7314 150.995 77.7314 152.29C77.7314 154.194 77.043 155.639 75.666 156.623C74.2891 157.607 72.2588 158.1 69.5752 158.1H68.5908ZM77.5732 165.148L76.5186 163.083C77.8779 162.544 79.0586 161.92 80.0605 161.211C81.0684 160.508 81.9268 159.696 82.6357 158.776C83.3447 157.856 83.9277 156.811 84.3848 155.639C84.8418 154.467 85.2021 153.148 85.4658 151.684H87.9004C87.4551 154.021 86.7988 156.049 85.9316 157.766C85.0645 159.477 83.9453 160.933 82.5742 162.134C81.209 163.335 79.542 164.34 77.5732 165.148ZM80.5967 151.508C81.4229 154.912 82.5215 157.487 83.8926 159.233L81.8975 160.464C81.1592 159.368 80.4824 158.094 79.8672 156.641C79.252 155.182 78.6836 153.529 78.1621 151.684L80.5967 151.508ZM93.9209 161.176C92.8662 161.176 92.0459 160.93 91.46 160.438C90.8799 159.939 90.5898 159.236 90.5898 158.328C90.5898 158.059 90.5957 157.801 90.6074 157.555C90.625 157.303 90.6543 157.024 90.6953 156.72C90.7363 156.409 90.7949 156.028 90.8711 155.577L92.0488 148.871H94.4658L93.2881 155.577C93.1885 156.146 93.1182 156.576 93.0771 156.869C93.042 157.162 93.0244 157.473 93.0244 157.801C93.0244 158.193 93.1299 158.478 93.3408 158.653C93.5518 158.829 93.8887 158.917 94.3516 158.917C94.791 158.917 95.1777 158.888 95.5117 158.829C95.8457 158.771 96.2412 158.668 96.6982 158.521L97.1289 160.613C96.6719 160.766 96.1885 160.897 95.6787 161.009C95.1689 161.12 94.583 161.176 93.9209 161.176ZM89.0869 153.872L89.4736 151.684H97.999L97.6123 153.872H89.0869ZM104.608 161L105.602 155.375C105.695 154.848 105.651 154.449 105.47 154.18C105.294 153.904 105.001 153.767 104.591 153.767C104.251 153.767 103.929 153.852 103.624 154.021C103.325 154.191 103.062 154.479 102.833 154.883C102.61 155.281 102.44 155.823 102.323 156.509L102.745 153.371H103.185C103.372 152.779 103.674 152.322 104.09 152C104.506 151.672 105.033 151.508 105.672 151.508C106.662 151.508 107.356 151.83 107.755 152.475C108.159 153.119 108.25 154.068 108.027 155.322L107.025 161H104.608ZM99.124 161L100.803 151.446C100.902 150.907 100.885 150.515 100.75 150.269C100.621 150.017 100.39 149.891 100.056 149.891C99.9443 149.891 99.8301 149.899 99.7129 149.917C99.5957 149.929 99.4785 149.952 99.3613 149.987L99.1064 147.772C99.3291 147.72 99.5518 147.685 99.7744 147.667C99.9971 147.644 100.22 147.632 100.442 147.632C101.655 147.632 102.484 147.913 102.93 148.476C103.381 149.038 103.495 149.94 103.272 151.183L101.541 161H99.124ZM113.6 161.176C112.504 161.176 111.648 160.88 111.033 160.288C110.424 159.69 110.119 158.861 110.119 157.801C110.119 155.82 110.576 154.276 111.49 153.169C112.404 152.062 113.676 151.508 115.305 151.508C116.4 151.508 117.253 151.812 117.862 152.422C118.478 153.031 118.785 153.881 118.785 154.971C118.785 156.922 118.328 158.445 117.414 159.541C116.5 160.631 115.229 161.176 113.6 161.176ZM114.021 158.917C114.748 158.917 115.313 158.604 115.718 157.977C116.128 157.344 116.333 156.468 116.333 155.349C116.333 154.851 116.21 154.464 115.964 154.188C115.718 153.907 115.372 153.767 114.927 153.767C114.188 153.767 113.611 154.083 113.195 154.716C112.779 155.343 112.571 156.216 112.571 157.335C112.571 157.833 112.697 158.223 112.949 158.504C113.207 158.779 113.564 158.917 114.021 158.917ZM120.244 161L121.888 151.684H123.971L123.909 153.907L122.661 161H120.244ZM125.711 161L126.704 155.375C126.798 154.848 126.754 154.449 126.572 154.18C126.391 153.904 126.095 153.767 125.685 153.767C125.351 153.767 125.034 153.852 124.735 154.021C124.437 154.191 124.176 154.479 123.953 154.883C123.73 155.281 123.563 155.823 123.452 156.509L123.874 153.371H124.182C124.381 152.779 124.697 152.322 125.131 152C125.564 151.672 126.109 151.508 126.766 151.508C127.762 151.508 128.459 151.83 128.857 152.475C129.262 153.119 129.353 154.068 129.13 155.322L128.128 161H125.711ZM134.983 161.176C134.538 161.176 134.16 161.021 133.85 160.71C133.539 160.394 133.384 160.016 133.384 159.576C133.384 159.131 133.539 158.753 133.85 158.442C134.16 158.132 134.538 157.977 134.983 157.977C135.429 157.977 135.807 158.132 136.117 158.442C136.428 158.753 136.583 159.131 136.583 159.576C136.583 160.016 136.428 160.394 136.117 160.71C135.807 161.021 135.429 161.176 134.983 161.176Z" fill="#0A516D"/>
<path d="M736 480V224L480 480H736Z" fill="#F8B500"/>
<path d="M69.625 467.508L73.4453 445.852H76.5391L72.7188 467.508H69.625ZM72.4844 467.508L73.0117 464.555H77.875L77.3477 467.508H72.4844ZM75.7773 448.805L76.3047 445.852H81.168L80.6406 448.805H75.7773ZM86.0547 465.234C85.125 465.234 84.2812 465.184 83.5234 465.082C82.7656 464.98 82.1016 464.844 81.5312 464.672L82.4805 461.695C82.9336 461.82 83.4414 461.949 84.0039 462.082C84.5742 462.215 85.3125 462.281 86.2188 462.281C86.9844 462.281 87.6484 462.188 88.2109 462C88.7812 461.805 89.2227 461.535 89.5352 461.191C89.8555 460.84 90.0156 460.43 90.0156 459.961C90.0156 459.344 89.75 458.875 89.2188 458.555C88.6875 458.234 87.9297 458.055 86.9453 458.016L85.7383 457.969L85.6797 455.297L89.2656 456.281C90.4844 456.453 91.457 456.84 92.1836 457.441C92.9102 458.043 93.2734 458.898 93.2734 460.008C93.2734 461.062 92.9727 461.984 92.3711 462.773C91.7773 463.555 90.9414 464.16 89.8633 464.59C88.7852 465.02 87.5156 465.234 86.0547 465.234ZM85.7383 457.969L85.6797 455.297C87.4766 455.117 88.8438 454.785 89.7812 454.301C90.7266 453.809 91.1992 453.188 91.1992 452.438C91.1992 452.008 91.0547 451.676 90.7656 451.441C90.4844 451.199 90.0742 451.078 89.5352 451.078C88.918 451.078 88.2266 451.207 87.4609 451.465C86.7031 451.723 85.9492 452.117 85.1992 452.648L83.3945 450.574C84.3398 449.715 85.3672 449.094 86.4766 448.711C87.5859 448.32 88.7773 448.125 90.0508 448.125C91.4727 448.125 92.5625 448.422 93.3203 449.016C94.0781 449.602 94.457 450.449 94.457 451.559C94.457 452.598 94.1016 453.543 93.3906 454.395C92.6797 455.246 91.6562 455.82 90.3203 456.117V457.969H85.7383ZM100.398 467.508L104.219 445.852H107.312L103.492 467.508H100.398ZM95.7578 467.508L96.2852 464.555H101.16L100.633 467.508H95.7578ZM99.0508 448.805L99.5781 445.852H104.453L103.926 448.805H99.0508ZM109.867 465L112.059 452.578H114.836L114.754 455.543L113.09 465H109.867ZM117.156 465L118.48 457.5C118.605 456.797 118.547 456.266 118.305 455.906C118.062 455.539 117.668 455.355 117.121 455.355C116.676 455.355 116.254 455.469 115.855 455.695C115.457 455.922 115.109 456.305 114.812 456.844C114.516 457.375 114.293 458.098 114.145 459.012L114.707 454.828H115.117C115.383 454.039 115.805 453.43 116.383 453C116.961 452.562 117.688 452.344 118.562 452.344C119.891 452.344 120.82 452.773 121.352 453.633C121.891 454.492 122.012 455.758 121.715 457.43L120.379 465H117.156ZM131.898 450.902C131.297 450.902 130.809 450.715 130.434 450.34C130.059 449.965 129.871 449.477 129.871 448.875C129.871 448.273 130.059 447.785 130.434 447.41C130.809 447.035 131.297 446.848 131.898 446.848C132.5 446.848 132.988 447.035 133.363 447.41C133.738 447.785 133.926 448.273 133.926 448.875C133.926 449.477 133.738 449.965 133.363 450.34C132.988 450.715 132.5 450.902 131.898 450.902ZM134.57 461.578L135.379 464.25C134.902 464.523 134.398 464.758 133.867 464.953C133.336 465.141 132.727 465.234 132.039 465.234C130.539 465.234 129.426 464.902 128.699 464.238C127.98 463.574 127.66 462.602 127.738 461.32C127.777 460.766 127.867 460.223 128.008 459.691C128.156 459.16 128.316 458.645 128.488 458.145C128.668 457.645 128.812 457.168 128.922 456.715C129.039 456.262 128.992 455.922 128.781 455.695C128.57 455.461 128.203 455.344 127.68 455.344C126.938 455.344 126.223 455.434 125.535 455.613L125.289 452.66C125.75 452.527 126.211 452.441 126.672 452.402C127.133 452.355 127.594 452.332 128.055 452.332C129.773 452.332 130.973 452.703 131.652 453.445C132.34 454.18 132.508 455.27 132.156 456.715C132.039 457.223 131.895 457.699 131.723 458.145C131.559 458.582 131.406 459.02 131.266 459.457C131.133 459.895 131.047 460.363 131.008 460.863C130.945 461.77 131.441 462.223 132.496 462.223C132.887 462.223 133.227 462.176 133.516 462.082C133.812 461.98 134.164 461.812 134.57 461.578ZM145.082 465.234C143.676 465.234 142.582 464.906 141.801 464.25C141.027 463.586 140.641 462.648 140.641 461.438C140.641 461.078 140.648 460.734 140.664 460.406C140.688 460.07 140.727 459.699 140.781 459.293C140.836 458.879 140.914 458.371 141.016 457.77L142.586 448.828H145.809L144.238 457.77C144.105 458.527 144.012 459.102 143.957 459.492C143.91 459.883 143.887 460.297 143.887 460.734C143.887 461.258 144.027 461.637 144.309 461.871C144.59 462.105 145.039 462.223 145.656 462.223C146.242 462.223 146.758 462.184 147.203 462.105C147.648 462.027 148.176 461.891 148.785 461.695L149.359 464.484C148.75 464.688 148.105 464.863 147.426 465.012C146.746 465.16 145.965 465.234 145.082 465.234ZM138.637 455.496L139.152 452.578H150.52L150.004 455.496H138.637ZM151.41 470.531L150.004 467.777C151.816 467.059 153.391 466.227 154.727 465.281C156.07 464.344 157.215 463.262 158.16 462.035C159.105 460.809 159.883 459.414 160.492 457.852C161.102 456.289 161.582 454.531 161.934 452.578H165.18C164.586 455.695 163.711 458.398 162.555 460.688C161.398 462.969 159.906 464.91 158.078 466.512C156.258 468.113 154.035 469.453 151.41 470.531ZM155.441 452.344C156.543 456.883 158.008 460.316 159.836 462.645L157.176 464.285C156.191 462.824 155.289 461.125 154.469 459.188C153.648 457.242 152.891 455.039 152.195 452.578L155.441 452.344ZM171.707 465.234C171.113 465.234 170.609 465.027 170.195 464.613C169.781 464.191 169.574 463.688 169.574 463.102C169.574 462.508 169.781 462.004 170.195 461.59C170.609 461.176 171.113 460.969 171.707 460.969C172.301 460.969 172.805 461.176 173.219 461.59C173.633 462.004 173.84 462.508 173.84 463.102C173.84 463.688 173.633 464.191 173.219 464.613C172.805 465.027 172.301 465.234 171.707 465.234Z" fill="#018790"/>
<path fill-rule="evenodd" clip-rule="evenodd" d="M662.261 357.474L619.343 352L617.476 367.521L643.746 370.872L629 381.545L628.838 381.325L616.735 390.778L641.085 423.825L604.536 420.035L603.013 435.596L643.829 439.828L639.474 459.526L654.286 462.997L662.856 424.229L683.528 465L696.994 457.763L696.895 457.567L709 400.705L694.161 397.356L685.943 435.964L665.473 395.593L652.007 402.83L650.317 410.476L638.187 394.013L670.994 370.269L662.26 357.478L662.261 357.474ZM600.545 414.17C605.264 414.17 609.09 410.231 609.09 405.372C609.09 400.513 605.264 396.574 600.545 396.574C595.826 396.574 592 400.513 592 405.372C592 410.231 595.826 414.17 600.545 414.17Z" fill="#A64452"/>
</g>
<defs>
<clipPath id="clip0_10:6">
<rect width="720" height="480" fill="white"/>
</clipPath>
<clipPath id="clip1_10:6">
<rect width="80" height="80" fill="white"/>
</clipPath>
<clipPath id="clip2_10:6">
<rect width="80" height="80" fill="white" transform="translate(80)"/>
</clipPath>
<clipPath id="clip3_10:6">
<rect width="80" height="80" fill="white" transform="translate(160)"/>
</clipPath>
<clipPath id="clip4_10:6">
<rect width="80" height="80" fill="white" transform="translate(240)"/>
</clipPath>
<clipPath id="clip5_10:6">
<rect width="80" height="80" fill="white" transform="translate(320)"/>
</clipPath>
<clipPath id="clip6_10:6">
<rect width="80" height="80" fill="white" transform="translate(400)"/>
</clipPath>
<clipPath id="clip7_10:6">
<rect width="80" height="80" fill="white" transform="translate(480)"/>
</clipPath>
<clipPath id="clip8_10:6">
<rect width="80" height="80" fill="white" transform="translate(560)"/>
</clipPath>
<clipPath id="clip9_10:6">
<rect width="80" height="80" fill="white" transform="translate(640)"/>
</clipPath>
<clipPath id="clip10_10:6">
<rect width="80" height="80" fill="white" transform="translate(0 80)"/>
</clipPath>
<clipPath id="clip11_10:6">
<rect width="80" height="80" fill="white" transform="translate(0 160)"/>
</clipPath>
<clipPath id="clip12_10:6">
<rect width="80" height="80" fill="white" transform="translate(0 240)"/>
</clipPath>
<clipPath id="clip13_10:6">
<rect width="80" height="80" fill="white" transform="translate(0 320)"/>
</clipPath>
<clipPath id="clip14_10:6">
<rect width="80" height="80" fill="white" transform="translate(0 400)"/>
</clipPath>
<clipPath id="clip15_10:6">
<rect width="80" height="80" fill="white" transform="translate(80 80)"/>
</clipPath>
<clipPath id="clip16_10:6">
<rect width="80" height="80" fill="white" transform="translate(80 160)"/>
</clipPath>
<clipPath id="clip17_10:6">
<rect width="80" height="80" fill="white" transform="translate(80 240)"/>
</clipPath>
<clipPath id="clip18_10:6">
<rect width="80" height="80" fill="white" transform="translate(80 320)"/>
</clipPath>
<clipPath id="clip19_10:6">
<rect width="80" height="80" fill="white" transform="translate(80 400)"/>
</clipPath>
<clipPath id="clip20_10:6">
<rect width="80" height="80" fill="white" transform="translate(160 80)"/>
</clipPath>
<clipPath id="clip21_10:6">
<rect width="80" height="80" fill="white" transform="translate(160 160)"/>
</clipPath>
<clipPath id="clip22_10:6">
<rect width="80" height="80" fill="white" transform="translate(160 240)"/>
</clipPath>
<clipPath id="clip23_10:6">
<rect width="80" height="80" fill="white" transform="translate(160 320)"/>
</clipPath>
<clipPath id="clip24_10:6">
<rect width="80" height="80" fill="white" transform="translate(160 400)"/>
</clipPath>
<clipPath id="clip25_10:6">
<rect width="80" height="80" fill="white" transform="translate(240 80)"/>
</clipPath>
<clipPath id="clip26_10:6">
<rect width="80" height="80" fill="white" transform="translate(240 160)"/>
</clipPath>
<clipPath id="clip27_10:6">
<rect width="80" height="80" fill="white" transform="translate(240 240)"/>
</clipPath>
<clipPath id="clip28_10:6">
<rect width="80" height="80" fill="white" transform="translate(240 320)"/>
</clipPath>
<clipPath id="clip29_10:6">
<rect width="80" height="80" fill="white" transform="translate(240 400)"/>
</clipPath>
<clipPath id="clip30_10:6">
<rect width="80" height="80" fill="white" transform="translate(320 80)"/>
</clipPath>
<clipPath id="clip31_10:6">
<rect width="80" height="80" fill="white" transform="translate(320 160)"/>
</clipPath>
<clipPath id="clip32_10:6">
<rect width="80" height="80" fill="white" transform="translate(320 240)"/>
</clipPath>
<clipPath id="clip33_10:6">
<rect width="80" height="80" fill="white" transform="translate(320 320)"/>
</clipPath>
<clipPath id="clip34_10:6">
<rect width="80" height="80" fill="white" transform="translate(320 400)"/>
</clipPath>
<clipPath id="clip35_10:6">
<rect width="80" height="80" fill="white" transform="translate(400 80)"/>
</clipPath>
<clipPath id="clip36_10:6">
<rect width="80" height="80" fill="white" transform="translate(400 160)"/>
</clipPath>
<clipPath id="clip37_10:6">
<rect width="80" height="80" fill="white" transform="translate(400 240)"/>
</clipPath>
<clipPath id="clip38_10:6">
<rect width="80" height="80" fill="white" transform="translate(400 320)"/>
</clipPath>
<clipPath id="clip39_10:6">
<rect width="80" height="80" fill="white" transform="translate(400 400)"/>
</clipPath>
<clipPath id="clip40_10:6">
<rect width="80" height="80" fill="white" transform="translate(480 80)"/>
</clipPath>
<clipPath id="clip41_10:6">
<rect width="80" height="80" fill="white" transform="translate(480 160)"/>
</clipPath>
<clipPath id="clip42_10:6">
<rect width="80" height="80" fill="white" transform="translate(480 240)"/>
</clipPath>
<clipPath id="clip43_10:6">
<rect width="80" height="80" fill="white" transform="translate(480 320)"/>
</clipPath>
<clipPath id="clip44_10:6">
<rect width="80" height="80" fill="white" transform="translate(480 400)"/>
</clipPath>
<clipPath id="clip45_10:6">
<rect width="80" height="80" fill="white" transform="translate(560 80)"/>
</clipPath>
<clipPath id="clip46_10:6">
<rect width="80" height="80" fill="white" transform="translate(560 160)"/>
</clipPath>
<clipPath id="clip47_10:6">
<rect width="80" height="80" fill="white" transform="translate(560 240)"/>
</clipPath>
<clipPath id="clip48_10:6">
<rect width="80" height="80" fill="white" transform="translate(560 320)"/>
</clipPath>
<clipPath id="clip49_10:6">
<rect width="80" height="80" fill="white" transform="translate(560 400)"/>
</clipPath>
<clipPath id="clip50_10:6">
<rect width="80" height="80" fill="white" transform="translate(640 80)"/>
</clipPath>
<clipPath id="clip51_10:6">
<rect width="80" height="80" fill="white" transform="translate(640 160)"/>
</clipPath>
<clipPath id="clip52_10:6">
<rect width="80" height="80" fill="white" transform="translate(640 240)"/>
</clipPath>
<clipPath id="clip53_10:6">
<rect width="80" height="80" fill="white" transform="translate(640 320)"/>
</clipPath>
<clipPath id="clip54_10:6">
<rect width="80" height="80" fill="white" transform="translate(640 400)"/>
</clipPath>
</defs>
</svg>
