<svg width="720" height="480" viewBox="0 0 720 480" fill="none" xmlns="http://www.w3.org/2000/svg">
<g clip-path="url(#clip0_10:6)">
<rect width="720" height="480" fill="#0A516D"/>
<g clip-path="url(#clip1_10:6)">
<rect width="80" height="80" fill="#E8647C"/>
<path d="M40 40L80 0V80L40 40Z" fill="#ECE8D9"/>
<path d="M40 40L80 80L-9.37785e-06 80L40 40Z" fill="#ECE8D9"/>
<path d="M40 40L0 0V80L40 40Z" fill="#ECE8D9"/>
<path d="M40 40L80 0L-5.88094e-06 -3.49691e-06L40 40Z" fill="#ECE8D9"/>
<path fill-rule="evenodd" clip-rule="evenodd" d="M80 0H40C40 22.0914 22.0914 40 0 40V80C44.1828 80 80 44.1828 80 0Z" fill="#35D0BA"/>
</g>
<g clip-path="url(#clip2_10:6)">
<rect width="80" height="80" transform="translate(80)" fill="#E8647C"/>
<path d="M120 40L160 0V80L120 40Z" fill="#ECE8D9"/>
<path d="M120 40L160 80L80 80L120 40Z" fill="#ECE8D9"/>
<path d="M120 40L80 0V80L120 40Z" fill="#ECE8D9"/>
<path d="M120 40L160 0L80 -3.49691e-06L120 40Z" fill="#ECE8D9"/>
<rect x="104" y="24" width="32" height="32" fill="#E8647C"/>
</g>
<g clip-path="url(#clip3_10:6)">
<rect width="80" height="80" transform="translate(160)" fill="#E8647C"/>
<path d="M200 40L240 0V80L200 40Z" fill="#ECE8D9"/>
<path d="M200 40L240 80L160 80L200 40Z" fill="#ECE8D9"/>
<path d="M200 40L160 0V80L200 40Z" fill="#ECE8D9"/>
<path d="M200 40L240 0L160 -3.49691e-06L200 40Z" fill="#ECE8D9"/>
<rect x="176" y="80" width="80" height="16" transform="rotate(-90 176 80)" fill="#E8647C"/>
<rect x="208" y="80" width="80" height="16" transform="rotate(-90 208 80)" fill="#E8647C"/>
</g>
<g clip-path="url(#clip4_10:6)">
<rect width="80" height="80" transform="translate(240)" fill="#E8647C"/>
<path d="M280 40L320 0V80L280 40Z" fill="#ECE8D9"/>
<path d="M280 40L320 80L240 80L280 40Z" fill="#ECE8D9"/>
<path d="M280 40L240 0V80L280 40Z" fill="#ECE8D9"/>
<path d="M280 40L320 0L240 -3.49691e-06L280 40Z" fill="#ECE8D9"/>
<path fill-rule="evenodd" clip-rule="evenodd" d="M280 0C257.909 0 240 17.9086 240 40C240 62.0914 257.909 80 280 80C302.091 80 320 62.0914 320 40C320 17.9086 302.091 0 280 0ZM280 14.8584L254.858 40L280 65.1416L305.142 40L280 14.8584Z" fill="#023047"/>
</g>
<g clip-path="url(#clip5_10:6)">
<rect width="80" height="80" transform="translate(320)" fill="#E8647C"/>
<path d="M360 40L400 0V80L360 40Z" fill="#ECE8D9"/>
<path d="M360 40L400 80L320 80L360 40Z" fill="#ECE8D9"/>
<path d="M360 40L320 0V80L360 40Z" fill="#ECE8D9"/>
<path d="M360 40L400 0L320 -3.49691e-06L360 40Z" fill="#ECE8D9"/>
<path d="M320 0L400 0V80C355.817 80 320 44.1828 320 0Z" fill="#35D0BA"/>
<path d="M360 0L400 0V40C377.909 40 360 22.0914 360 0Z" fill="#999999"/>
</g>
<g clip-path="url(#clip6_10:6)">
<rect width="80" height="80" transform="translate(400)" fill="#E8647C"/>
<path d="M440 40L480 0V80L440 40Z" fill="#ECE8D9"/>
<path d="M440 40L480 80L400 80L440 40Z" fill="#ECE8D9"/>
<path d="M440 40L400 0V80L440 40Z" fill="#ECE8D9"/>
<path d="M440 40L480 0L400 -3.49691e-06L440 40Z" fill="#ECE8D9"/>
<path d="M400 0L480 0C480 44.1828 444.183 80 400 80V0Z" fill="#35D0BA"/>
<path d="M400 0L440 0C440 22.0914 422.091 40 400 40V0Z" fill="#999999"/>
</g>
<g clip-path="url(#clip7_10:6)">
<rect width="80" height="80" transform="translate(480)" fill="#F77754"/>
<path d="M520 40L560 0V80L520 40Z" fill="#ECE8D9"/>
<path d="M520 40L560 80L480 80L520 40Z" fill="#ECE8D9"/>
<path d="M520 40L480 0V80L520 40Z" fill="#ECE8D9"/>
<path d="M520 40L560 0L480 -3.49691e-06L520 40Z" fill="#ECE8D9"/>
<rect x="520" width="40" height="40" fill="#023047"/>
</g>
<g clip-path="url(#clip8_10:6)">
<rect width="80" height="80" transform="translate(560)" fill="#F8B500"/>
<path d="M600 40L640 0V80L600 40Z" fill="#ECE8D9"/>
<path d="M600 40L640 80L560 80L600 40Z" fill="#ECE8D9"/>
<path d="M600 40L560 0V80L600 40Z" fill="#ECE8D9"/>
<path d="M600 40L640 0L560 -3.49691e-06L600 40Z" fill="#ECE8D9"/>
<rect x="560" width="40" height="40" fill="#023047"/>
</g>
<g clip-path="url(#clip9_10:6)">
<rect width="80" height="80" transform="translate(640)" fill="#E8647C"/>
<path d="M680 40L720 0V80L680 40Z" fill="#ECE8D9"/>
<path d="M680 40L720 80L640 80L680 40Z" fill="#ECE8D9"/>
<path d="M680 40L640 0V80L680 40Z" fill="#ECE8D9"/>
<path d="M680 40L720 0L640 -3.49691e-06L680 40Z" fill="#ECE8D9"/>
<path d="M640 0L720 0V80C675.817 80 640 44.1828 640 0Z" fill="#35D0BA"/>
<path d="M680 0L720 0V40C697.909 40 680 22.0914 680 0Z" fill="#999999"/>
</g>
<g clip-path="url(#clip10_10:6)">
<rect width="80" height="80" transform="translate(0 80)" fill="#F77754"/>
<path d="M40 120L80 80V160L40 120Z" fill="#ECE8D9"/>
<path d="M40 120L80 160L-9.37785e-06 160L40 120Z" fill="#ECE8D9"/>
<path d="M40 120L0 80V160L40 120Z" fill="#ECE8D9"/>
<path d="M40 120L80 80L-5.88094e-06 80L40 120Z" fill="#ECE8D9"/>
<path d="M0 80C44.1828 80 80 115.817 80 160H0L0 80Z" fill="#35D0BA"/>
<path d="M0 120C22.0914 120 40 137.909 40 160H0L0 120Z" fill="#999999"/>
</g>
<g clip-path="url(#clip11_10:6)">
<rect width="80" height="80" transform="translate(0 160)" fill="#E8647C"/>
<path d="M40 200L80 160V240L40 200Z" fill="#ECE8D9"/>
<path d="M40 200L80 240L-9.37785e-06 240L40 200Z" fill="#ECE8D9"/>
<path d="M40 200L0 160V240L40 200Z" fill="#ECE8D9"/>
<path d="M40 200L80 160L-5.88094e-06 160L40 200Z" fill="#ECE8D9"/>
<rect y="176" width="80" height="16" fill="#E8647C"/>
<rect y="208" width="80" height="16" fill="#E8647C"/>
</g>
<g clip-path="url(#clip12_10:6)">
<rect width="80" height="80" transform="translate(0 240)" fill="#E8647C"/>
<path d="M40 280L80 240V320L40 280Z" fill="#ECE8D9"/>
<path d="M40 280L80 320L-9.37785e-06 320L40 280Z" fill="#ECE8D9"/>
<path d="M40 280L0 240V320L40 280Z" fill="#ECE8D9"/>
<path d="M40 280L80 240L-5.88094e-06 240L40 280Z" fill="#ECE8D9"/>
<rect x="24" y="264" width="32" height="32" rx="16" fill="#023047"/>
</g>
<g clip-path="url(#clip13_10:6)">
<rect width="80" height="80" transform="translate(0 320)" fill="#E8647C"/>
<path d="M40 360L80 320V400L40 360Z" fill="#ECE8D9"/>
<path d="M40 360L80 400L-9.37785e-06 400L40 360Z" fill="#ECE8D9"/>
<path d="M40 360L0 320V400L40 360Z" fill="#ECE8D9"/>
<path d="M40 360L80 320L-5.88094e-06 320L40 360Z" fill="#ECE8D9"/>
<rect x="16" y="336" width="16" height="16" fill="#E8647C"/>
<rect x="16" y="368" width="16" height="16" fill="#E8647C"/>
<rect x="48" y="336" width="16" height="16" fill="#E8647C"/>
<rect x="48" y="368" width="16" height="16" fill="#E8647C"/>
</g>
<g clip-path="url(#clip14_10:6)">
<rect width="80" height="80" transform="translate(0 400)" fill="#E8647C"/>
<path d="M40 440L80 400V480L40 440Z" fill="#ECE8D9"/>
<path d="M40 440L80 480L-9.37785e-06 480L40 440Z" fill="#ECE8D9"/>
<path d="M40 440L0 400V480L40 440Z" fill="#ECE8D9"/>
<path d="M40 440L80 400L-5.88094e-06 400L40 440Z" fill="#ECE8D9"/>
<path d="M0 440C22.0914 440 40 457.909 40 480H0L0 440Z" fill="#35D0BA"/>
</g>
<g clip-path="url(#clip15_10:6)">
<rect width="80" height="80" transform="translate(80 80)" fill="#E8647C"/>
<path d="M120 120L160 80V160L120 120Z" fill="#ECE8D9"/>
<path d="M120 120L160 160L80 160L120 120Z" fill="#ECE8D9"/>
<path d="M120 120L80 80V160L120 120Z" fill="#ECE8D9"/>
<path d="M120 120L160 80L80 80L120 120Z" fill="#ECE8D9"/>
<rect x="120" y="120" width="40" height="40" fill="#E8647C"/>
</g>
<g clip-path="url(#clip16_10:6)">
<rect width="80" height="80" transform="translate(80 160)" fill="#F8B500"/>
<path d="M120 200L160 160V240L120 200Z" fill="#ECE8D9"/>
<path d="M120 200L160 240L80 240L120 200Z" fill="#ECE8D9"/>
<path d="M120 200L80 160V240L120 200Z" fill="#ECE8D9"/>
<path d="M120 200L160 160L80 160L120 200Z" fill="#ECE8D9"/>
<rect x="120" y="160" width="40" height="40" fill="#F77754"/>
</g>
<g clip-path="url(#clip17_10:6)">
<rect width="80" height="80" transform="translate(80 240)" fill="#E8647C"/>
<path d="M120 280L160 240V320L120 280Z" fill="#ECE8D9"/>
<path d="M120 280L160 320L80 320L120 280Z" fill="#ECE8D9"/>
<path d="M120 280L80 240V320L120 280Z" fill="#ECE8D9"/>
<path d="M120 280L160 240L80 240L120 280Z" fill="#ECE8D9"/>
<rect x="80" y="240" width="80" height="80" rx="40" fill="#F8B500"/>
</g>
<g clip-path="url(#clip18_10:6)">
<rect width="80" height="80" transform="translate(80 320)" fill="#E8647C"/>
<path d="M120 360L160 320V400L120 360Z" fill="#ECE8D9"/>
<path d="M120 360L160 400L80 400L120 360Z" fill="#ECE8D9"/>
<path d="M120 360L80 320V400L120 360Z" fill="#ECE8D9"/>
<path d="M120 360L160 320L80 320L120 360Z" fill="#ECE8D9"/>
<path d="M80 360C102.091 360 120 377.909 120 400H80V360Z" fill="#35D0BA"/>
</g>
<g clip-path="url(#clip19_10:6)">
<rect width="80" height="80" transform="translate(80 400)" fill="#E8647C"/>
<path d="M120 440L160 400V480L120 440Z" fill="#ECE8D9"/>
<path d="M120 440L160 480L80 480L120 440Z" fill="#ECE8D9"/>
<path d="M120 440L80 400V480L120 440Z" fill="#ECE8D9"/>
<path d="M120 440L160 400L80 400L120 440Z" fill="#ECE8D9"/>
<path d="M120 400H160V440C137.909 440 120 422.091 120 400Z" fill="#35D0BA"/>
</g>
<g clip-path="url(#clip20_10:6)">
<rect width="80" height="80" transform="translate(160 80)" fill="#F8B500"/>
<path d="M200 120L240 80V160L200 120Z" fill="#ECE8D9"/>
<path d="M200 120L240 160L160 160L200 120Z" fill="#ECE8D9"/>
<path d="M200 120L160 80V160L200 120Z" fill="#ECE8D9"/>
<path d="M200 120L240 80L160 80L200 120Z" fill="#ECE8D9"/>
<rect x="160" y="120" width="40" height="40" fill="#023047"/>
</g>
<g clip-path="url(#clip21_10:6)">
<rect width="80" height="80" transform="translate(160 160)" fill="#E8647C"/>
<path d="M200 200L240 160V240L200 200Z" fill="#ECE8D9"/>
<path d="M200 200L240 240L160 240L200 200Z" fill="#ECE8D9"/>
<path d="M200 200L160 160V240L200 200Z" fill="#ECE8D9"/>
<path d="M200 200L240 160L160 160L200 200Z" fill="#ECE8D9"/>
<rect x="160" y="160" width="40" height="40" fill="#F8B500"/>
</g>
<g clip-path="url(#clip22_10:6)">
<rect width="80" height="80" transform="translate(160 240)" fill="#E8647C"/>
<path d="M200 280L240 240V320L200 280Z" fill="#ECE8D9"/>
<path d="M200 280L240 320L160 320L200 280Z" fill="#ECE8D9"/>
<path d="M200 280L160 240V320L200 280Z" fill="#ECE8D9"/>
<path d="M200 280L240 240L160 240L200 280Z" fill="#ECE8D9"/>
<path d="M200 320C200 297.909 217.909 280 240 280V320H200Z" fill="#35D0BA"/>
</g>
<g clip-path="url(#clip23_10:6)">
<rect width="80" height="80" transform="translate(160 320)" fill="#E8647C"/>
<path d="M200 360L240 320V400L200 360Z" fill="#ECE8D9"/>
<path d="M200 360L240 400L160 400L200 360Z" fill="#ECE8D9"/>
<path d="M200 360L160 320V400L200 360Z" fill="#ECE8D9"/>
<path d="M200 360L240 320L160 320L200 360Z" fill="#ECE8D9"/>
<path fill-rule="evenodd" clip-rule="evenodd" d="M200 320H160C160 364.183 195.817 400 240 400V360C217.909 360 200 342.091 200 320Z" fill="#35D0BA"/>
</g>
<g clip-path="url(#clip24_10:6)">
<rect width="80" height="80" transform="translate(160 400)" fill="#E8647C"/>
<path d="M200 440L240 400V480L200 440Z" fill="#ECE8D9"/>
<path d="M200 440L240 480L160 480L200 440Z" fill="#ECE8D9"/>
<path d="M200 440L160 400V480L200 440Z" fill="#ECE8D9"/>
<path d="M200 440L240 400L160 400L200 440Z" fill="#ECE8D9"/>
<rect x="200" y="440" width="40" height="40" fill="#023047"/>
</g>
<g clip-path="url(#clip25_10:6)">
<rect width="80" height="80" transform="translate(240 80)" fill="#E8647C"/>
<path d="M280 120L320 80V160L280 120Z" fill="#ECE8D9"/>
<path d="M280 120L320 160L240 160L280 120Z" fill="#ECE8D9"/>
<path d="M280 120L240 80V160L280 120Z" fill="#ECE8D9"/>
<path d="M280 120L320 80L240 80L280 120Z" fill="#ECE8D9"/>
<rect x="240" y="80" width="40" height="40" fill="#023047"/>
</g>
<g clip-path="url(#clip26_10:6)">
<rect width="80" height="80" transform="translate(240 160)" fill="#E8647C"/>
<path d="M280 200L320 160V240L280 200Z" fill="#ECE8D9"/>
<path d="M280 200L320 240L240 240L280 200Z" fill="#ECE8D9"/>
<path d="M280 200L240 160V240L280 200Z" fill="#ECE8D9"/>
<path d="M280 200L320 160L240 160L280 200Z" fill="#ECE8D9"/>
<rect x="240" y="200" width="40" height="40" fill="#023047"/>
</g>
<g clip-path="url(#clip27_10:6)">
<rect width="80" height="80" transform="translate(240 240)" fill="#F77754"/>
<path d="M280 280L320 240V320L280 280Z" fill="#ECE8D9"/>
<path d="M280 280L320 320L240 320L280 280Z" fill="#ECE8D9"/>
<path d="M280 280L240 240V320L280 280Z" fill="#ECE8D9"/>
<path d="M280 280L320 240L240 240L280 280Z" fill="#ECE8D9"/>
<rect x="257.373" y="280" width="32" height="32" transform="rotate(-45 257.373 280)" fill="#023047"/>
</g>
<g clip-path="url(#clip28_10:6)">
<rect width="80" height="80" transform="translate(240 320)" fill="#E8647C"/>
<path d="M280 360L320 320V400L280 360Z" fill="#ECE8D9"/>
<path d="M280 360L320 400L240 400L280 360Z" fill="#ECE8D9"/>
<path d="M280 360L240 320V400L280 360Z" fill="#ECE8D9"/>
<path d="M280 360L320 320L240 320L280 360Z" fill="#ECE8D9"/>
<path d="M240 320H280C280 342.091 262.091 360 240 360V320Z" fill="#35D0BA"/>
</g>
<g clip-path="url(#clip29_10:6)">
<rect width="80" height="80" transform="translate(240 400)" fill="#E8647C"/>
<path d="M280 440L320 400V480L280 440Z" fill="#ECE8D9"/>
<path d="M280 440L320 480L240 480L280 440Z" fill="#ECE8D9"/>
<path d="M280 440L240 400V480L280 440Z" fill="#ECE8D9"/>
<path d="M280 440L320 400L240 400L280 440Z" fill="#ECE8D9"/>
<rect x="256" y="416" width="16" height="16" rx="8" fill="#F8B500"/>
<rect x="256" y="448" width="16" height="16" rx="8" fill="#F8B500"/>
<rect x="288" y="416" width="16" height="16" rx="8" fill="#F8B500"/>
<rect x="288" y="448" width="16" height="16" rx="8" fill="#F8B500"/>
</g>
<g clip-path="url(#clip30_10:6)">
<rect width="80" height="80" transform="translate(320 80)" fill="#E8647C"/>
<path d="M360 120L400 80V160L360 120Z" fill="#ECE8D9"/>
<path d="M360 120L400 160L320 160L360 120Z" fill="#ECE8D9"/>
<path d="M360 120L320 80V160L360 120Z" fill="#ECE8D9"/>
<path d="M360 120L400 80L320 80L360 120Z" fill="#ECE8D9"/>
<rect x="320" y="80" width="80" height="80" rx="40" fill="#023047"/>
</g>
<g clip-path="url(#clip31_10:6)">
<rect width="80" height="80" transform="translate(320 160)" fill="#E8647C"/>
<path d="M360 200L400 160V240L360 200Z" fill="#ECE8D9"/>
<path d="M360 200L400 240L320 240L360 200Z" fill="#ECE8D9"/>
<path d="M360 200L320 160V240L360 200Z" fill="#ECE8D9"/>
<path d="M360 200L400 160L320 160L360 200Z" fill="#ECE8D9"/>
<rect x="320" y="176" width="80" height="16" fill="#E8647C"/>
<rect x="320" y="208" width="80" height="16" fill="#E8647C"/>
</g>
<g clip-path="url(#clip32_10:6)">
<rect width="80" height="80" transform="translate(320 240)" fill="#E8647C"/>
<path d="M360 280L400 240V320L360 280Z" fill="#ECE8D9"/>
<path d="M360 280L400 320L320 320L360 280Z" fill="#ECE8D9"/>
<path d="M360 280L320 240V320L360 280Z" fill="#ECE8D9"/>
<path d="M360 280L400 240L320 240L360 280Z" fill="#ECE8D9"/>
<rect x="344" y="264" width="32" height="32" fill="#E8647C"/>
</g>
<g clip-path="url(#clip33_10:6)">
<rect width="80" height="80" transform="translate(320 320)" fill="#E8647C"/>
<path d="M360 360L400 320V400L360 360Z" fill="#ECE8D9"/>
<path d="M360 360L400 400L320 400L360 360Z" fill="#ECE8D9"/>
<path d="M360 360L320 320V400L360 360Z" fill="#ECE8D9"/>
<path d="M360 360L400 320L320 320L360 360Z" fill="#ECE8D9"/>
<rect x="320" y="360" width="40" height="40" fill="#023047"/>
</g>
<g clip-path="url(#clip34_10:6)">
<rect width="80" height="80" transform="translate(320 400)" fill="#F8B500"/>
<path d="M360 440L400 400V480L360 440Z" fill="#ECE8D9"/>
<path d="M360 440L400 480L320 480L360 440Z" fill="#ECE8D9"/>
<path d="M360 440L320 400V480L360 440Z" fill="#ECE8D9"/>
<path d="M360 440L400 400L320 400L360 440Z" fill="#ECE8D9"/>
<path d="M360 480C360 457.909 377.909 440 400 440V480H360Z" fill="#35D0BA"/>
</g>
<g clip-path="url(#clip35_10:6)">
<rect width="80" height="80" transform="translate(400 80)" fill="#E8647C"/>
<path d="M440 120L480 80V160L440 120Z" fill="#ECE8D9"/>
<path d="M440 120L480 160L400 160L440 120Z" fill="#ECE8D9"/>
<path d="M440 120L400 80V160L440 120Z" fill="#ECE8D9"/>
<path d="M440 120L480 80L400 80L440 120Z" fill="#ECE8D9"/>
<path fill-rule="evenodd" clip-rule="evenodd" d="M480 80C435.817 80 400 115.817 400 160H440C440 137.909 457.909 120 480 120V80Z" fill="#35D0BA"/>
</g>
<g clip-path="url(#clip36_10:6)">
<rect width="80" height="80" transform="translate(400 160)" fill="#E8647C"/>
<path d="M440 200L480 160V240L440 200Z" fill="#ECE8D9"/>
<path d="M440 200L480 240L400 240L440 200Z" fill="#ECE8D9"/>
<path d="M440 200L400 160V240L440 200Z" fill="#ECE8D9"/>
<path d="M440 200L480 160L400 160L440 200Z" fill="#ECE8D9"/>
<path d="M440 160H480V200C457.909 200 440 182.091 440 160Z" fill="#35D0BA"/>
</g>
<g clip-path="url(#clip37_10:6)">
<rect width="80" height="80" transform="translate(400 240)" fill="#E8647C"/>
<path d="M440 280L480 240V320L440 280Z" fill="#ECE8D9"/>
<path d="M440 280L480 320L400 320L440 280Z" fill="#ECE8D9"/>
<path d="M440 280L400 240V320L440 280Z" fill="#ECE8D9"/>
<path d="M440 280L480 240L400 240L440 280Z" fill="#ECE8D9"/>
<rect x="416" y="256" width="16" height="16" rx="8" fill="#E8647C"/>
<rect x="416" y="288" width="16" height="16" rx="8" fill="#E8647C"/>
<rect x="448" y="256" width="16" height="16" rx="8" fill="#E8647C"/>
<rect x="448" y="288" width="16" height="16" rx="8" fill="#E8647C"/>
</g>
<g clip-path="url(#clip38_10:6)">
<rect width="80" height="80" transform="translate(400 320)" fill="#E8647C"/>
<path d="M440 360L480 320V400L440 360Z" fill="#ECE8D9"/>
<path d="M440 360L480 400L400 400L440 360Z" fill="#ECE8D9"/>
<path d="M440 360L400 320V400L440 360Z" fill="#ECE8D9"/>
<path d="M440 360L480 320L400 320L440 360Z" fill="#ECE8D9"/>
<path d="M440 400C440 377.909 457.909 360 480 360V400H440Z" fill="#35D0BA"/>
</g>
<g clip-path="url(#clip39_10:6)">
<rect width="80" height="80" transform="translate(400 400)" fill="#E8647C"/>
<path d="M440 440L480 400V480L440 440Z" fill="#ECE8D9"/>
<path d="M440 440L480 480L400 480L440 440Z" fill="#ECE8D9"/>
<path d="M440 440L400 400V480L440 440Z" fill="#ECE8D9"/>
<path d="M440 440L480 400L400 400L440 440Z" fill="#ECE8D9"/>
<path fill-rule="evenodd" clip-rule="evenodd" d="M440 400H400C400 444.183 435.817 480 480 480V440C457.909 440 440 422.091 440 400Z" fill="#35D0BA"/>
</g>
<g clip-path="url(#clip40_10:6)">
<rect width="80" height="80" transform="translate(480 80)" fill="#E8647C"/>
<path d="M520 120L560 80V160L520 120Z" fill="#ECE8D9"/>
<path d="M520 120L560 160L480 160L520 120Z" fill="#ECE8D9"/>
<path d="M520 120L480 80V160L520 120Z" fill="#ECE8D9"/>
<path d="M520 120L560 80L480 80L520 120Z" fill="#ECE8D9"/>
<path d="M480 80C524.183 80 560 115.817 560 160H480V80Z" fill="#35D0BA"/>
<path d="M480 120C502.091 120 520 137.909 520 160H480V120Z" fill="#999999"/>
</g>
<g clip-path="url(#clip41_10:6)">
<rect width="80" height="80" transform="translate(480 160)" fill="#E8647C"/>
<path d="M520 200L560 160V240L520 200Z" fill="#ECE8D9"/>
<path d="M520 200L560 240L480 240L520 200Z" fill="#ECE8D9"/>
<path d="M520 200L480 160V240L520 200Z" fill="#ECE8D9"/>
<path d="M520 200L560 160L480 160L520 200Z" fill="#ECE8D9"/>
<path d="M480 160H560C560 204.183 524.183 240 480 240V160Z" fill="#35D0BA"/>
<path d="M480 160H520C520 182.091 502.091 200 480 200V160Z" fill="#999999"/>
</g>
<g clip-path="url(#clip42_10:6)">
<rect width="80" height="80" transform="translate(480 240)" fill="#F8B500"/>
<path d="M520 280L560 240V320L520 280Z" fill="#ECE8D9"/>
<path d="M520 280L560 320L480 320L520 280Z" fill="#ECE8D9"/>
<path d="M520 280L480 240V320L520 280Z" fill="#ECE8D9"/>
<path d="M520 280L560 240L480 240L520 280Z" fill="#ECE8D9"/>
<rect x="480" y="280" width="40" height="40" fill="#023047"/>
</g>
<g clip-path="url(#clip43_10:6)">
<rect width="80" height="80" transform="translate(480 320)" fill="#E8647C"/>
<path d="M520 360L560 320V400L520 360Z" fill="#ECE8D9"/>
<path d="M520 360L560 400L480 400L520 360Z" fill="#ECE8D9"/>
<path d="M520 360L480 320V400L520 360Z" fill="#ECE8D9"/>
<path d="M520 360L560 320L480 320L520 360Z" fill="#ECE8D9"/>
<path d="M480 320H520C520 342.091 502.091 360 480 360V320Z" fill="#35D0BA"/>
</g>
<g clip-path="url(#clip44_10:6)">
<rect width="80" height="80" transform="translate(480 400)" fill="#E8647C"/>
<path d="M520 440L560 400V480L520 440Z" fill="#ECE8D9"/>
<path d="M520 440L560 480L480 480L520 440Z" fill="#ECE8D9"/>
<path d="M520 440L480 400V480L520 440Z" fill="#ECE8D9"/>
<path d="M520 440L560 400L480 400L520 440Z" fill="#ECE8D9"/>
<path d="M480 440C502.091 440 520 457.909 520 480H480V440Z" fill="#35D0BA"/>
</g>
<g clip-path="url(#clip45_10:6)">
<rect width="80" height="80" transform="translate(560 80)" fill="#F77754"/>
<path d="M600 120L640 80V160L600 120Z" fill="#ECE8D9"/>
<path d="M600 120L640 160L560 160L600 120Z" fill="#ECE8D9"/>
<path d="M600 120L560 80V160L600 120Z" fill="#ECE8D9"/>
<path d="M600 120L640 80L560 80L600 120Z" fill="#ECE8D9"/>
<rect x="576" y="96" width="16" height="16" rx="8" fill="#F8B500"/>
<rect x="576" y="128" width="16" height="16" rx="8" fill="#F8B500"/>
<rect x="608" y="96" width="16" height="16" rx="8" fill="#F8B500"/>
<rect x="608" y="128" width="16" height="16" rx="8" fill="#F8B500"/>
</g>
<g clip-path="url(#clip46_10:6)">
<rect width="80" height="80" transform="translate(560 160)" fill="#E8647C"/>
<path d="M600 200L640 160V240L600 200Z" fill="#ECE8D9"/>
<path d="M600 200L640 240L560 240L600 200Z" fill="#ECE8D9"/>
<path d="M600 200L560 160V240L600 200Z" fill="#ECE8D9"/>
<path d="M600 200L640 160L560 160L600 200Z" fill="#ECE8D9"/>
<path fill-rule="evenodd" clip-rule="evenodd" d="M600 160C577.909 160 560 177.909 560 200C560 222.091 577.909 240 600 240C622.091 240 640 222.091 640 200C640 177.909 622.091 160 600 160ZM600 174.858L574.858 200L600 225.142L625.142 200L600 174.858Z" fill="#E8647C"/>
</g>
<g clip-path="url(#clip47_10:6)">
<rect width="80" height="80" transform="translate(560 240)" fill="#E8647C"/>
<path d="M600 280L640 240V320L600 280Z" fill="#ECE8D9"/>
<path d="M600 280L640 320L560 320L600 280Z" fill="#ECE8D9"/>
<path d="M600 280L560 240V320L600 280Z" fill="#ECE8D9"/>
<path d="M600 280L640 240L560 240L600 280Z" fill="#ECE8D9"/>
<rect x="584" y="264" width="32" height="32" rx="16" fill="#F8B500"/>
</g>
<g clip-path="url(#clip48_10:6)">
<rect width="80" height="80" transform="translate(560 320)" fill="#E8647C"/>
<path d="M600 360L640 320V400L600 360Z" fill="#ECE8D9"/>
<path d="M600 360L640 400L560 400L600 360Z" fill="#ECE8D9"/>
<path d="M600 360L560 320V400L600 360Z" fill="#ECE8D9"/>
<path d="M600 360L640 320L560 320L600 360Z" fill="#ECE8D9"/>
<rect x="576" y="336" width="16" height="16" fill="#023047"/>
<rect x="576" y="368" width="16" height="16" fill="#023047"/>
<rect x="608" y="336" width="16" height="16" fill="#023047"/>
<rect x="608" y="368" width="16" height="16" fill="#023047"/>
</g>
<g clip-path="url(#clip49_10:6)">
<rect width="80" height="80" transform="translate(560 400)" fill="#E8647C"/>
<path d="M600 440L640 400V480L600 440Z" fill="#ECE8D9"/>
<path d="M600 440L640 480L560 480L600 440Z" fill="#ECE8D9"/>
<path d="M600 440L560 400V480L600 440Z" fill="#ECE8D9"/>
<path d="M600 440L640 400L560 400L600 440Z" fill="#ECE8D9"/>
<rect x="560" y="400" width="80" height="80" rx="40" fill="#E8647C"/>
</g>
<g clip-path="url(#clip50_10:6)">
<rect width="80" height="80" transform="translate(640 80)" fill="#E8647C"/>
<path d="M680 120L720 80V160L680 120Z" fill="#ECE8D9"/>
<path d="M680 120L720 160L640 160L680 120Z" fill="#ECE8D9"/>
<path d="M680 120L640 80V160L680 120Z" fill="#ECE8D9"/>
<path d="M680 120L720 80L640 80L680 120Z" fill="#ECE8D9"/>
<rect x="664" y="104" width="32" height="32" fill="#023047"/>
</g>
<g clip-path="url(#clip51_10:6)">
<rect width="80" height="80" transform="translate(640 160)" fill="#F77754"/>
<path d="M680 200L720 160V240L680 200Z" fill="#ECE8D9"/>
<path d="M680 200L720 240L640 240L680 200Z" fill="#ECE8D9"/>
<path d="M680 200L640 160V240L680 200Z" fill="#ECE8D9"/>
<path d="M680 200L720 160L640 160L680 200Z" fill="#ECE8D9"/>
<path fill-rule="evenodd" clip-rule="evenodd" d="M720 160C675.817 160 640 195.817 640 240H680C680 217.909 697.909 200 720 200V160Z" fill="#35D0BA"/>
</g>
<g clip-path="url(#clip52_10:6)">
<rect width="80" height="80" transform="translate(640 240)" fill="#E8647C"/>
<path d="M680 280L720 240V320L680 280Z" fill="#ECE8D9"/>
<path d="M680 280L720 320L640 320L680 280Z" fill="#ECE8D9"/>
<path d="M680 280L640 240V320L680 280Z" fill="#ECE8D9"/>
<path d="M680 280L720 240L640 240L680 280Z" fill="#ECE8D9"/>
<path d="M680 240H720V280C697.909 280 680 262.091 680 240Z" fill="#35D0BA"/>
</g>
<g clip-path="url(#clip53_10:6)">
<rect width="80" height="80" transform="translate(640 320)" fill="#E8647C"/>
<path d="M680 360L720 320V400L680 360Z" fill="#ECE8D9"/>
<path d="M680 360L720 400L640 400L680 360Z" fill="#ECE8D9"/>
<path d="M680 360L640 320V400L680 360Z" fill="#ECE8D9"/>
<path d="M680 360L720 320L640 320L680 360Z" fill="#ECE8D9"/>
<rect x="640" y="336" width="80" height="16" fill="#F77754"/>
<rect x="640" y="368" width="80" height="16" fill="#F77754"/>
</g>
<g clip-path="url(#clip54_10:6)">
<rect width="80" height="80" transform="translate(640 400)" fill="#E8647C"/>
<path d="M680 440L720 400V480L680 440Z" fill="#ECE8D9"/>
<path d="M680 440L720 480L640 480L680 440Z" fill="#ECE8D9"/>
<path d="M680 440L640 400V480L680 440Z" fill="#ECE8D9"/>
<path d="M680 440L720 400L640 400L680 440Z" fill="#ECE8D9"/>
<rect x="680" y="440" width="40" height="40" fill="#023047"/>
</g>
<rect x="55" y="48" width="225" height="128" fill="#F8B500"/>
<path d="M70.2695 77L72.4668 64.5195H74.8047L72.6074 77H70.2695ZM68.7227 66.6641L69.1006 64.5195H78.2061L77.8281 66.6641H68.7227ZM78.0215 77L80.2275 64.5195H82.6445L80.4385 77H78.0215ZM83.5146 77L84.5078 71.375C84.6016 70.8477 84.5576 70.4492 84.376 70.1797C84.2002 69.9043 83.9072 69.7666 83.4971 69.7666C83.1572 69.7666 82.835 69.8516 82.5303 70.0215C82.2314 70.1914 81.9678 70.4785 81.7393 70.8828C81.5166 71.2812 81.3467 71.8232 81.2295 72.5088L81.6514 69.3711H82.0908C82.2783 68.7793 82.5801 68.3223 82.9961 68C83.4121 67.6719 83.9395 67.5078 84.5781 67.5078C85.5684 67.5078 86.2627 67.8301 86.6611 68.4746C87.0654 69.1191 87.1562 70.0684 86.9336 71.3223L85.9316 77H83.5146ZM93.5254 74.917C93.9473 74.917 94.3984 74.8525 94.8789 74.7236C95.3594 74.5947 95.8223 74.4131 96.2676 74.1787L96.874 76.2617C96.3174 76.5898 95.7227 76.8242 95.0898 76.9648C94.457 77.1055 93.8506 77.1758 93.2705 77.1758C91.9814 77.1758 90.9736 76.8447 90.2471 76.1826C89.5264 75.5146 89.166 74.5889 89.166 73.4053C89.166 72.2217 89.4033 71.1904 89.8779 70.3115C90.3525 69.4268 91.0146 68.7383 91.8643 68.2461C92.7197 67.7539 93.7158 67.5078 94.8525 67.5078C95.8135 67.5078 96.5635 67.748 97.1025 68.2285C97.6475 68.709 97.9199 69.377 97.9199 70.2324C97.9199 71.3633 97.3398 72.1924 96.1797 72.7197C95.0195 73.2471 93.3262 73.5283 91.0996 73.5635L90.7393 71.8936C92.2627 71.8818 93.4492 71.7471 94.2988 71.4893C95.1484 71.2256 95.5732 70.8682 95.5732 70.417C95.5732 70.1885 95.4736 70.0098 95.2744 69.8809C95.0752 69.752 94.7939 69.6875 94.4307 69.6875C93.8271 69.6875 93.2969 69.8311 92.8398 70.1182C92.3828 70.4053 92.0254 70.8066 91.7676 71.3223C91.5156 71.8379 91.3867 72.4385 91.3809 73.124C91.3867 73.6865 91.5771 74.126 91.9521 74.4424C92.333 74.7588 92.8574 74.917 93.5254 74.917ZM111.402 81.043H108.985L111.332 67.6836H113.485L113.362 69.8896L111.402 81.043ZM111.877 77.1758C111.508 77.1758 111.145 77.1582 110.787 77.123C110.43 77.0938 110.066 77.0527 109.697 77L110.743 74.6973C111.065 74.8438 111.599 74.917 112.343 74.917C113.187 74.917 113.942 74.7441 114.61 74.3984C115.284 74.0527 115.814 73.584 116.201 72.9922C116.588 72.3945 116.781 71.7207 116.781 70.9707C116.781 70.584 116.685 70.2881 116.491 70.083C116.298 69.8721 116.025 69.7666 115.674 69.7666C115.281 69.7666 114.889 69.8984 114.496 70.1621C114.109 70.4258 113.758 70.8389 113.441 71.4014C113.125 71.9639 112.882 72.6934 112.712 73.5898L113.063 69.3623H113.828L113.468 69.8545C113.638 69.1045 113.998 68.5273 114.549 68.123C115.105 67.7129 115.779 67.5078 116.57 67.5078C117.408 67.5078 118.059 67.7832 118.521 68.334C118.984 68.8789 119.216 69.6582 119.216 70.6719C119.216 71.5977 119.031 72.4561 118.662 73.2471C118.293 74.0381 117.777 74.7295 117.115 75.3213C116.453 75.9072 115.677 76.3643 114.786 76.6924C113.896 77.0146 112.926 77.1758 111.877 77.1758ZM127.732 77.1582C126.836 77.1582 126.18 76.9619 125.764 76.5693C125.348 76.1768 125.146 75.5674 125.157 74.7412C125.163 74.4307 125.204 74.0732 125.28 73.6689C125.356 73.2646 125.471 72.793 125.623 72.2539L126.713 68.4658L128.26 69.8281H123.013V67.6484L129.376 67.6396L128.049 72.166C127.896 72.6934 127.782 73.127 127.706 73.4668C127.636 73.8066 127.598 74.0615 127.592 74.2314C127.574 74.7764 127.885 75.0488 128.523 75.0488C128.787 75.0488 129.016 75.0312 129.209 74.9961L129.332 77C128.834 77.1055 128.301 77.1582 127.732 77.1582ZM121.299 75.3828L119.567 73.9502C120.177 73.3408 120.66 72.7314 121.018 72.1221C121.375 71.5068 121.63 70.8301 121.782 70.0918C121.94 69.3535 122.02 68.4922 122.02 67.5078V66.752H124.278V67.4902C124.278 68.6387 124.182 69.6582 123.988 70.5488C123.801 71.4336 123.49 72.2598 123.057 73.0273C122.623 73.7949 122.037 74.5801 121.299 75.3828ZM134.693 77.1758C133.598 77.1758 132.742 76.8799 132.127 76.2881C131.518 75.6904 131.213 74.8613 131.213 73.8008C131.213 71.8203 131.67 70.2764 132.584 69.1689C133.498 68.0615 134.77 67.5078 136.398 67.5078C137.494 67.5078 138.347 67.8125 138.956 68.4219C139.571 69.0312 139.879 69.8809 139.879 70.9707C139.879 72.9219 139.422 74.4453 138.508 75.541C137.594 76.6309 136.322 77.1758 134.693 77.1758ZM135.115 74.917C135.842 74.917 136.407 74.6035 136.812 73.9766C137.222 73.3438 137.427 72.4678 137.427 71.3486C137.427 70.8506 137.304 70.4639 137.058 70.1885C136.812 69.9072 136.466 69.7666 136.021 69.7666C135.282 69.7666 134.705 70.083 134.289 70.7158C133.873 71.3428 133.665 72.2158 133.665 73.335C133.665 73.833 133.791 74.2227 134.043 74.5039C134.301 74.7793 134.658 74.917 135.115 74.917ZM141.347 81.2188L141.259 79.1533L143.104 79.0391C143.778 78.998 144.35 78.8721 144.818 78.6611C145.287 78.4502 145.674 78.1807 145.979 77.8525C146.289 77.5303 146.529 77.167 146.699 76.7627C146.869 76.3584 146.992 75.9424 147.068 75.5146L148.237 68.8877L150.821 67.5957H150.892L149.538 75.2334C149.392 76.0596 149.175 76.8213 148.888 77.5186C148.601 78.2158 148.208 78.8252 147.71 79.3467C147.212 79.874 146.573 80.293 145.794 80.6035C145.015 80.9141 144.06 81.0957 142.929 81.1484L141.347 81.2188ZM148.993 69.8721C148.267 69.9014 147.59 70.0332 146.963 70.2676C146.336 70.4961 145.785 70.8096 145.311 71.208C144.842 71.6006 144.476 72.0576 144.212 72.5791C143.948 73.0947 143.816 73.6543 143.816 74.2578C143.816 74.5449 143.893 74.7676 144.045 74.9258C144.203 75.084 144.423 75.1631 144.704 75.1631C145.226 75.1631 145.694 75.0107 146.11 74.7061C146.526 74.3955 146.881 73.9414 147.174 73.3438C147.467 72.7402 147.689 72.0049 147.842 71.1377L147.903 70.7861L149.011 71.5244L147.991 75.0576H146.62L147.218 74.1963C146.942 75.1455 146.5 75.8809 145.891 76.4023C145.281 76.9238 144.549 77.1846 143.693 77.1846C142.955 77.1846 142.384 76.9648 141.979 76.5254C141.581 76.0801 141.382 75.4561 141.382 74.6533C141.382 73.5811 141.616 72.6143 142.085 71.7529C142.554 70.8857 143.21 70.1416 144.054 69.5205C144.903 68.8994 145.894 68.4248 147.024 68.0967C148.161 67.7627 149.395 67.5957 150.725 67.5957H150.883L148.993 69.8721ZM159.373 77.1582C158.477 77.1582 157.82 76.9619 157.404 76.5693C156.988 76.1768 156.786 75.5674 156.798 74.7412C156.804 74.4307 156.845 74.0732 156.921 73.6689C156.997 73.2646 157.111 72.793 157.264 72.2539L158.354 68.4658L159.9 69.8281H154.653V67.6484L161.017 67.6396L159.689 72.166C159.537 72.6934 159.423 73.127 159.347 73.4668C159.276 73.8066 159.238 74.0615 159.232 74.2314C159.215 74.7764 159.525 75.0488 160.164 75.0488C160.428 75.0488 160.656 75.0312 160.85 74.9961L160.973 77C160.475 77.1055 159.941 77.1582 159.373 77.1582ZM152.939 75.3828L151.208 73.9502C151.817 73.3408 152.301 72.7314 152.658 72.1221C153.016 71.5068 153.271 70.8301 153.423 70.0918C153.581 69.3535 153.66 68.4922 153.66 67.5078V66.752H155.919V67.4902C155.919 68.6387 155.822 69.6582 155.629 70.5488C155.441 71.4336 155.131 72.2598 154.697 73.0273C154.264 73.7949 153.678 74.5801 152.939 75.3828ZM164.963 77.1846C164.084 77.1846 163.404 76.9561 162.924 76.499C162.443 76.042 162.203 75.3975 162.203 74.5654C162.203 73.5107 162.438 72.5557 162.906 71.7002C163.375 70.8389 164.031 70.1035 164.875 69.4941C165.725 68.8848 166.718 68.416 167.854 68.0879C168.991 67.7598 170.228 67.5957 171.563 67.5957H171.783L170.667 74.0029C170.597 74.4131 170.638 74.6943 170.79 74.8467C170.942 74.999 171.259 75.0752 171.739 75.0752H172.161L171.81 77.0879H170.852C170.213 77.0879 169.721 77.0205 169.375 76.8857C169.035 76.7451 168.801 76.5635 168.672 76.3408C168.543 76.1123 168.476 75.8662 168.47 75.6025C168.47 75.333 168.487 75.0664 168.522 74.8027L169.103 75.0312H168.083L168.637 73.8447C168.332 74.9053 167.857 75.7285 167.213 76.3145C166.568 76.8945 165.818 77.1846 164.963 77.1846ZM165.534 74.9258C166.302 74.9258 166.976 74.5977 167.556 73.9414C168.142 73.2793 168.54 72.3447 168.751 71.1377L169.199 68.5889L170.043 69.8545C169.287 69.8838 168.581 70.0127 167.925 70.2412C167.269 70.4639 166.694 70.7656 166.202 71.1465C165.71 71.5215 165.326 71.9609 165.051 72.4648C164.775 72.9629 164.638 73.502 164.638 74.082C164.638 74.3691 164.711 74.583 164.857 74.7236C165.004 74.8584 165.229 74.9258 165.534 74.9258ZM176.204 67.6836L176.081 70.083L174.868 77H172.486L174.147 67.6836H176.204ZM176.072 77L177.215 70.5312C177.309 69.9922 177.168 69.7227 176.793 69.7227C176.576 69.7227 176.395 69.834 176.248 70.0566C176.107 70.2734 175.993 70.6045 175.905 71.0498L175.87 68.8438H176.397C176.573 68.3633 176.784 68.0205 177.03 67.8154C177.282 67.6104 177.602 67.5078 177.988 67.5078C178.457 67.5078 178.776 67.7041 178.946 68.0967C179.122 68.4893 179.14 69.1133 178.999 69.9688L177.76 77H176.072ZM182.603 69.9688L181.346 77H178.964L180.115 70.5312C180.162 70.2734 180.15 70.0742 180.08 69.9336C180.016 69.793 179.904 69.7227 179.746 69.7227C179.529 69.7227 179.336 69.834 179.166 70.0566C179.002 70.2734 178.882 70.6045 178.806 71.0498L178.771 68.8438H179.333C179.521 68.3574 179.758 68.0146 180.045 67.8154C180.338 67.6104 180.704 67.5078 181.144 67.5078C182.409 67.5078 182.896 68.3281 182.603 69.9688ZM186.751 67.6836L186.628 70.083L185.415 77H183.033L184.694 67.6836H186.751ZM186.619 77L187.762 70.5312C187.855 69.9922 187.715 69.7227 187.34 69.7227C187.123 69.7227 186.941 69.834 186.795 70.0566C186.654 70.2734 186.54 70.6045 186.452 71.0498L186.417 68.8438H186.944C187.12 68.3633 187.331 68.0205 187.577 67.8154C187.829 67.6104 188.148 67.5078 188.535 67.5078C189.004 67.5078 189.323 67.7041 189.493 68.0967C189.669 68.4893 189.687 69.1133 189.546 69.9688L188.307 77H186.619ZM193.149 69.9688L191.893 77H189.511L190.662 70.5312C190.709 70.2734 190.697 70.0742 190.627 69.9336C190.562 69.793 190.451 69.7227 190.293 69.7227C190.076 69.7227 189.883 69.834 189.713 70.0566C189.549 70.2734 189.429 70.6045 189.353 71.0498L189.317 68.8438H189.88C190.067 68.3574 190.305 68.0146 190.592 67.8154C190.885 67.6104 191.251 67.5078 191.69 67.5078C192.956 67.5078 193.442 68.3281 193.149 69.9688ZM200.049 66.4268C199.598 66.4268 199.231 66.2861 198.95 66.0049C198.669 65.7236 198.528 65.3574 198.528 64.9062C198.528 64.4551 198.669 64.0889 198.95 63.8076C199.231 63.5264 199.598 63.3857 200.049 63.3857C200.5 63.3857 200.866 63.5264 201.147 63.8076C201.429 64.0889 201.569 64.4551 201.569 64.9062C201.569 65.3574 201.429 65.7236 201.147 66.0049C200.866 66.2861 200.5 66.4268 200.049 66.4268ZM202.053 74.4336L202.659 76.4375C202.302 76.6426 201.924 76.8184 201.525 76.9648C201.127 77.1055 200.67 77.1758 200.154 77.1758C199.029 77.1758 198.194 76.9268 197.649 76.4287C197.11 75.9307 196.87 75.2012 196.929 74.2402C196.958 73.8242 197.025 73.417 197.131 73.0186C197.242 72.6201 197.362 72.2334 197.491 71.8584C197.626 71.4834 197.734 71.126 197.816 70.7861C197.904 70.4463 197.869 70.1914 197.711 70.0215C197.553 69.8457 197.277 69.7578 196.885 69.7578C196.328 69.7578 195.792 69.8252 195.276 69.96L195.092 67.7451C195.438 67.6455 195.783 67.5811 196.129 67.5518C196.475 67.5166 196.82 67.499 197.166 67.499C198.455 67.499 199.354 67.7773 199.864 68.334C200.38 68.8848 200.506 69.7021 200.242 70.7861C200.154 71.167 200.046 71.5244 199.917 71.8584C199.794 72.1865 199.68 72.5146 199.574 72.8428C199.475 73.1709 199.41 73.5225 199.381 73.8975C199.334 74.5771 199.706 74.917 200.497 74.917C200.79 74.917 201.045 74.8818 201.262 74.8115C201.484 74.7354 201.748 74.6094 202.053 74.4336ZM204.619 77L206.263 67.6836H208.346L208.284 69.9072L207.036 77H204.619ZM210.086 77L211.079 71.375C211.173 70.8477 211.129 70.4492 210.947 70.1797C210.766 69.9043 210.47 69.7666 210.06 69.7666C209.726 69.7666 209.409 69.8516 209.11 70.0215C208.812 70.1914 208.551 70.4785 208.328 70.8828C208.105 71.2812 207.938 71.8232 207.827 72.5088L208.249 69.3711H208.557C208.756 68.7793 209.072 68.3223 209.506 68C209.939 67.6719 210.484 67.5078 211.141 67.5078C212.137 67.5078 212.834 67.8301 213.232 68.4746C213.637 69.1191 213.728 70.0684 213.505 71.3223L212.503 77H210.086ZM215.175 81.2188L215.087 79.1533L216.933 79.0391C217.606 78.998 218.178 78.8721 218.646 78.6611C219.115 78.4502 219.502 78.1807 219.807 77.8525C220.117 77.5303 220.357 77.167 220.527 76.7627C220.697 76.3584 220.82 75.9424 220.896 75.5146L222.065 68.8877L224.649 67.5957H224.72L223.366 75.2334C223.22 76.0596 223.003 76.8213 222.716 77.5186C222.429 78.2158 222.036 78.8252 221.538 79.3467C221.04 79.874 220.401 80.293 219.622 80.6035C218.843 80.9141 217.888 81.0957 216.757 81.1484L215.175 81.2188ZM222.821 69.8721C222.095 69.9014 221.418 70.0332 220.791 70.2676C220.164 70.4961 219.613 70.8096 219.139 71.208C218.67 71.6006 218.304 72.0576 218.04 72.5791C217.776 73.0947 217.645 73.6543 217.645 74.2578C217.645 74.5449 217.721 74.7676 217.873 74.9258C218.031 75.084 218.251 75.1631 218.532 75.1631C219.054 75.1631 219.522 75.0107 219.938 74.7061C220.354 74.3955 220.709 73.9414 221.002 73.3438C221.295 72.7402 221.518 72.0049 221.67 71.1377L221.731 70.7861L222.839 71.5244L221.819 75.0576H220.448L221.046 74.1963C220.771 75.1455 220.328 75.8809 219.719 76.4023C219.109 76.9238 218.377 77.1846 217.521 77.1846C216.783 77.1846 216.212 76.9648 215.808 76.5254C215.409 76.0801 215.21 75.4561 215.21 74.6533C215.21 73.5811 215.444 72.6143 215.913 71.7529C216.382 70.8857 217.038 70.1416 217.882 69.5205C218.731 68.8994 219.722 68.4248 220.853 68.0967C221.989 67.7627 223.223 67.5957 224.553 67.5957H224.711L222.821 69.8721ZM75.8857 95.6006L76.3516 97.7803C75.8828 97.9209 75.458 98.0205 75.0771 98.0791C74.6963 98.1436 74.3213 98.1758 73.9521 98.1758C72.2881 98.1758 71.0811 97.6748 70.3311 96.6729C69.5869 95.665 69.2148 94.0479 69.2148 91.8213C69.2148 90.374 69.417 89.1143 69.8213 88.042C70.2314 86.9639 70.8057 86.1289 71.5439 85.5371C72.2822 84.9395 73.1436 84.6406 74.1279 84.6406C74.9189 84.6406 75.5518 84.9131 76.0264 85.458C76.5068 86.0029 76.7471 86.7295 76.7471 87.6377C76.7471 89.126 76.3779 90.4912 75.6396 91.7334C74.9072 92.9697 73.8584 94.0361 72.4932 94.9326C71.1279 95.8291 69.499 96.5117 67.6064 96.9805L67.0879 94.9678C68.582 94.6162 69.8682 94.0947 70.9463 93.4033C72.0303 92.7061 72.8652 91.874 73.4512 90.9072C74.0371 89.9404 74.3301 88.874 74.3301 87.708C74.3242 87.4326 74.2686 87.2305 74.1631 87.1016C74.0576 86.9668 73.8965 86.8994 73.6797 86.8994C73.2227 86.8994 72.8242 87.1074 72.4844 87.5234C72.1445 87.9395 71.8809 88.5225 71.6934 89.2725C71.5059 90.0225 71.4121 90.9014 71.4121 91.9092C71.4121 93.3154 71.6143 94.335 72.0186 94.9678C72.4287 95.6006 73.0879 95.917 73.9961 95.917C74.3418 95.917 74.6641 95.8936 74.9629 95.8467C75.2617 95.7939 75.5693 95.7119 75.8857 95.6006ZM80.5879 98.1846C79.709 98.1846 79.0293 97.9561 78.5488 97.499C78.0684 97.042 77.8281 96.3975 77.8281 95.5654C77.8281 94.5107 78.0625 93.5557 78.5312 92.7002C79 91.8389 79.6562 91.1035 80.5 90.4941C81.3496 89.8848 82.3428 89.416 83.4795 89.0879C84.6162 88.7598 85.8525 88.5957 87.1885 88.5957H87.4082L86.292 95.0029C86.2217 95.4131 86.2627 95.6943 86.415 95.8467C86.5674 95.999 86.8838 96.0752 87.3643 96.0752H87.7861L87.4346 98.0879H86.4766C85.8379 98.0879 85.3457 98.0205 85 97.8857C84.6602 97.7451 84.4258 97.5635 84.2969 97.3408C84.168 97.1123 84.1006 96.8662 84.0947 96.6025C84.0947 96.333 84.1123 96.0664 84.1475 95.8027L84.7275 96.0312H83.708L84.2617 94.8447C83.957 95.9053 83.4824 96.7285 82.8379 97.3145C82.1934 97.8945 81.4434 98.1846 80.5879 98.1846ZM81.1592 95.9258C81.9268 95.9258 82.6006 95.5977 83.1807 94.9414C83.7666 94.2793 84.165 93.3447 84.376 92.1377L84.8242 89.5889L85.668 90.8545C84.9121 90.8838 84.2061 91.0127 83.5498 91.2412C82.8936 91.4639 82.3193 91.7656 81.8271 92.1465C81.335 92.5215 80.9512 92.9609 80.6758 93.4648C80.4004 93.9629 80.2627 94.502 80.2627 95.082C80.2627 95.3691 80.3359 95.583 80.4824 95.7236C80.6289 95.8584 80.8545 95.9258 81.1592 95.9258ZM88.6035 98L90.2471 88.6836H92.3301L92.2686 90.9072L91.0205 98H88.6035ZM94.0703 98L95.0635 92.375C95.1572 91.8477 95.1133 91.4492 94.9316 91.1797C94.75 90.9043 94.4541 90.7666 94.0439 90.7666C93.71 90.7666 93.3936 90.8516 93.0947 91.0215C92.7959 91.1914 92.5352 91.4785 92.3125 91.8828C92.0898 92.2812 91.9229 92.8232 91.8115 93.5088L92.2334 90.3711H92.541C92.7402 89.7793 93.0566 89.3223 93.4902 89C93.9238 88.6719 94.4688 88.5078 95.125 88.5078C96.1211 88.5078 96.8184 88.8301 97.2168 89.4746C97.6211 90.1191 97.7119 91.0684 97.4893 92.3223L96.4873 98H94.0703ZM99.1592 102.219L99.0713 100.153L100.917 100.039C101.591 99.998 102.162 99.8721 102.631 99.6611C103.1 99.4502 103.486 99.1807 103.791 98.8525C104.102 98.5303 104.342 98.167 104.512 97.7627C104.682 97.3584 104.805 96.9424 104.881 96.5146L106.05 89.8877L108.634 88.5957H108.704L107.351 96.2334C107.204 97.0596 106.987 97.8213 106.7 98.5186C106.413 99.2158 106.021 99.8252 105.522 100.347C105.024 100.874 104.386 101.293 103.606 101.604C102.827 101.914 101.872 102.096 100.741 102.148L99.1592 102.219ZM106.806 90.8721C106.079 90.9014 105.402 91.0332 104.775 91.2676C104.148 91.4961 103.598 91.8096 103.123 92.208C102.654 92.6006 102.288 93.0576 102.024 93.5791C101.761 94.0947 101.629 94.6543 101.629 95.2578C101.629 95.5449 101.705 95.7676 101.857 95.9258C102.016 96.084 102.235 96.1631 102.517 96.1631C103.038 96.1631 103.507 96.0107 103.923 95.7061C104.339 95.3955 104.693 94.9414 104.986 94.3438C105.279 93.7402 105.502 93.0049 105.654 92.1377L105.716 91.7861L106.823 92.5244L105.804 96.0576H104.433L105.03 95.1963C104.755 96.1455 104.312 96.8809 103.703 97.4023C103.094 97.9238 102.361 98.1846 101.506 98.1846C100.768 98.1846 100.196 97.9648 99.792 97.5254C99.3936 97.0801 99.1943 96.4561 99.1943 95.6533C99.1943 94.5811 99.4287 93.6143 99.8975 92.7529C100.366 91.8857 101.022 91.1416 101.866 90.5205C102.716 89.8994 103.706 89.4248 104.837 89.0967C105.974 88.7627 107.207 88.5957 108.537 88.5957H108.695L106.806 90.8721ZM112.554 98.1846C111.687 98.1846 111.016 97.9092 110.541 97.3584C110.072 96.8076 109.838 96.0342 109.838 95.0381C109.838 94.1826 109.976 93.2393 110.251 92.208C110.526 91.1768 110.972 89.9434 111.587 88.5078L113.978 88.8506C113.386 90.3154 112.952 91.5195 112.677 92.4629C112.407 93.4062 112.272 94.1914 112.272 94.8184C112.272 95.1699 112.369 95.4424 112.562 95.6357C112.756 95.8291 113.031 95.9258 113.389 95.9258C114.039 95.9258 114.563 95.6006 114.962 94.9502C115.366 94.2998 115.686 93.3623 115.92 92.1377L115.832 96.0312H115.252L115.595 95.1084C115.407 95.7412 115.202 96.2891 114.979 96.752C114.757 97.209 114.458 97.5635 114.083 97.8154C113.708 98.0615 113.198 98.1846 112.554 98.1846ZM117.625 98.0879C117.127 98.0879 116.723 98.0029 116.412 97.833C116.107 97.6631 115.894 97.4111 115.771 97.0771C115.653 96.7373 115.627 96.3125 115.691 95.8027L115.63 93.7725L116.535 88.6836H118.943L117.836 95.0029C117.766 95.4131 117.78 95.6943 117.88 95.8467C117.979 95.999 118.19 96.0752 118.513 96.0752H118.935L118.583 98.0879H117.625ZM122.775 98.1846C121.896 98.1846 121.217 97.9561 120.736 97.499C120.256 97.042 120.016 96.3975 120.016 95.5654C120.016 94.5107 120.25 93.5557 120.719 92.7002C121.188 91.8389 121.844 91.1035 122.688 90.4941C123.537 89.8848 124.53 89.416 125.667 89.0879C126.804 88.7598 128.04 88.5957 129.376 88.5957H129.596L128.479 95.0029C128.409 95.4131 128.45 95.6943 128.603 95.8467C128.755 95.999 129.071 96.0752 129.552 96.0752H129.974L129.622 98.0879H128.664C128.025 98.0879 127.533 98.0205 127.188 97.8857C126.848 97.7451 126.613 97.5635 126.484 97.3408C126.355 97.1123 126.288 96.8662 126.282 96.6025C126.282 96.333 126.3 96.0664 126.335 95.8027L126.915 96.0312H125.896L126.449 94.8447C126.145 95.9053 125.67 96.7285 125.025 97.3145C124.381 97.8945 123.631 98.1846 122.775 98.1846ZM123.347 95.9258C124.114 95.9258 124.788 95.5977 125.368 94.9414C125.954 94.2793 126.353 93.3447 126.563 92.1377L127.012 89.5889L127.855 90.8545C127.1 90.8838 126.394 91.0127 125.737 91.2412C125.081 91.4639 124.507 91.7656 124.015 92.1465C123.522 92.5215 123.139 92.9609 122.863 93.4648C122.588 93.9629 122.45 94.502 122.45 95.082C122.45 95.3691 122.523 95.583 122.67 95.7236C122.816 95.8584 123.042 95.9258 123.347 95.9258ZM130.8 102.219L130.712 100.153L132.558 100.039C133.231 99.998 133.803 99.8721 134.271 99.6611C134.74 99.4502 135.127 99.1807 135.432 98.8525C135.742 98.5303 135.982 98.167 136.152 97.7627C136.322 97.3584 136.445 96.9424 136.521 96.5146L137.69 89.8877L140.274 88.5957H140.345L138.991 96.2334C138.845 97.0596 138.628 97.8213 138.341 98.5186C138.054 99.2158 137.661 99.8252 137.163 100.347C136.665 100.874 136.026 101.293 135.247 101.604C134.468 101.914 133.513 102.096 132.382 102.148L130.8 102.219ZM138.446 90.8721C137.72 90.9014 137.043 91.0332 136.416 91.2676C135.789 91.4961 135.238 91.8096 134.764 92.208C134.295 92.6006 133.929 93.0576 133.665 93.5791C133.401 94.0947 133.27 94.6543 133.27 95.2578C133.27 95.5449 133.346 95.7676 133.498 95.9258C133.656 96.084 133.876 96.1631 134.157 96.1631C134.679 96.1631 135.147 96.0107 135.563 95.7061C135.979 95.3955 136.334 94.9414 136.627 94.3438C136.92 93.7402 137.143 93.0049 137.295 92.1377L137.356 91.7861L138.464 92.5244L137.444 96.0576H136.073L136.671 95.1963C136.396 96.1455 135.953 96.8809 135.344 97.4023C134.734 97.9238 134.002 98.1846 133.146 98.1846C132.408 98.1846 131.837 97.9648 131.433 97.5254C131.034 97.0801 130.835 96.4561 130.835 95.6533C130.835 94.5811 131.069 93.6143 131.538 92.7529C132.007 91.8857 132.663 91.1416 133.507 90.5205C134.356 89.8994 135.347 89.4248 136.478 89.0967C137.614 88.7627 138.848 88.5957 140.178 88.5957H140.336L138.446 90.8721ZM146.26 95.917C146.682 95.917 147.133 95.8525 147.613 95.7236C148.094 95.5947 148.557 95.4131 149.002 95.1787L149.608 97.2617C149.052 97.5898 148.457 97.8242 147.824 97.9648C147.191 98.1055 146.585 98.1758 146.005 98.1758C144.716 98.1758 143.708 97.8447 142.981 97.1826C142.261 96.5146 141.9 95.5889 141.9 94.4053C141.9 93.2217 142.138 92.1904 142.612 91.3115C143.087 90.4268 143.749 89.7383 144.599 89.2461C145.454 88.7539 146.45 88.5078 147.587 88.5078C148.548 88.5078 149.298 88.748 149.837 89.2285C150.382 89.709 150.654 90.377 150.654 91.2324C150.654 92.3633 150.074 93.1924 148.914 93.7197C147.754 94.2471 146.061 94.5283 143.834 94.5635L143.474 92.8936C144.997 92.8818 146.184 92.7471 147.033 92.4893C147.883 92.2256 148.308 91.8682 148.308 91.417C148.308 91.1885 148.208 91.0098 148.009 90.8809C147.81 90.752 147.528 90.6875 147.165 90.6875C146.562 90.6875 146.031 90.8311 145.574 91.1182C145.117 91.4053 144.76 91.8066 144.502 92.3223C144.25 92.8379 144.121 93.4385 144.115 94.124C144.121 94.6865 144.312 95.126 144.687 95.4424C145.067 95.7588 145.592 95.917 146.26 95.917ZM167.608 102.219C166.343 102.219 165.361 101.741 164.664 100.786C163.967 99.8311 163.618 98.4834 163.618 96.7432C163.618 94.1768 163.888 91.9941 164.427 90.1953C164.966 88.3906 165.748 87.0137 166.773 86.0645C167.805 85.1152 169.05 84.6406 170.509 84.6406C171.089 84.6406 171.622 84.7549 172.108 84.9834C172.595 85.2061 172.99 85.5225 173.295 85.9326L172.003 87.7168C171.798 87.459 171.54 87.2598 171.229 87.1191C170.925 86.9727 170.594 86.8994 170.236 86.8994C169.316 86.8994 168.531 87.2832 167.881 88.0508C167.23 88.8125 166.732 89.9199 166.387 91.373C166.047 92.8262 165.877 94.5869 165.877 96.6553C165.877 97.7041 166.035 98.5156 166.352 99.0898C166.674 99.6699 167.119 99.96 167.688 99.96C168.344 99.96 168.672 99.5645 168.672 98.7734C168.672 98.2461 168.517 97.7012 168.206 97.1387C167.901 96.5762 167.471 96.0459 166.914 95.5479L168.804 94.1064C169.472 94.751 169.993 95.4746 170.368 96.2773C170.743 97.0801 170.931 97.8828 170.931 98.6855C170.931 101.041 169.823 102.219 167.608 102.219ZM162.546 92.6475L162.933 90.4678H171.229L170.843 92.6475H162.546ZM176.881 98.1758C175.785 98.1758 174.93 97.8799 174.314 97.2881C173.705 96.6904 173.4 95.8613 173.4 94.8008C173.4 92.8203 173.857 91.2764 174.771 90.1689C175.686 89.0615 176.957 88.5078 178.586 88.5078C179.682 88.5078 180.534 88.8125 181.144 89.4219C181.759 90.0312 182.066 90.8809 182.066 91.9707C182.066 93.9219 181.609 95.4453 180.695 96.541C179.781 97.6309 178.51 98.1758 176.881 98.1758ZM177.303 95.917C178.029 95.917 178.595 95.6035 178.999 94.9766C179.409 94.3438 179.614 93.4678 179.614 92.3486C179.614 91.8506 179.491 91.4639 179.245 91.1885C178.999 90.9072 178.653 90.7666 178.208 90.7666C177.47 90.7666 176.893 91.083 176.477 91.7158C176.061 92.3428 175.853 93.2158 175.853 94.335C175.853 94.833 175.979 95.2227 176.23 95.5039C176.488 95.7793 176.846 95.917 177.303 95.917ZM191.014 98.1582C190.117 98.1582 189.461 97.9619 189.045 97.5693C188.629 97.1768 188.427 96.5674 188.438 95.7412C188.444 95.4307 188.485 95.0732 188.562 94.6689C188.638 94.2646 188.752 93.793 188.904 93.2539L189.994 89.4658L191.541 90.8281H186.294V88.6484L192.657 88.6396L191.33 93.166C191.178 93.6934 191.063 94.127 190.987 94.4668C190.917 94.8066 190.879 95.0615 190.873 95.2314C190.855 95.7764 191.166 96.0488 191.805 96.0488C192.068 96.0488 192.297 96.0312 192.49 95.9961L192.613 98C192.115 98.1055 191.582 98.1582 191.014 98.1582ZM184.58 96.3828L182.849 94.9502C183.458 94.3408 183.941 93.7314 184.299 93.1221C184.656 92.5068 184.911 91.8301 185.063 91.0918C185.222 90.3535 185.301 89.4922 185.301 88.5078V87.752H187.56V88.4902C187.56 89.6387 187.463 90.6582 187.27 91.5488C187.082 92.4336 186.771 93.2598 186.338 94.0273C185.904 94.7949 185.318 95.5801 184.58 96.3828ZM209.937 98.1758C208.882 98.1758 208.062 97.9297 207.476 97.4375C206.896 96.9395 206.605 96.2363 206.605 95.3281C206.605 95.0586 206.611 94.8008 206.623 94.5547C206.641 94.3027 206.67 94.0244 206.711 93.7197C206.752 93.4092 206.811 93.0283 206.887 92.5771L208.064 85.8711H210.481L209.304 92.5771C209.204 93.1455 209.134 93.5762 209.093 93.8691C209.058 94.1621 209.04 94.4727 209.04 94.8008C209.04 95.1934 209.146 95.4775 209.356 95.6533C209.567 95.8291 209.904 95.917 210.367 95.917C210.807 95.917 211.193 95.8877 211.527 95.8291C211.861 95.7705 212.257 95.668 212.714 95.5215L213.145 97.6133C212.688 97.7656 212.204 97.8975 211.694 98.0088C211.185 98.1201 210.599 98.1758 209.937 98.1758ZM205.103 90.8721L205.489 88.6836H214.015L213.628 90.8721H205.103ZM220.624 98L221.617 92.375C221.711 91.8477 221.667 91.4492 221.485 91.1797C221.31 90.9043 221.017 90.7666 220.606 90.7666C220.267 90.7666 219.944 90.8516 219.64 91.0215C219.341 91.1914 219.077 91.4785 218.849 91.8828C218.626 92.2812 218.456 92.8232 218.339 93.5088L218.761 90.3711H219.2C219.388 89.7793 219.689 89.3223 220.105 89C220.521 88.6719 221.049 88.5078 221.688 88.5078C222.678 88.5078 223.372 88.8301 223.771 89.4746C224.175 90.1191 224.266 91.0684 224.043 92.3223L223.041 98H220.624ZM215.14 98L216.818 88.4463C216.918 87.9072 216.9 87.5146 216.766 87.2686C216.637 87.0166 216.405 86.8906 216.071 86.8906C215.96 86.8906 215.846 86.8994 215.729 86.917C215.611 86.9287 215.494 86.9521 215.377 86.9873L215.122 84.7725C215.345 84.7197 215.567 84.6846 215.79 84.667C216.013 84.6436 216.235 84.6318 216.458 84.6318C217.671 84.6318 218.5 84.9131 218.945 85.4756C219.396 86.0381 219.511 86.9404 219.288 88.1826L217.557 98H215.14ZM230.635 95.917C231.057 95.917 231.508 95.8525 231.988 95.7236C232.469 95.5947 232.932 95.4131 233.377 95.1787L233.983 97.2617C233.427 97.5898 232.832 97.8242 232.199 97.9648C231.566 98.1055 230.96 98.1758 230.38 98.1758C229.091 98.1758 228.083 97.8447 227.356 97.1826C226.636 96.5146 226.275 95.5889 226.275 94.4053C226.275 93.2217 226.513 92.1904 226.987 91.3115C227.462 90.4268 228.124 89.7383 228.974 89.2461C229.829 88.7539 230.825 88.5078 231.962 88.5078C232.923 88.5078 233.673 88.748 234.212 89.2285C234.757 89.709 235.029 90.377 235.029 91.2324C235.029 92.3633 234.449 93.1924 233.289 93.7197C232.129 94.2471 230.436 94.5283 228.209 94.5635L227.849 92.8936C229.372 92.8818 230.559 92.7471 231.408 92.4893C232.258 92.2256 232.683 91.8682 232.683 91.417C232.683 91.1885 232.583 91.0098 232.384 90.8809C232.185 90.752 231.903 90.6875 231.54 90.6875C230.937 90.6875 230.406 90.8311 229.949 91.1182C229.492 91.4053 229.135 91.8066 228.877 92.3223C228.625 92.8379 228.496 93.4385 228.49 94.124C228.496 94.6865 228.687 95.126 229.062 95.4424C229.442 95.7588 229.967 95.917 230.635 95.917ZM72.6865 123.219C71.4209 123.219 70.4395 122.741 69.7422 121.786C69.0449 120.831 68.6963 119.483 68.6963 117.743C68.6963 115.177 68.9658 112.994 69.5049 111.195C70.0439 109.391 70.8262 108.014 71.8516 107.064C72.8828 106.115 74.1279 105.641 75.5869 105.641C76.167 105.641 76.7002 105.755 77.1865 105.983C77.6729 106.206 78.0684 106.522 78.373 106.933L77.0811 108.717C76.876 108.459 76.6182 108.26 76.3076 108.119C76.0029 107.973 75.6719 107.899 75.3145 107.899C74.3945 107.899 73.6094 108.283 72.959 109.051C72.3086 109.812 71.8105 110.92 71.4648 112.373C71.125 113.826 70.9551 115.587 70.9551 117.655C70.9551 118.704 71.1133 119.516 71.4297 120.09C71.752 120.67 72.1973 120.96 72.7656 120.96C73.4219 120.96 73.75 120.564 73.75 119.773C73.75 119.246 73.5947 118.701 73.2842 118.139C72.9795 117.576 72.5488 117.046 71.9922 116.548L73.8818 115.106C74.5498 115.751 75.0713 116.475 75.4463 117.277C75.8213 118.08 76.0088 118.883 76.0088 119.686C76.0088 122.041 74.9014 123.219 72.6865 123.219ZM67.624 113.647L68.0107 111.468H76.3076L75.9209 113.647H67.624ZM80.9131 119.185C80.0459 119.185 79.375 118.909 78.9004 118.358C78.4316 117.808 78.1973 117.034 78.1973 116.038C78.1973 115.183 78.335 114.239 78.6104 113.208C78.8857 112.177 79.3311 110.943 79.9463 109.508L82.3369 109.851C81.7451 111.315 81.3115 112.52 81.0361 113.463C80.7666 114.406 80.6318 115.191 80.6318 115.818C80.6318 116.17 80.7285 116.442 80.9219 116.636C81.1152 116.829 81.3906 116.926 81.748 116.926C82.3984 116.926 82.9229 116.601 83.3213 115.95C83.7256 115.3 84.0449 114.362 84.2793 113.138L84.1914 117.031H83.6113L83.9541 116.108C83.7666 116.741 83.5615 117.289 83.3389 117.752C83.1162 118.209 82.8174 118.563 82.4424 118.815C82.0674 119.062 81.5576 119.185 80.9131 119.185ZM85.9844 119.088C85.4863 119.088 85.082 119.003 84.7715 118.833C84.4668 118.663 84.2529 118.411 84.1299 118.077C84.0127 117.737 83.9863 117.312 84.0508 116.803L83.9893 114.772L84.8945 109.684H87.3027L86.1953 116.003C86.125 116.413 86.1396 116.694 86.2393 116.847C86.3389 116.999 86.5498 117.075 86.8721 117.075H87.2939L86.9424 119.088H85.9844ZM93.9209 119.176C92.8662 119.176 92.0459 118.93 91.46 118.438C90.8799 117.939 90.5898 117.236 90.5898 116.328C90.5898 116.059 90.5957 115.801 90.6074 115.555C90.625 115.303 90.6543 115.024 90.6953 114.72C90.7363 114.409 90.7949 114.028 90.8711 113.577L92.0488 106.871H94.4658L93.2881 113.577C93.1885 114.146 93.1182 114.576 93.0771 114.869C93.042 115.162 93.0244 115.473 93.0244 115.801C93.0244 116.193 93.1299 116.478 93.3408 116.653C93.5518 116.829 93.8887 116.917 94.3516 116.917C94.791 116.917 95.1777 116.888 95.5117 116.829C95.8457 116.771 96.2412 116.668 96.6982 116.521L97.1289 118.613C96.6719 118.766 96.1885 118.897 95.6787 119.009C95.1689 119.12 94.583 119.176 93.9209 119.176ZM89.0869 111.872L89.4736 109.684H97.999L97.6123 111.872H89.0869ZM102.007 119.185C101.14 119.185 100.469 118.909 99.9941 118.358C99.5254 117.808 99.291 117.034 99.291 116.038C99.291 115.183 99.4287 114.239 99.7041 113.208C99.9795 112.177 100.425 110.943 101.04 109.508L103.431 109.851C102.839 111.315 102.405 112.52 102.13 113.463C101.86 114.406 101.726 115.191 101.726 115.818C101.726 116.17 101.822 116.442 102.016 116.636C102.209 116.829 102.484 116.926 102.842 116.926C103.492 116.926 104.017 116.601 104.415 115.95C104.819 115.3 105.139 114.362 105.373 113.138L105.285 117.031H104.705L105.048 116.108C104.86 116.741 104.655 117.289 104.433 117.752C104.21 118.209 103.911 118.563 103.536 118.815C103.161 119.062 102.651 119.185 102.007 119.185ZM107.078 119.088C106.58 119.088 106.176 119.003 105.865 118.833C105.561 118.663 105.347 118.411 105.224 118.077C105.106 117.737 105.08 117.312 105.145 116.803L105.083 114.772L105.988 109.684H108.396L107.289 116.003C107.219 116.413 107.233 116.694 107.333 116.847C107.433 116.999 107.644 117.075 107.966 117.075H108.388L108.036 119.088H107.078ZM117.186 119.158C116.289 119.158 115.633 118.962 115.217 118.569C114.801 118.177 114.599 117.567 114.61 116.741C114.616 116.431 114.657 116.073 114.733 115.669C114.81 115.265 114.924 114.793 115.076 114.254L116.166 110.466L117.713 111.828H112.466V109.648L118.829 109.64L117.502 114.166C117.35 114.693 117.235 115.127 117.159 115.467C117.089 115.807 117.051 116.062 117.045 116.231C117.027 116.776 117.338 117.049 117.977 117.049C118.24 117.049 118.469 117.031 118.662 116.996L118.785 119C118.287 119.105 117.754 119.158 117.186 119.158ZM110.752 117.383L109.021 115.95C109.63 115.341 110.113 114.731 110.471 114.122C110.828 113.507 111.083 112.83 111.235 112.092C111.394 111.354 111.473 110.492 111.473 109.508V108.752H113.731V109.49C113.731 110.639 113.635 111.658 113.441 112.549C113.254 113.434 112.943 114.26 112.51 115.027C112.076 115.795 111.49 116.58 110.752 117.383ZM125.166 116.917C125.588 116.917 126.039 116.853 126.52 116.724C127 116.595 127.463 116.413 127.908 116.179L128.515 118.262C127.958 118.59 127.363 118.824 126.73 118.965C126.098 119.105 125.491 119.176 124.911 119.176C123.622 119.176 122.614 118.845 121.888 118.183C121.167 117.515 120.807 116.589 120.807 115.405C120.807 114.222 121.044 113.19 121.519 112.312C121.993 111.427 122.655 110.738 123.505 110.246C124.36 109.754 125.356 109.508 126.493 109.508C127.454 109.508 128.204 109.748 128.743 110.229C129.288 110.709 129.561 111.377 129.561 112.232C129.561 113.363 128.98 114.192 127.82 114.72C126.66 115.247 124.967 115.528 122.74 115.563L122.38 113.894C123.903 113.882 125.09 113.747 125.939 113.489C126.789 113.226 127.214 112.868 127.214 112.417C127.214 112.188 127.114 112.01 126.915 111.881C126.716 111.752 126.435 111.688 126.071 111.688C125.468 111.688 124.938 111.831 124.48 112.118C124.023 112.405 123.666 112.807 123.408 113.322C123.156 113.838 123.027 114.438 123.021 115.124C123.027 115.687 123.218 116.126 123.593 116.442C123.974 116.759 124.498 116.917 125.166 116.917ZM132.109 122.832L133.885 116.768H136.504L134.377 122.832H132.109ZM157.343 119L158.336 113.375C158.43 112.848 158.386 112.449 158.204 112.18C158.028 111.904 157.735 111.767 157.325 111.767C156.985 111.767 156.663 111.852 156.358 112.021C156.06 112.191 155.796 112.479 155.567 112.883C155.345 113.281 155.175 113.823 155.058 114.509L155.479 111.371H155.919C156.106 110.779 156.408 110.322 156.824 110C157.24 109.672 157.768 109.508 158.406 109.508C159.396 109.508 160.091 109.83 160.489 110.475C160.894 111.119 160.984 112.068 160.762 113.322L159.76 119H157.343ZM151.858 119L153.537 109.446C153.637 108.907 153.619 108.515 153.484 108.269C153.355 108.017 153.124 107.891 152.79 107.891C152.679 107.891 152.564 107.899 152.447 107.917C152.33 107.929 152.213 107.952 152.096 107.987L151.841 105.772C152.063 105.72 152.286 105.685 152.509 105.667C152.731 105.644 152.954 105.632 153.177 105.632C154.39 105.632 155.219 105.913 155.664 106.476C156.115 107.038 156.229 107.94 156.007 109.183L154.275 119H151.858ZM166.334 119.176C165.238 119.176 164.383 118.88 163.768 118.288C163.158 117.69 162.854 116.861 162.854 115.801C162.854 113.82 163.311 112.276 164.225 111.169C165.139 110.062 166.41 109.508 168.039 109.508C169.135 109.508 169.987 109.812 170.597 110.422C171.212 111.031 171.52 111.881 171.52 112.971C171.52 114.922 171.062 116.445 170.148 117.541C169.234 118.631 167.963 119.176 166.334 119.176ZM166.756 116.917C167.482 116.917 168.048 116.604 168.452 115.977C168.862 115.344 169.067 114.468 169.067 113.349C169.067 112.851 168.944 112.464 168.698 112.188C168.452 111.907 168.106 111.767 167.661 111.767C166.923 111.767 166.346 112.083 165.93 112.716C165.514 113.343 165.306 114.216 165.306 115.335C165.306 115.833 165.432 116.223 165.684 116.504C165.941 116.779 166.299 116.917 166.756 116.917ZM174.684 123.043H172.267L174.613 109.684H176.767L176.644 111.89L174.684 123.043ZM175.158 119.176C174.789 119.176 174.426 119.158 174.068 119.123C173.711 119.094 173.348 119.053 172.979 119L174.024 116.697C174.347 116.844 174.88 116.917 175.624 116.917C176.468 116.917 177.224 116.744 177.892 116.398C178.565 116.053 179.096 115.584 179.482 114.992C179.869 114.395 180.062 113.721 180.062 112.971C180.062 112.584 179.966 112.288 179.772 112.083C179.579 111.872 179.307 111.767 178.955 111.767C178.562 111.767 178.17 111.898 177.777 112.162C177.391 112.426 177.039 112.839 176.723 113.401C176.406 113.964 176.163 114.693 175.993 115.59L176.345 111.362H177.109L176.749 111.854C176.919 111.104 177.279 110.527 177.83 110.123C178.387 109.713 179.061 109.508 179.852 109.508C180.689 109.508 181.34 109.783 181.803 110.334C182.266 110.879 182.497 111.658 182.497 112.672C182.497 113.598 182.312 114.456 181.943 115.247C181.574 116.038 181.059 116.729 180.396 117.321C179.734 117.907 178.958 118.364 178.067 118.692C177.177 119.015 176.207 119.176 175.158 119.176ZM188.447 116.917C188.869 116.917 189.32 116.853 189.801 116.724C190.281 116.595 190.744 116.413 191.189 116.179L191.796 118.262C191.239 118.59 190.645 118.824 190.012 118.965C189.379 119.105 188.772 119.176 188.192 119.176C186.903 119.176 185.896 118.845 185.169 118.183C184.448 117.515 184.088 116.589 184.088 115.405C184.088 114.222 184.325 113.19 184.8 112.312C185.274 111.427 185.937 110.738 186.786 110.246C187.642 109.754 188.638 109.508 189.774 109.508C190.735 109.508 191.485 109.748 192.024 110.229C192.569 110.709 192.842 111.377 192.842 112.232C192.842 113.363 192.262 114.192 191.102 114.72C189.941 115.247 188.248 115.528 186.021 115.563L185.661 113.894C187.185 113.882 188.371 113.747 189.221 113.489C190.07 113.226 190.495 112.868 190.495 112.417C190.495 112.188 190.396 112.01 190.196 111.881C189.997 111.752 189.716 111.688 189.353 111.688C188.749 111.688 188.219 111.831 187.762 112.118C187.305 112.405 186.947 112.807 186.689 113.322C186.438 113.838 186.309 114.438 186.303 115.124C186.309 115.687 186.499 116.126 186.874 116.442C187.255 116.759 187.779 116.917 188.447 116.917ZM199.249 123.219C197.983 123.219 197.002 122.741 196.305 121.786C195.607 120.831 195.259 119.483 195.259 117.743C195.259 115.177 195.528 112.994 196.067 111.195C196.606 109.391 197.389 108.014 198.414 107.064C199.445 106.115 200.69 105.641 202.149 105.641C202.729 105.641 203.263 105.755 203.749 105.983C204.235 106.206 204.631 106.522 204.936 106.933L203.644 108.717C203.438 108.459 203.181 108.26 202.87 108.119C202.565 107.973 202.234 107.899 201.877 107.899C200.957 107.899 200.172 108.283 199.521 109.051C198.871 109.812 198.373 110.92 198.027 112.373C197.688 113.826 197.518 115.587 197.518 117.655C197.518 118.704 197.676 119.516 197.992 120.09C198.314 120.67 198.76 120.96 199.328 120.96C199.984 120.96 200.312 120.564 200.312 119.773C200.312 119.246 200.157 118.701 199.847 118.139C199.542 117.576 199.111 117.046 198.555 116.548L200.444 115.106C201.112 115.751 201.634 116.475 202.009 117.277C202.384 118.08 202.571 118.883 202.571 119.686C202.571 122.041 201.464 123.219 199.249 123.219ZM194.187 113.647L194.573 111.468H202.87L202.483 113.647H194.187ZM207.476 119.185C206.608 119.185 205.938 118.909 205.463 118.358C204.994 117.808 204.76 117.034 204.76 116.038C204.76 115.183 204.897 114.239 205.173 113.208C205.448 112.177 205.894 110.943 206.509 109.508L208.899 109.851C208.308 111.315 207.874 112.52 207.599 113.463C207.329 114.406 207.194 115.191 207.194 115.818C207.194 116.17 207.291 116.442 207.484 116.636C207.678 116.829 207.953 116.926 208.311 116.926C208.961 116.926 209.485 116.601 209.884 115.95C210.288 115.3 210.607 114.362 210.842 113.138L210.754 117.031H210.174L210.517 116.108C210.329 116.741 210.124 117.289 209.901 117.752C209.679 118.209 209.38 118.563 209.005 118.815C208.63 119.062 208.12 119.185 207.476 119.185ZM212.547 119.088C212.049 119.088 211.645 119.003 211.334 118.833C211.029 118.663 210.815 118.411 210.692 118.077C210.575 117.737 210.549 117.312 210.613 116.803L210.552 114.772L211.457 109.684H213.865L212.758 116.003C212.688 116.413 212.702 116.694 212.802 116.847C212.901 116.999 213.112 117.075 213.435 117.075H213.856L213.505 119.088H212.547ZM223.542 116.601L224.008 118.78C223.539 118.921 223.114 119.021 222.733 119.079C222.353 119.144 221.978 119.176 221.608 119.176C219.944 119.176 218.737 118.675 217.987 117.673C217.243 116.665 216.871 115.048 216.871 112.821C216.871 111.374 217.073 110.114 217.478 109.042C217.888 107.964 218.462 107.129 219.2 106.537C219.938 105.939 220.8 105.641 221.784 105.641C222.575 105.641 223.208 105.913 223.683 106.458C224.163 107.003 224.403 107.729 224.403 108.638C224.403 110.126 224.034 111.491 223.296 112.733C222.563 113.97 221.515 115.036 220.149 115.933C218.784 116.829 217.155 117.512 215.263 117.98L214.744 115.968C216.238 115.616 217.524 115.095 218.603 114.403C219.687 113.706 220.521 112.874 221.107 111.907C221.693 110.94 221.986 109.874 221.986 108.708C221.98 108.433 221.925 108.23 221.819 108.102C221.714 107.967 221.553 107.899 221.336 107.899C220.879 107.899 220.48 108.107 220.141 108.523C219.801 108.939 219.537 109.522 219.35 110.272C219.162 111.022 219.068 111.901 219.068 112.909C219.068 114.315 219.271 115.335 219.675 115.968C220.085 116.601 220.744 116.917 221.652 116.917C221.998 116.917 222.32 116.894 222.619 116.847C222.918 116.794 223.226 116.712 223.542 116.601ZM234.089 116.601L234.555 118.78C234.086 118.921 233.661 119.021 233.28 119.079C232.899 119.144 232.524 119.176 232.155 119.176C230.491 119.176 229.284 118.675 228.534 117.673C227.79 116.665 227.418 115.048 227.418 112.821C227.418 111.374 227.62 110.114 228.024 109.042C228.435 107.964 229.009 107.129 229.747 106.537C230.485 105.939 231.347 105.641 232.331 105.641C233.122 105.641 233.755 105.913 234.229 106.458C234.71 107.003 234.95 107.729 234.95 108.638C234.95 110.126 234.581 111.491 233.843 112.733C233.11 113.97 232.062 115.036 230.696 115.933C229.331 116.829 227.702 117.512 225.81 117.98L225.291 115.968C226.785 115.616 228.071 115.095 229.149 114.403C230.233 113.706 231.068 112.874 231.654 111.907C232.24 110.94 232.533 109.874 232.533 108.708C232.527 108.433 232.472 108.23 232.366 108.102C232.261 107.967 232.1 107.899 231.883 107.899C231.426 107.899 231.027 108.107 230.688 108.523C230.348 108.939 230.084 109.522 229.896 110.272C229.709 111.022 229.615 111.901 229.615 112.909C229.615 114.315 229.817 115.335 230.222 115.968C230.632 116.601 231.291 116.917 232.199 116.917C232.545 116.917 232.867 116.894 233.166 116.847C233.465 116.794 233.772 116.712 234.089 116.601ZM235.776 123.148L234.722 121.083C236.081 120.544 237.262 119.92 238.264 119.211C239.271 118.508 240.13 117.696 240.839 116.776C241.548 115.856 242.131 114.811 242.588 113.639C243.045 112.467 243.405 111.148 243.669 109.684H246.104C245.658 112.021 245.002 114.049 244.135 115.766C243.268 117.477 242.148 118.933 240.777 120.134C239.412 121.335 237.745 122.34 235.776 123.148ZM238.8 109.508C239.626 112.912 240.725 115.487 242.096 117.233L240.101 118.464C239.362 117.368 238.686 116.094 238.07 114.641C237.455 113.182 236.887 111.529 236.365 109.684L238.8 109.508ZM250.999 119.176C250.554 119.176 250.176 119.021 249.865 118.71C249.555 118.394 249.399 118.016 249.399 117.576C249.399 117.131 249.555 116.753 249.865 116.442C250.176 116.132 250.554 115.977 250.999 115.977C251.444 115.977 251.822 116.132 252.133 116.442C252.443 116.753 252.599 117.131 252.599 117.576C252.599 118.016 252.443 118.394 252.133 118.71C251.822 119.021 251.444 119.176 250.999 119.176ZM68.9688 162.881L71.834 146.639H74.1543L71.2891 162.881H68.9688ZM71.1133 162.881L71.5088 160.666H75.1562L74.7607 162.881H71.1133ZM73.583 148.854L73.9785 146.639H77.626L77.2305 148.854H73.583ZM81.291 161.176C80.5938 161.176 79.9609 161.138 79.3926 161.062C78.8242 160.985 78.3262 160.883 77.8984 160.754L78.6104 158.521C78.9502 158.615 79.3311 158.712 79.7529 158.812C80.1807 158.911 80.7344 158.961 81.4141 158.961C81.9883 158.961 82.4863 158.891 82.9082 158.75C83.3359 158.604 83.667 158.401 83.9014 158.144C84.1416 157.88 84.2617 157.572 84.2617 157.221C84.2617 156.758 84.0625 156.406 83.6641 156.166C83.2656 155.926 82.6973 155.791 81.959 155.762L81.0537 155.727L81.0098 153.723L83.6992 154.461C84.6133 154.59 85.3428 154.88 85.8877 155.331C86.4326 155.782 86.7051 156.424 86.7051 157.256C86.7051 158.047 86.4795 158.738 86.0283 159.33C85.583 159.916 84.9561 160.37 84.1475 160.692C83.3389 161.015 82.3867 161.176 81.291 161.176ZM81.0537 155.727L81.0098 153.723C82.3574 153.588 83.3828 153.339 84.0859 152.976C84.7949 152.606 85.1494 152.141 85.1494 151.578C85.1494 151.256 85.041 151.007 84.8242 150.831C84.6133 150.649 84.3057 150.559 83.9014 150.559C83.4385 150.559 82.9199 150.655 82.3457 150.849C81.7773 151.042 81.2119 151.338 80.6494 151.736L79.2959 150.181C80.0049 149.536 80.7754 149.07 81.6074 148.783C82.4395 148.49 83.333 148.344 84.2881 148.344C85.3545 148.344 86.1719 148.566 86.7402 149.012C87.3086 149.451 87.5928 150.087 87.5928 150.919C87.5928 151.698 87.3262 152.407 86.793 153.046C86.2598 153.685 85.4922 154.115 84.4902 154.338V155.727H81.0537ZM92.0488 162.881L94.9141 146.639H97.2344L94.3691 162.881H92.0488ZM88.5684 162.881L88.9639 160.666H92.6201L92.2246 162.881H88.5684ZM91.0381 148.854L91.4336 146.639H95.0898L94.6943 148.854H91.0381ZM99.1504 161L100.794 151.684H102.877L102.815 153.907L101.567 161H99.1504ZM104.617 161L105.61 155.375C105.704 154.848 105.66 154.449 105.479 154.18C105.297 153.904 105.001 153.767 104.591 153.767C104.257 153.767 103.94 153.852 103.642 154.021C103.343 154.191 103.082 154.479 102.859 154.883C102.637 155.281 102.47 155.823 102.358 156.509L102.78 153.371H103.088C103.287 152.779 103.604 152.322 104.037 152C104.471 151.672 105.016 151.508 105.672 151.508C106.668 151.508 107.365 151.83 107.764 152.475C108.168 153.119 108.259 154.068 108.036 155.322L107.034 161H104.617ZM115.674 150.427C115.223 150.427 114.856 150.286 114.575 150.005C114.294 149.724 114.153 149.357 114.153 148.906C114.153 148.455 114.294 148.089 114.575 147.808C114.856 147.526 115.223 147.386 115.674 147.386C116.125 147.386 116.491 147.526 116.772 147.808C117.054 148.089 117.194 148.455 117.194 148.906C117.194 149.357 117.054 149.724 116.772 150.005C116.491 150.286 116.125 150.427 115.674 150.427ZM117.678 158.434L118.284 160.438C117.927 160.643 117.549 160.818 117.15 160.965C116.752 161.105 116.295 161.176 115.779 161.176C114.654 161.176 113.819 160.927 113.274 160.429C112.735 159.931 112.495 159.201 112.554 158.24C112.583 157.824 112.65 157.417 112.756 157.019C112.867 156.62 112.987 156.233 113.116 155.858C113.251 155.483 113.359 155.126 113.441 154.786C113.529 154.446 113.494 154.191 113.336 154.021C113.178 153.846 112.902 153.758 112.51 153.758C111.953 153.758 111.417 153.825 110.901 153.96L110.717 151.745C111.062 151.646 111.408 151.581 111.754 151.552C112.1 151.517 112.445 151.499 112.791 151.499C114.08 151.499 114.979 151.777 115.489 152.334C116.005 152.885 116.131 153.702 115.867 154.786C115.779 155.167 115.671 155.524 115.542 155.858C115.419 156.187 115.305 156.515 115.199 156.843C115.1 157.171 115.035 157.522 115.006 157.897C114.959 158.577 115.331 158.917 116.122 158.917C116.415 158.917 116.67 158.882 116.887 158.812C117.109 158.735 117.373 158.609 117.678 158.434ZM125.562 161.176C124.507 161.176 123.687 160.93 123.101 160.438C122.521 159.939 122.23 159.236 122.23 158.328C122.23 158.059 122.236 157.801 122.248 157.555C122.266 157.303 122.295 157.024 122.336 156.72C122.377 156.409 122.436 156.028 122.512 155.577L123.689 148.871H126.106L124.929 155.577C124.829 156.146 124.759 156.576 124.718 156.869C124.683 157.162 124.665 157.473 124.665 157.801C124.665 158.193 124.771 158.478 124.981 158.653C125.192 158.829 125.529 158.917 125.992 158.917C126.432 158.917 126.818 158.888 127.152 158.829C127.486 158.771 127.882 158.668 128.339 158.521L128.77 160.613C128.312 160.766 127.829 160.897 127.319 161.009C126.81 161.12 126.224 161.176 125.562 161.176ZM120.728 153.872L121.114 151.684H129.64L129.253 153.872H120.728ZM130.308 165.148L129.253 163.083C130.612 162.544 131.793 161.92 132.795 161.211C133.803 160.508 134.661 159.696 135.37 158.776C136.079 157.856 136.662 156.811 137.119 155.639C137.576 154.467 137.937 153.148 138.2 151.684H140.635C140.189 154.021 139.533 156.049 138.666 157.766C137.799 159.477 136.68 160.933 135.309 162.134C133.943 163.335 132.276 164.34 130.308 165.148ZM133.331 151.508C134.157 154.912 135.256 157.487 136.627 159.233L134.632 160.464C133.894 159.368 133.217 158.094 132.602 156.641C131.986 155.182 131.418 153.529 130.896 151.684L133.331 151.508ZM145.53 161.176C145.085 161.176 144.707 161.021 144.396 160.71C144.086 160.394 143.931 160.016 143.931 159.576C143.931 159.131 144.086 158.753 144.396 158.442C144.707 158.132 145.085 157.977 145.53 157.977C145.976 157.977 146.354 158.132 146.664 158.442C146.975 158.753 147.13 159.131 147.13 159.576C147.13 160.016 146.975 160.394 146.664 160.71C146.354 161.021 145.976 161.176 145.53 161.176Z" fill="#0A516D"/>
<path d="M736 480V224L480 480H736Z" fill="#F8B500"/>
<path fill-rule="evenodd" clip-rule="evenodd" d="M662.261 357.474L619.343 352L617.476 367.521L643.746 370.872L629 381.545L628.838 381.325L616.735 390.778L641.085 423.825L604.536 420.035L603.013 435.596L643.829 439.828L639.474 459.526L654.286 462.996L662.856 424.229L683.528 465L696.994 457.763L696.895 457.567L709 400.705L694.161 397.356L685.943 435.964L665.473 395.593L652.007 402.83L650.317 410.476L638.187 394.013L670.994 370.269L662.26 357.478L662.261 357.474ZM600.545 414.17C605.264 414.17 609.09 410.231 609.09 405.372C609.09 400.513 605.264 396.574 600.545 396.574C595.826 396.574 592 400.513 592 405.372C592 410.231 595.826 414.17 600.545 414.17Z" fill="#A64452"/>
</g>
<defs>
<clipPath id="clip0_10:6">
<rect width="720" height="480" fill="white"/>
</clipPath>
<clipPath id="clip1_10:6">
<rect width="80" height="80" fill="white"/>
</clipPath>
<clipPath id="clip2_10:6">
<rect width="80" height="80" fill="white" transform="translate(80)"/>
</clipPath>
<clipPath id="clip3_10:6">
<rect width="80" height="80" fill="white" transform="translate(160)"/>
</clipPath>
<clipPath id="clip4_10:6">
<rect width="80" height="80" fill="white" transform="translate(240)"/>
</clipPath>
<clipPath id="clip5_10:6">
<rect width="80" height="80" fill="white" transform="translate(320)"/>
</clipPath>
<clipPath id="clip6_10:6">
<rect width="80" height="80" fill="white" transform="translate(400)"/>
</clipPath>
<clipPath id="clip7_10:6">
<rect width="80" height="80" fill="white" transform="translate(480)"/>
</clipPath>
<clipPath id="clip8_10:6">
<rect width="80" height="80" fill="white" transform="translate(560)"/>
</clipPath>
<clipPath id="clip9_10:6">
<rect width="80" height="80" fill="white" transform="translate(640)"/>
</clipPath>
<clipPath id="clip10_10:6">
<rect width="80" height="80" fill="white" transform="translate(0 80)"/>
</clipPath>
<clipPath id="clip11_10:6">
<rect width="80" height="80" fill="white" transform="translate(0 160)"/>
</clipPath>
<clipPath id="clip12_10:6">
<rect width="80" height="80" fill="white" transform="translate(0 240)"/>
</clipPath>
<clipPath id="clip13_10:6">
<rect width="80" height="80" fill="white" transform="translate(0 320)"/>
</clipPath>
<clipPath id="clip14_10:6">
<rect width="80" height="80" fill="white" transform="translate(0 400)"/>
</clipPath>
<clipPath id="clip15_10:6">
<rect width="80" height="80" fill="white" transform="translate(80 80)"/>
</clipPath>
<clipPath id="clip16_10:6">
<rect width="80" height="80" fill="white" transform="translate(80 160)"/>
</clipPath>
<clipPath id="clip17_10:6">
<rect width="80" height="80" fill="white" transform="translate(80 240)"/>
</clipPath>
<clipPath id="clip18_10:6">
<rect width="80" height="80" fill="white" transform="translate(80 320)"/>
</clipPath>
<clipPath id="clip19_10:6">
<rect width="80" height="80" fill="white" transform="translate(80 400)"/>
</clipPath>
<clipPath id="clip20_10:6">
<rect width="80" height="80" fill="white" transform="translate(160 80)"/>
</clipPath>
<clipPath id="clip21_10:6">
<rect width="80" height="80" fill="white" transform="translate(160 160)"/>
</clipPath>
<clipPath id="clip22_10:6">
<rect width="80" height="80" fill="white" transform="translate(160 240)"/>
</clipPath>
<clipPath id="clip23_10:6">
<rect width="80" height="80" fill="white" transform="translate(160 320)"/>
</clipPath>
<clipPath id="clip24_10:6">
<rect width="80" height="80" fill="white" transform="translate(160 400)"/>
</clipPath>
<clipPath id="clip25_10:6">
<rect width="80" height="80" fill="white" transform="translate(240 80)"/>
</clipPath>
<clipPath id="clip26_10:6">
<rect width="80" height="80" fill="white" transform="translate(240 160)"/>
</clipPath>
<clipPath id="clip27_10:6">
<rect width="80" height="80" fill="white" transform="translate(240 240)"/>
</clipPath>
<clipPath id="clip28_10:6">
<rect width="80" height="80" fill="white" transform="translate(240 320)"/>
</clipPath>
<clipPath id="clip29_10:6">
<rect width="80" height="80" fill="white" transform="translate(240 400)"/>
</clipPath>
<clipPath id="clip30_10:6">
<rect width="80" height="80" fill="white" transform="translate(320 80)"/>
</clipPath>
<clipPath id="clip31_10:6">
<rect width="80" height="80" fill="white" transform="translate(320 160)"/>
</clipPath>
<clipPath id="clip32_10:6">
<rect width="80" height="80" fill="white" transform="translate(320 240)"/>
</clipPath>
<clipPath id="clip33_10:6">
<rect width="80" height="80" fill="white" transform="translate(320 320)"/>
</clipPath>
<clipPath id="clip34_10:6">
<rect width="80" height="80" fill="white" transform="translate(320 400)"/>
</clipPath>
<clipPath id="clip35_10:6">
<rect width="80" height="80" fill="white" transform="translate(400 80)"/>
</clipPath>
<clipPath id="clip36_10:6">
<rect width="80" height="80" fill="white" transform="translate(400 160)"/>
</clipPath>
<clipPath id="clip37_10:6">
<rect width="80" height="80" fill="white" transform="translate(400 240)"/>
</clipPath>
<clipPath id="clip38_10:6">
<rect width="80" height="80" fill="white" transform="translate(400 320)"/>
</clipPath>
<clipPath id="clip39_10:6">
<rect width="80" height="80" fill="white" transform="translate(400 400)"/>
</clipPath>
<clipPath id="clip40_10:6">
<rect width="80" height="80" fill="white" transform="translate(480 80)"/>
</clipPath>
<clipPath id="clip41_10:6">
<rect width="80" height="80" fill="white" transform="translate(480 160)"/>
</clipPath>
<clipPath id="clip42_10:6">
<rect width="80" height="80" fill="white" transform="translate(480 240)"/>
</clipPath>
<clipPath id="clip43_10:6">
<rect width="80" height="80" fill="white" transform="translate(480 320)"/>
</clipPath>
<clipPath id="clip44_10:6">
<rect width="80" height="80" fill="white" transform="translate(480 400)"/>
</clipPath>
<clipPath id="clip45_10:6">
<rect width="80" height="80" fill="white" transform="translate(560 80)"/>
</clipPath>
<clipPath id="clip46_10:6">
<rect width="80" height="80" fill="white" transform="translate(560 160)"/>
</clipPath>
<clipPath id="clip47_10:6">
<rect width="80" height="80" fill="white" transform="translate(560 240)"/>
</clipPath>
<clipPath id="clip48_10:6">
<rect width="80" height="80" fill="white" transform="translate(560 320)"/>
</clipPath>
<clipPath id="clip49_10:6">
<rect width="80" height="80" fill="white" transform="translate(560 400)"/>
</clipPath>
<clipPath id="clip50_10:6">
<rect width="80" height="80" fill="white" transform="translate(640 80)"/>
</clipPath>
<clipPath id="clip51_10:6">
<rect width="80" height="80" fill="white" transform="translate(640 160)"/>
</clipPath>
<clipPath id="clip52_10:6">
<rect width="80" height="80" fill="white" transform="translate(640 240)"/>
</clipPath>
<clipPath id="clip53_10:6">
<rect width="80" height="80" fill="white" transform="translate(640 320)"/>
</clipPath>
<clipPath id="clip54_10:6">
<rect width="80" height="80" fill="white" transform="translate(640 400)"/>
</clipPath>
</defs>
</svg>
