<svg width="350" height="170" viewBox="0 0 350 170" fill="none" xmlns="http://www.w3.org/2000/svg">
<rect x="30" y="30" width="50" height="10" fill="#F4F4F4"/>
<rect x="70" y="30" width="10" height="30" fill="#F4F4F4"/>
<rect x="30" y="50" width="50" height="10" fill="#F4F4F4"/>
<rect x="30" y="30" width="10" height="70" fill="#F4F4F4"/>
<rect x="10" y="10" width="330" height="10" fill="#1A1C20"/>
<rect x="10" y="150" width="330" height="10" fill="#1A1C20"/>
<rect x="110" y="70" width="10" height="10" fill="#F4F4F4"/>
<rect x="90" y="30" width="50" height="10" fill="#F4F4F4"/>
<rect x="270" y="30" width="50" height="10" fill="#F4F4F4"/>
<rect x="150" y="30" width="110" height="10" fill="#F4F4F4"/>
<rect x="130" y="30" width="10" height="30" fill="#F4F4F4"/>
<rect x="150" y="30" width="10" height="30" fill="#F4F4F4"/>
<rect x="90" y="50" width="50" height="10" fill="#F4F4F4"/>
<rect x="150" y="50" width="30" height="10" fill="#F4F4F4"/>
<rect x="210" y="50" width="50" height="10" fill="#F4F4F4"/>
<rect x="270" y="50" width="50" height="10" fill="#F4F4F4"/>
<rect x="210" y="70" width="50" height="10" fill="#F4F4F4"/>
<rect x="270" y="70" width="30" height="10" fill="#F4F4F4"/>
<rect x="90" y="50" width="10" height="30" fill="#F4F4F4"/>
<rect x="110" y="50" width="10" height="30" fill="#F4F4F4"/>
<rect x="190" y="50" width="10" height="30" fill="#F4F4F4"/>
<rect x="270" y="30" width="10" height="50" fill="#F4F4F4"/>
<rect x="310" y="30" width="10" height="110" fill="#F4F4F4"/>
<rect x="330" y="10" width="10" height="150" fill="#1A1C20"/>
<rect x="10" y="10" width="10" height="150" fill="#1A1C20"/>
<rect x="230" y="30" width="10" height="50" fill="#F4F4F4"/>
<rect x="170" y="30" width="10" height="30" fill="#F4F4F4"/>
<rect x="110" y="70" width="70" height="10" fill="#F4F4F4"/>
<rect x="30" y="90" width="110" height="10" fill="#F4F4F4"/>
<rect x="30" y="90" width="110" height="10" fill="#F4F4F4"/>
<rect x="30" y="110" width="50" height="10" fill="#F4F4F4"/>
<rect x="30" y="110" width="10" height="30" fill="#F4F4F4"/>
<rect x="290" y="130" width="10" height="10" fill="#1A1C20"/>
<rect x="70" y="100" width="10" height="20" fill="#F4F4F4"/>
<rect x="110" y="130" width="10" height="10" fill="#F4F4F4"/>
<rect x="90" y="90" width="50" height="10" fill="#F4F4F4"/>
<rect x="270" y="90" width="30" height="10" fill="#F4F4F4"/>
<rect x="150" y="90" width="110" height="10" fill="#F4F4F4"/>
<rect x="170" y="110" width="10" height="10" fill="#1A1C20"/>
<rect x="50" y="130" width="10" height="10" fill="#1A1C20"/>
<rect x="50" y="70" width="10" height="10" fill="#1A1C20"/>
<rect x="70" y="70" width="10" height="10" fill="#1A1C20"/>
<rect x="130" y="90" width="10" height="30" fill="#F4F4F4"/>
<rect x="150" y="90" width="10" height="50" fill="#F4F4F4"/>
<rect x="90" y="110" width="50" height="10" fill="#F4F4F4"/>
<rect x="70" y="130" width="30" height="10" fill="#F4F4F4"/>
<rect x="90" y="110" width="10" height="30" fill="#F4F4F4"/>
<rect x="150" y="130" width="50" height="10" fill="#F4F4F4"/>
<rect x="190" y="110" width="130" height="10" fill="#F4F4F4"/>
<rect x="230" y="130" width="50" height="10" fill="#F4F4F4"/>
<rect x="110" y="110" width="10" height="30" fill="#F4F4F4"/>
<rect x="210" y="110" width="10" height="30" fill="#F4F4F4"/>
<rect x="270" y="90" width="10" height="50" fill="#F4F4F4"/>
<rect x="190" y="110" width="10" height="30" fill="#F4F4F4"/>
<rect x="110" y="130" width="30" height="10" fill="#F4F4F4"/>
</svg>
