<svg width="796" height="289" viewBox="0 0 796 289" fill="none" xmlns="http://www.w3.org/2000/svg">
<rect width="796" height="289" fill="#E79E4F"/>
<path d="M204.562 84L212.375 39.625H220.688L212.875 84H204.562ZM208.656 73.6875L209.688 65.8125H213.188C219.542 65.8125 224.344 64.8229 227.594 62.8438C230.865 60.8646 232.5 57.9375 232.5 54.0625C232.5 51.7083 231.625 49.9271 229.875 48.7188C228.125 47.4896 225.542 46.875 222.125 46.875C217.667 46.875 214.073 47.0833 211.344 47.5L212.375 39.625C214.771 39.2083 217.948 39 221.906 39C228.24 39 233.031 40.1875 236.281 42.5625C239.531 44.9375 241.156 48.4271 241.156 53.0312C241.156 59.8021 238.708 64.9375 233.812 68.4375C228.917 71.9375 221.698 73.6875 212.156 73.6875H208.656ZM268.938 84.5625C265.75 84.5625 263.417 83.8646 261.938 82.4688C260.458 81.0729 259.74 78.9062 259.781 75.9688C259.802 74.8646 259.948 73.5938 260.219 72.1562C260.49 70.7188 260.896 69.0417 261.438 67.125L265.312 53.6562L270.812 58.5H252.156V50.75L274.781 50.7188L270.062 66.8125C269.521 68.6875 269.115 70.2292 268.844 71.4375C268.594 72.6458 268.458 73.5521 268.438 74.1562C268.375 76.0938 269.479 77.0625 271.75 77.0625C272.688 77.0625 273.5 77 274.188 76.875L274.625 84C272.854 84.375 270.958 84.5625 268.938 84.5625ZM246.062 78.25L239.906 73.1562C242.073 70.9896 243.792 68.8229 245.062 66.6562C246.333 64.4688 247.24 62.0625 247.781 59.4375C248.344 56.8125 248.625 53.75 248.625 50.25V47.5625H256.656V50.1875C256.656 54.2708 256.312 57.8958 255.625 61.0625C254.958 64.2083 253.854 67.1458 252.312 69.875C250.771 72.6042 248.688 75.3958 246.062 78.25ZM293.688 84.625C289.792 84.625 286.75 83.5729 284.562 81.4688C282.396 79.3438 281.312 76.3958 281.312 72.625C281.312 65.5833 282.938 60.0938 286.188 56.1562C289.438 52.2188 293.958 50.25 299.75 50.25C303.646 50.25 306.677 51.3333 308.844 53.5C311.031 55.6667 312.125 58.6875 312.125 62.5625C312.125 69.5 310.5 74.9167 307.25 78.8125C304 82.6875 299.479 84.625 293.688 84.625ZM295.188 76.5938C297.771 76.5938 299.781 75.4792 301.219 73.25C302.677 71 303.406 67.8854 303.406 63.9062C303.406 62.1354 302.969 60.7604 302.094 59.7812C301.219 58.7812 299.99 58.2812 298.406 58.2812C295.781 58.2812 293.729 59.4062 292.25 61.6562C290.771 63.8854 290.031 66.9896 290.031 70.9688C290.031 72.7396 290.479 74.125 291.375 75.125C292.292 76.1042 293.562 76.5938 295.188 76.5938ZM336.219 84.625C332.469 84.625 329.552 83.75 327.469 82C325.406 80.2292 324.375 77.7292 324.375 74.5C324.375 73.5417 324.396 72.625 324.438 71.75C324.5 70.8542 324.604 69.8646 324.75 68.7812C324.896 67.6771 325.104 66.3229 325.375 64.7188L329.562 40.875H338.156L333.969 64.7188C333.615 66.7396 333.365 68.2708 333.219 69.3125C333.094 70.3542 333.031 71.4583 333.031 72.625C333.031 74.0208 333.406 75.0312 334.156 75.6562C334.906 76.2812 336.104 76.5938 337.75 76.5938C339.312 76.5938 340.688 76.4896 341.875 76.2812C343.062 76.0729 344.469 75.7083 346.094 75.1875L347.625 82.625C346 83.1667 344.281 83.6354 342.469 84.0312C340.656 84.4271 338.573 84.625 336.219 84.625ZM319.031 58.6562L320.406 50.875H350.719L349.344 58.6562H319.031ZM372.312 76.5938C373.812 76.5938 375.417 76.3646 377.125 75.9062C378.833 75.4479 380.479 74.8021 382.062 73.9688L384.219 81.375C382.24 82.5417 380.125 83.375 377.875 83.875C375.625 84.375 373.469 84.625 371.406 84.625C366.823 84.625 363.24 83.4479 360.656 81.0938C358.094 78.7188 356.812 75.4271 356.812 71.2188C356.812 67.0104 357.656 63.3438 359.344 60.2188C361.031 57.0729 363.385 54.625 366.406 52.875C369.448 51.125 372.99 50.25 377.031 50.25C380.448 50.25 383.115 51.1042 385.031 52.8125C386.969 54.5208 387.938 56.8958 387.938 59.9375C387.938 63.9583 385.875 66.9062 381.75 68.7812C377.625 70.6562 371.604 71.6562 363.688 71.7812L362.406 65.8438C367.823 65.8021 372.042 65.3229 375.062 64.4062C378.083 63.4688 379.594 62.1979 379.594 60.5938C379.594 59.7812 379.24 59.1458 378.531 58.6875C377.823 58.2292 376.823 58 375.531 58C373.385 58 371.5 58.5104 369.875 59.5312C368.25 60.5521 366.979 61.9792 366.062 63.8125C365.167 65.6458 364.708 67.7812 364.688 70.2188C364.708 72.2188 365.385 73.7812 366.719 74.9062C368.073 76.0312 369.938 76.5938 372.312 76.5938ZM401.312 84.6562C398.188 84.6562 395.771 83.8438 394.062 82.2188C392.354 80.5938 391.5 78.3021 391.5 75.3438C391.5 71.5938 392.333 68.1979 394 65.1562C395.667 62.0938 398 59.4792 401 57.3125C404.021 55.1458 407.552 53.4792 411.594 52.3125C415.635 51.1458 420.031 50.5625 424.781 50.5625H425.562L421.594 73.3438C421.344 74.8021 421.49 75.8021 422.031 76.3438C422.573 76.8854 423.698 77.1562 425.406 77.1562H426.906L425.656 84.3125H422.25C419.979 84.3125 418.229 84.0729 417 83.5938C415.792 83.0938 414.958 82.4479 414.5 81.6562C414.042 80.8438 413.802 79.9688 413.781 79.0312C413.781 78.0729 413.844 77.125 413.969 76.1875L416.031 77H412.406L414.375 72.7812C413.292 76.5521 411.604 79.4792 409.312 81.5625C407.021 83.625 404.354 84.6562 401.312 84.6562ZM403.344 76.625C406.073 76.625 408.469 75.4583 410.531 73.125C412.615 70.7708 414.031 67.4479 414.781 63.1562L416.375 54.0938L419.375 58.5938C416.688 58.6979 414.177 59.1562 411.844 59.9688C409.51 60.7604 407.469 61.8333 405.719 63.1875C403.969 64.5208 402.604 66.0833 401.625 67.875C400.646 69.6458 400.156 71.5625 400.156 73.625C400.156 74.6458 400.417 75.4062 400.938 75.9062C401.458 76.3854 402.26 76.625 403.344 76.625ZM201.477 140L216.922 106.695H224.633C224.977 108.914 225.297 111.133 225.594 113.352C225.891 115.57 226.172 117.789 226.438 120.008C226.703 122.227 226.945 124.453 227.164 126.688C227.383 128.906 227.586 131.125 227.773 133.344C227.961 135.562 228.133 137.781 228.289 140H221.961C221.883 138.266 221.789 136.531 221.68 134.797C221.57 133.047 221.445 131.305 221.305 129.57C221.18 127.836 221.039 126.102 220.883 124.367C220.742 122.617 220.594 120.875 220.438 119.141C220.281 117.391 220.117 115.648 219.945 113.914H219.195L207.805 140H201.477ZM207.523 133.695L208.32 127.977H225.195L224.398 133.695H207.523ZM260.422 140L266.281 106.719H272.516L266.656 140H260.422ZM260.422 140L261.43 134.281H284.258L283.25 140H260.422ZM295.484 140.492C293.141 140.492 291.328 139.883 290.047 138.664C288.766 137.445 288.125 135.727 288.125 133.508C288.125 130.695 288.75 128.148 290 125.867C291.25 123.57 293 121.609 295.25 119.984C297.516 118.359 300.164 117.109 303.195 116.234C306.227 115.359 309.523 114.922 313.086 114.922H313.672L310.695 132.008C310.508 133.102 310.617 133.852 311.023 134.258C311.43 134.664 312.273 134.867 313.555 134.867H314.68L313.742 140.234H311.188C309.484 140.234 308.172 140.055 307.25 139.695C306.344 139.32 305.719 138.836 305.375 138.242C305.031 137.633 304.852 136.977 304.836 136.273C304.836 135.555 304.883 134.844 304.977 134.141L306.523 134.75H303.805L305.281 131.586C304.469 134.414 303.203 136.609 301.484 138.172C299.766 139.719 297.766 140.492 295.484 140.492ZM297.008 134.469C299.055 134.469 300.852 133.594 302.398 131.844C303.961 130.078 305.023 127.586 305.586 124.367L306.781 117.57L309.031 120.945C307.016 121.023 305.133 121.367 303.383 121.977C301.633 122.57 300.102 123.375 298.789 124.391C297.477 125.391 296.453 126.562 295.719 127.906C294.984 129.234 294.617 130.672 294.617 132.219C294.617 132.984 294.812 133.555 295.203 133.93C295.594 134.289 296.195 134.469 297.008 134.469ZM316.859 140L321.242 115.156H326.797L326.633 121.086L323.305 140H316.859ZM331.438 140L334.086 125C334.336 123.594 334.219 122.531 333.734 121.812C333.25 121.078 332.461 120.711 331.367 120.711C330.477 120.711 329.633 120.938 328.836 121.391C328.039 121.844 327.344 122.609 326.75 123.688C326.156 124.75 325.711 126.195 325.414 128.023L326.539 119.656H327.359C327.891 118.078 328.734 116.859 329.891 116C331.047 115.125 332.5 114.688 334.25 114.688C336.906 114.688 338.766 115.547 339.828 117.266C340.906 118.984 341.148 121.516 340.555 124.859L337.883 140H331.438ZM345.008 151.25L344.773 145.742L349.695 145.438C351.492 145.328 353.016 144.992 354.266 144.43C355.516 143.867 356.547 143.148 357.359 142.273C358.188 141.414 358.828 140.445 359.281 139.367C359.734 138.289 360.062 137.18 360.266 136.039L363.383 118.367L370.273 114.922H370.461L366.852 135.289C366.461 137.492 365.883 139.523 365.117 141.383C364.352 143.242 363.305 144.867 361.977 146.258C360.648 147.664 358.945 148.781 356.867 149.609C354.789 150.438 352.242 150.922 349.227 151.062L345.008 151.25ZM365.398 120.992C363.461 121.07 361.656 121.422 359.984 122.047C358.312 122.656 356.844 123.492 355.578 124.555C354.328 125.602 353.352 126.82 352.648 128.211C351.945 129.586 351.594 131.078 351.594 132.688C351.594 133.453 351.797 134.047 352.203 134.469C352.625 134.891 353.211 135.102 353.961 135.102C355.352 135.102 356.602 134.695 357.711 133.883C358.82 133.055 359.766 131.844 360.547 130.25C361.328 128.641 361.922 126.68 362.328 124.367L362.492 123.43L365.445 125.398L362.727 134.82H359.07L360.664 132.523C359.93 135.055 358.75 137.016 357.125 138.406C355.5 139.797 353.547 140.492 351.266 140.492C349.297 140.492 347.773 139.906 346.695 138.734C345.633 137.547 345.102 135.883 345.102 133.742C345.102 130.883 345.727 128.305 346.977 126.008C348.227 123.695 349.977 121.711 352.227 120.055C354.492 118.398 357.133 117.133 360.148 116.258C363.18 115.367 366.469 114.922 370.016 114.922H370.438L365.398 120.992ZM380.727 140.492C378.414 140.492 376.625 139.758 375.359 138.289C374.109 136.82 373.484 134.758 373.484 132.102C373.484 129.82 373.852 127.305 374.586 124.555C375.32 121.805 376.508 118.516 378.148 114.688L384.523 115.602C382.945 119.508 381.789 122.719 381.055 125.234C380.336 127.75 379.977 129.844 379.977 131.516C379.977 132.453 380.234 133.18 380.75 133.695C381.266 134.211 382 134.469 382.953 134.469C384.688 134.469 386.086 133.602 387.148 131.867C388.227 130.133 389.078 127.633 389.703 124.367L389.469 134.75H387.922L388.836 132.289C388.336 133.977 387.789 135.438 387.195 136.672C386.602 137.891 385.805 138.836 384.805 139.508C383.805 140.164 382.445 140.492 380.727 140.492ZM394.25 140.234C392.922 140.234 391.844 140.008 391.016 139.555C390.203 139.102 389.633 138.43 389.305 137.539C388.992 136.633 388.922 135.5 389.094 134.141L388.93 128.727L391.344 115.156H397.766L394.812 132.008C394.625 133.102 394.664 133.852 394.93 134.258C395.195 134.664 395.758 134.867 396.617 134.867H397.742L396.805 140.234H394.25ZM407.984 140.492C405.641 140.492 403.828 139.883 402.547 138.664C401.266 137.445 400.625 135.727 400.625 133.508C400.625 130.695 401.25 128.148 402.5 125.867C403.75 123.57 405.5 121.609 407.75 119.984C410.016 118.359 412.664 117.109 415.695 116.234C418.727 115.359 422.023 114.922 425.586 114.922H426.172L423.195 132.008C423.008 133.102 423.117 133.852 423.523 134.258C423.93 134.664 424.773 134.867 426.055 134.867H427.18L426.242 140.234H423.688C421.984 140.234 420.672 140.055 419.75 139.695C418.844 139.32 418.219 138.836 417.875 138.242C417.531 137.633 417.352 136.977 417.336 136.273C417.336 135.555 417.383 134.844 417.477 134.141L419.023 134.75H416.305L417.781 131.586C416.969 134.414 415.703 136.609 413.984 138.172C412.266 139.719 410.266 140.492 407.984 140.492ZM409.508 134.469C411.555 134.469 413.352 133.594 414.898 131.844C416.461 130.078 417.523 127.586 418.086 124.367L419.281 117.57L421.531 120.945C419.516 121.023 417.633 121.367 415.883 121.977C414.133 122.57 412.602 123.375 411.289 124.391C409.977 125.391 408.953 126.562 408.219 127.906C407.484 129.234 407.117 130.672 407.117 132.219C407.117 132.984 407.312 133.555 407.703 133.93C408.094 134.289 408.695 134.469 409.508 134.469ZM429.383 151.25L429.148 145.742L434.07 145.438C435.867 145.328 437.391 144.992 438.641 144.43C439.891 143.867 440.922 143.148 441.734 142.273C442.562 141.414 443.203 140.445 443.656 139.367C444.109 138.289 444.438 137.18 444.641 136.039L447.758 118.367L454.648 114.922H454.836L451.227 135.289C450.836 137.492 450.258 139.523 449.492 141.383C448.727 143.242 447.68 144.867 446.352 146.258C445.023 147.664 443.32 148.781 441.242 149.609C439.164 150.438 436.617 150.922 433.602 151.062L429.383 151.25ZM449.773 120.992C447.836 121.07 446.031 121.422 444.359 122.047C442.688 122.656 441.219 123.492 439.953 124.555C438.703 125.602 437.727 126.82 437.023 128.211C436.32 129.586 435.969 131.078 435.969 132.688C435.969 133.453 436.172 134.047 436.578 134.469C437 134.891 437.586 135.102 438.336 135.102C439.727 135.102 440.977 134.695 442.086 133.883C443.195 133.055 444.141 131.844 444.922 130.25C445.703 128.641 446.297 126.68 446.703 124.367L446.867 123.43L449.82 125.398L447.102 134.82H443.445L445.039 132.523C444.305 135.055 443.125 137.016 441.5 138.406C439.875 139.797 437.922 140.492 435.641 140.492C433.672 140.492 432.148 139.906 431.07 138.734C430.008 137.547 429.477 135.883 429.477 133.742C429.477 130.883 430.102 128.305 431.352 126.008C432.602 123.695 434.352 121.711 436.602 120.055C438.867 118.398 441.508 117.133 444.523 116.258C447.555 115.367 450.844 114.922 454.391 114.922H454.812L449.773 120.992ZM470.609 134.445C471.734 134.445 472.938 134.273 474.219 133.93C475.5 133.586 476.734 133.102 477.922 132.477L479.539 138.031C478.055 138.906 476.469 139.531 474.781 139.906C473.094 140.281 471.477 140.469 469.93 140.469C466.492 140.469 463.805 139.586 461.867 137.82C459.945 136.039 458.984 133.57 458.984 130.414C458.984 127.258 459.617 124.508 460.883 122.164C462.148 119.805 463.914 117.969 466.18 116.656C468.461 115.344 471.117 114.688 474.148 114.688C476.711 114.688 478.711 115.328 480.148 116.609C481.602 117.891 482.328 119.672 482.328 121.953C482.328 124.969 480.781 127.18 477.688 128.586C474.594 129.992 470.078 130.742 464.141 130.836L463.18 126.383C467.242 126.352 470.406 125.992 472.672 125.305C474.938 124.602 476.07 123.648 476.07 122.445C476.07 121.836 475.805 121.359 475.273 121.016C474.742 120.672 473.992 120.5 473.023 120.5C471.414 120.5 470 120.883 468.781 121.648C467.562 122.414 466.609 123.484 465.922 124.859C465.25 126.234 464.906 127.836 464.891 129.664C464.906 131.164 465.414 132.336 466.414 133.18C467.43 134.023 468.828 134.445 470.609 134.445ZM527.539 151.25C524.164 151.25 521.547 149.977 519.688 147.43C517.828 144.883 516.898 141.289 516.898 136.648C516.898 129.805 517.617 123.984 519.055 119.188C520.492 114.375 522.578 110.703 525.312 108.172C528.062 105.641 531.383 104.375 535.273 104.375C536.82 104.375 538.242 104.68 539.539 105.289C540.836 105.883 541.891 106.727 542.703 107.82L539.258 112.578C538.711 111.891 538.023 111.359 537.195 110.984C536.383 110.594 535.5 110.398 534.547 110.398C532.094 110.398 530 111.422 528.266 113.469C526.531 115.5 525.203 118.453 524.281 122.328C523.375 126.203 522.922 130.898 522.922 136.414C522.922 139.211 523.344 141.375 524.188 142.906C525.047 144.453 526.234 145.227 527.75 145.227C529.5 145.227 530.375 144.172 530.375 142.062C530.375 140.656 529.961 139.203 529.133 137.703C528.32 136.203 527.172 134.789 525.688 133.461L530.727 129.617C532.508 131.336 533.898 133.266 534.898 135.406C535.898 137.547 536.398 139.688 536.398 141.828C536.398 148.109 533.445 151.25 527.539 151.25ZM514.039 125.727L515.07 119.914H537.195L536.164 125.727H514.039ZM552.266 140.469C549.344 140.469 547.062 139.68 545.422 138.102C543.797 136.508 542.984 134.297 542.984 131.469C542.984 126.188 544.203 122.07 546.641 119.117C549.078 116.164 552.469 114.688 556.812 114.688C559.734 114.688 562.008 115.5 563.633 117.125C565.273 118.75 566.094 121.016 566.094 123.922C566.094 129.125 564.875 133.188 562.438 136.109C560 139.016 556.609 140.469 552.266 140.469ZM553.391 134.445C555.328 134.445 556.836 133.609 557.914 131.938C559.008 130.25 559.555 127.914 559.555 124.93C559.555 123.602 559.227 122.57 558.57 121.836C557.914 121.086 556.992 120.711 555.805 120.711C553.836 120.711 552.297 121.555 551.188 123.242C550.078 124.914 549.523 127.242 549.523 130.227C549.523 131.555 549.859 132.594 550.531 133.344C551.219 134.078 552.172 134.445 553.391 134.445ZM589.953 140.422C587.562 140.422 585.812 139.898 584.703 138.852C583.594 137.805 583.055 136.18 583.086 133.977C583.102 133.148 583.211 132.195 583.414 131.117C583.617 130.039 583.922 128.781 584.328 127.344L587.234 117.242L591.359 120.875H577.367V115.062L594.336 115.039L590.797 127.109C590.391 128.516 590.086 129.672 589.883 130.578C589.695 131.484 589.594 132.164 589.578 132.617C589.531 134.07 590.359 134.797 592.062 134.797C592.766 134.797 593.375 134.75 593.891 134.656L594.219 140C592.891 140.281 591.469 140.422 589.953 140.422ZM572.797 135.688L568.18 131.867C569.805 130.242 571.094 128.617 572.047 126.992C573 125.352 573.68 123.547 574.086 121.578C574.508 119.609 574.719 117.312 574.719 114.688V112.672H580.742V114.641C580.742 117.703 580.484 120.422 579.969 122.797C579.469 125.156 578.641 127.359 577.484 129.406C576.328 131.453 574.766 133.547 572.797 135.688ZM217.648 196.469C214.852 196.469 212.516 196 210.641 195.062C208.781 194.109 207.383 192.695 206.445 190.82C205.508 188.93 205.039 186.57 205.039 183.742C205.039 180.57 205.5 177.672 206.422 175.047C207.359 172.422 208.68 170.156 210.383 168.25C212.102 166.344 214.133 164.867 216.477 163.82C218.836 162.773 221.438 162.25 224.281 162.25C227.953 162.25 230.805 163.336 232.836 165.508L229.25 170.781C227.656 169.031 225.773 168.156 223.602 168.156C221.289 168.156 219.227 168.828 217.414 170.172C215.602 171.5 214.172 173.328 213.125 175.656C212.078 177.969 211.555 180.609 211.555 183.578C211.555 185.125 211.836 186.422 212.398 187.469C212.977 188.5 213.836 189.273 214.977 189.789C216.117 190.305 217.531 190.562 219.219 190.562C221.891 190.562 224.609 190.094 227.375 189.156L227.703 194.875C224.406 195.938 221.055 196.469 217.648 196.469ZM252.453 196.422C250.062 196.422 248.312 195.898 247.203 194.852C246.094 193.805 245.555 192.18 245.586 189.977C245.602 189.148 245.711 188.195 245.914 187.117C246.117 186.039 246.422 184.781 246.828 183.344L249.734 173.242L253.859 176.875H239.867V171.062L256.836 171.039L253.297 183.109C252.891 184.516 252.586 185.672 252.383 186.578C252.195 187.484 252.094 188.164 252.078 188.617C252.031 190.07 252.859 190.797 254.562 190.797C255.266 190.797 255.875 190.75 256.391 190.656L256.719 196C255.391 196.281 253.969 196.422 252.453 196.422ZM235.297 191.688L230.68 187.867C232.305 186.242 233.594 184.617 234.547 182.992C235.5 181.352 236.18 179.547 236.586 177.578C237.008 175.609 237.219 173.312 237.219 170.688V168.672H243.242V170.641C243.242 173.703 242.984 176.422 242.469 178.797C241.969 181.156 241.141 183.359 239.984 185.406C238.828 187.453 237.266 189.547 235.297 191.688ZM271.016 196.469C268.094 196.469 265.812 195.68 264.172 194.102C262.547 192.508 261.734 190.297 261.734 187.469C261.734 182.188 262.953 178.07 265.391 175.117C267.828 172.164 271.219 170.688 275.562 170.688C278.484 170.688 280.758 171.5 282.383 173.125C284.023 174.75 284.844 177.016 284.844 179.922C284.844 185.125 283.625 189.188 281.188 192.109C278.75 195.016 275.359 196.469 271.016 196.469ZM272.141 190.445C274.078 190.445 275.586 189.609 276.664 187.938C277.758 186.25 278.305 183.914 278.305 180.93C278.305 179.602 277.977 178.57 277.32 177.836C276.664 177.086 275.742 176.711 274.555 176.711C272.586 176.711 271.047 177.555 269.938 179.242C268.828 180.914 268.273 183.242 268.273 186.227C268.273 187.555 268.609 188.594 269.281 189.344C269.969 190.078 270.922 190.445 272.141 190.445ZM302.141 171.156H304.93L306.078 176.594C305.547 177.078 304.812 177.656 303.875 178.328C302.938 179 301.906 179.711 300.781 180.461C299.656 181.195 298.523 181.914 297.383 182.617C296.242 183.32 295.195 183.945 294.242 184.492C293.305 185.039 292.555 185.453 291.992 185.734L288.828 180.32C289.609 179.867 290.586 179.281 291.758 178.562C292.945 177.828 294.188 177.031 295.484 176.172C296.797 175.297 298.039 174.422 299.211 173.547C300.398 172.672 301.375 171.875 302.141 171.156ZM302.375 174.906L302.164 171.156H308.211C308.773 173.266 309.305 175.055 309.805 176.523C310.32 177.992 310.781 179.281 311.188 180.391C311.594 181.484 311.906 182.523 312.125 183.508C312.359 184.477 312.477 185.523 312.477 186.648C312.492 189.773 311.367 192.195 309.102 193.914C306.852 195.617 303.672 196.469 299.562 196.469C297.75 196.469 296.164 196.328 294.805 196.047C293.461 195.766 292.141 195.289 290.844 194.617L292.578 189.016C293.812 189.516 294.969 189.883 296.047 190.117C297.125 190.336 298.297 190.445 299.562 190.445C301.594 190.445 303.172 190.078 304.297 189.344C305.422 188.594 305.984 187.539 305.984 186.18C305.984 185.305 305.875 184.414 305.656 183.508C305.453 182.586 305.172 181.648 304.812 180.695C304.453 179.742 304.062 178.781 303.641 177.812C303.219 176.844 302.797 175.875 302.375 174.906ZM330.266 171.156H333.055L334.203 176.594C333.672 177.078 332.938 177.656 332 178.328C331.062 179 330.031 179.711 328.906 180.461C327.781 181.195 326.648 181.914 325.508 182.617C324.367 183.32 323.32 183.945 322.367 184.492C321.43 185.039 320.68 185.453 320.117 185.734L316.953 180.32C317.734 179.867 318.711 179.281 319.883 178.562C321.07 177.828 322.312 177.031 323.609 176.172C324.922 175.297 326.164 174.422 327.336 173.547C328.523 172.672 329.5 171.875 330.266 171.156ZM330.5 174.906L330.289 171.156H336.336C336.898 173.266 337.43 175.055 337.93 176.523C338.445 177.992 338.906 179.281 339.312 180.391C339.719 181.484 340.031 182.523 340.25 183.508C340.484 184.477 340.602 185.523 340.602 186.648C340.617 189.773 339.492 192.195 337.227 193.914C334.977 195.617 331.797 196.469 327.688 196.469C325.875 196.469 324.289 196.328 322.93 196.047C321.586 195.766 320.266 195.289 318.969 194.617L320.703 189.016C321.938 189.516 323.094 189.883 324.172 190.117C325.25 190.336 326.422 190.445 327.688 190.445C329.719 190.445 331.297 190.078 332.422 189.344C333.547 188.594 334.109 187.539 334.109 186.18C334.109 185.305 334 184.414 333.781 183.508C333.578 182.586 333.297 181.648 332.938 180.695C332.578 179.742 332.188 178.781 331.766 177.812C331.344 176.844 330.922 175.875 330.5 174.906ZM345.828 182.242L346.812 176.547H371.023L370.039 182.242H345.828ZM372.922 196L378.781 162.719H385.016L379.156 196H372.922ZM375.992 188.266L376.766 182.359H379.391C384.156 182.359 387.758 181.617 390.195 180.133C392.648 178.648 393.875 176.453 393.875 173.547C393.875 171.781 393.219 170.445 391.906 169.539C390.594 168.617 388.656 168.156 386.094 168.156C382.75 168.156 380.055 168.312 378.008 168.625L378.781 162.719C380.578 162.406 382.961 162.25 385.93 162.25C390.68 162.25 394.273 163.141 396.711 164.922C399.148 166.703 400.367 169.32 400.367 172.773C400.367 177.852 398.531 181.703 394.859 184.328C391.188 186.953 385.773 188.266 378.617 188.266H375.992ZM423.57 189.602L424.812 195.414C423.562 195.789 422.43 196.055 421.414 196.211C420.398 196.383 419.398 196.469 418.414 196.469C413.977 196.469 410.758 195.133 408.758 192.461C406.773 189.773 405.781 185.461 405.781 179.523C405.781 175.664 406.32 172.305 407.398 169.445C408.492 166.57 410.023 164.344 411.992 162.766C413.961 161.172 416.258 160.375 418.883 160.375C420.992 160.375 422.68 161.102 423.945 162.555C425.227 164.008 425.867 165.945 425.867 168.367C425.867 172.336 424.883 175.977 422.914 179.289C420.961 182.586 418.164 185.43 414.523 187.82C410.883 190.211 406.539 192.031 401.492 193.281L400.109 187.914C404.094 186.977 407.523 185.586 410.398 183.742C413.289 181.883 415.516 179.664 417.078 177.086C418.641 174.508 419.422 171.664 419.422 168.555C419.406 167.82 419.258 167.281 418.977 166.938C418.695 166.578 418.266 166.398 417.688 166.398C416.469 166.398 415.406 166.953 414.5 168.062C413.594 169.172 412.891 170.727 412.391 172.727C411.891 174.727 411.641 177.07 411.641 179.758C411.641 183.508 412.18 186.227 413.258 187.914C414.352 189.602 416.109 190.445 418.531 190.445C419.453 190.445 420.312 190.383 421.109 190.258C421.906 190.117 422.727 189.898 423.57 189.602ZM436.109 196.492C433.766 196.492 431.953 195.883 430.672 194.664C429.391 193.445 428.75 191.727 428.75 189.508C428.75 186.695 429.375 184.148 430.625 181.867C431.875 179.57 433.625 177.609 435.875 175.984C438.141 174.359 440.789 173.109 443.82 172.234C446.852 171.359 450.148 170.922 453.711 170.922H454.297L451.32 188.008C451.133 189.102 451.242 189.852 451.648 190.258C452.055 190.664 452.898 190.867 454.18 190.867H455.305L454.367 196.234H451.812C450.109 196.234 448.797 196.055 447.875 195.695C446.969 195.32 446.344 194.836 446 194.242C445.656 193.633 445.477 192.977 445.461 192.273C445.461 191.555 445.508 190.844 445.602 190.141L447.148 190.75H444.43L445.906 187.586C445.094 190.414 443.828 192.609 442.109 194.172C440.391 195.719 438.391 196.492 436.109 196.492ZM437.633 190.469C439.68 190.469 441.477 189.594 443.023 187.844C444.586 186.078 445.648 183.586 446.211 180.367L447.406 173.57L449.656 176.945C447.641 177.023 445.758 177.367 444.008 177.977C442.258 178.57 440.727 179.375 439.414 180.391C438.102 181.391 437.078 182.562 436.344 183.906C435.609 185.234 435.242 186.672 435.242 188.219C435.242 188.984 435.438 189.555 435.828 189.93C436.219 190.289 436.82 190.469 437.633 190.469ZM471.664 196.469C468.852 196.469 466.664 195.812 465.102 194.5C463.555 193.172 462.781 191.297 462.781 188.875C462.781 188.156 462.797 187.469 462.828 186.812C462.875 186.141 462.953 185.398 463.062 184.586C463.172 183.758 463.328 182.742 463.531 181.539L466.672 163.656H473.117L469.977 181.539C469.711 183.055 469.523 184.203 469.414 184.984C469.32 185.766 469.273 186.594 469.273 187.469C469.273 188.516 469.555 189.273 470.117 189.742C470.68 190.211 471.578 190.445 472.812 190.445C473.984 190.445 475.016 190.367 475.906 190.211C476.797 190.055 477.852 189.781 479.07 189.391L480.219 194.969C479 195.375 477.711 195.727 476.352 196.023C474.992 196.32 473.43 196.469 471.664 196.469ZM458.773 176.992L459.805 171.156H482.539L481.508 176.992H458.773ZM499.414 207.25C496.039 207.25 493.422 205.977 491.562 203.43C489.703 200.883 488.773 197.289 488.773 192.648C488.773 185.805 489.492 179.984 490.93 175.188C492.367 170.375 494.453 166.703 497.188 164.172C499.938 161.641 503.258 160.375 507.148 160.375C508.695 160.375 510.117 160.68 511.414 161.289C512.711 161.883 513.766 162.727 514.578 163.82L511.133 168.578C510.586 167.891 509.898 167.359 509.07 166.984C508.258 166.594 507.375 166.398 506.422 166.398C503.969 166.398 501.875 167.422 500.141 169.469C498.406 171.5 497.078 174.453 496.156 178.328C495.25 182.203 494.797 186.898 494.797 192.414C494.797 195.211 495.219 197.375 496.062 198.906C496.922 200.453 498.109 201.227 499.625 201.227C501.375 201.227 502.25 200.172 502.25 198.062C502.25 196.656 501.836 195.203 501.008 193.703C500.195 192.203 499.047 190.789 497.562 189.461L502.602 185.617C504.383 187.336 505.773 189.266 506.773 191.406C507.773 193.547 508.273 195.688 508.273 197.828C508.273 204.109 505.32 207.25 499.414 207.25ZM485.914 181.727L486.945 175.914H509.07L508.039 181.727H485.914ZM524.141 196.469C521.219 196.469 518.938 195.68 517.297 194.102C515.672 192.508 514.859 190.297 514.859 187.469C514.859 182.188 516.078 178.07 518.516 175.117C520.953 172.164 524.344 170.688 528.688 170.688C531.609 170.688 533.883 171.5 535.508 173.125C537.148 174.75 537.969 177.016 537.969 179.922C537.969 185.125 536.75 189.188 534.312 192.109C531.875 195.016 528.484 196.469 524.141 196.469ZM525.266 190.445C527.203 190.445 528.711 189.609 529.789 187.938C530.883 186.25 531.43 183.914 531.43 180.93C531.43 179.602 531.102 178.57 530.445 177.836C529.789 177.086 528.867 176.711 527.68 176.711C525.711 176.711 524.172 177.555 523.062 179.242C521.953 180.914 521.398 183.242 521.398 186.227C521.398 187.555 521.734 188.594 522.406 189.344C523.094 190.078 524.047 190.445 525.266 190.445ZM561.828 196.422C559.438 196.422 557.688 195.898 556.578 194.852C555.469 193.805 554.93 192.18 554.961 189.977C554.977 189.148 555.086 188.195 555.289 187.117C555.492 186.039 555.797 184.781 556.203 183.344L559.109 173.242L563.234 176.875H549.242V171.062L566.211 171.039L562.672 183.109C562.266 184.516 561.961 185.672 561.758 186.578C561.57 187.484 561.469 188.164 561.453 188.617C561.406 190.07 562.234 190.797 563.938 190.797C564.641 190.797 565.25 190.75 565.766 190.656L566.094 196C564.766 196.281 563.344 196.422 561.828 196.422ZM544.672 191.688L540.055 187.867C541.68 186.242 542.969 184.617 543.922 182.992C544.875 181.352 545.555 179.547 545.961 177.578C546.383 175.609 546.594 173.312 546.594 170.688V168.672H552.617V170.641C552.617 173.703 552.359 176.422 551.844 178.797C551.344 181.156 550.516 183.359 549.359 185.406C548.203 187.453 546.641 189.547 544.672 191.688ZM578.586 171.156L578.258 177.555L575.023 196H568.672L573.102 171.156H578.586ZM578.234 196L581.281 178.75C581.531 177.312 581.156 176.594 580.156 176.594C579.578 176.594 579.094 176.891 578.703 177.484C578.328 178.062 578.023 178.945 577.789 180.133L577.695 174.25H579.102C579.57 172.969 580.133 172.055 580.789 171.508C581.461 170.961 582.312 170.688 583.344 170.688C584.594 170.688 585.445 171.211 585.898 172.258C586.367 173.305 586.414 174.969 586.039 177.25L582.734 196H578.234ZM595.648 177.25L592.297 196H585.945L589.016 178.75C589.141 178.062 589.109 177.531 588.922 177.156C588.75 176.781 588.453 176.594 588.031 176.594C587.453 176.594 586.938 176.891 586.484 177.484C586.047 178.062 585.727 178.945 585.523 180.133L585.43 174.25H586.93C587.43 172.953 588.062 172.039 588.828 171.508C589.609 170.961 590.586 170.688 591.758 170.688C595.133 170.688 596.43 172.875 595.648 177.25ZM626.516 196L632.375 162.719H638.609L632.75 196H626.516ZM630.102 183.602L631.133 177.859H648.312L647.305 183.602H630.102ZM631.367 168.438L632.375 162.719H655.203L654.195 168.438H631.367ZM661.977 196.492C659.664 196.492 657.875 195.758 656.609 194.289C655.359 192.82 654.734 190.758 654.734 188.102C654.734 185.82 655.102 183.305 655.836 180.555C656.57 177.805 657.758 174.516 659.398 170.688L665.773 171.602C664.195 175.508 663.039 178.719 662.305 181.234C661.586 183.75 661.227 185.844 661.227 187.516C661.227 188.453 661.484 189.18 662 189.695C662.516 190.211 663.25 190.469 664.203 190.469C665.938 190.469 667.336 189.602 668.398 187.867C669.477 186.133 670.328 183.633 670.953 180.367L670.719 190.75H669.172L670.086 188.289C669.586 189.977 669.039 191.438 668.445 192.672C667.852 193.891 667.055 194.836 666.055 195.508C665.055 196.164 663.695 196.492 661.977 196.492ZM675.5 196.234C674.172 196.234 673.094 196.008 672.266 195.555C671.453 195.102 670.883 194.43 670.555 193.539C670.242 192.633 670.172 191.5 670.344 190.141L670.18 184.727L672.594 171.156H679.016L676.062 188.008C675.875 189.102 675.914 189.852 676.18 190.258C676.445 190.664 677.008 190.867 677.867 190.867H678.992L678.055 196.234H675.5ZM704.82 189.602L706.062 195.414C704.812 195.789 703.68 196.055 702.664 196.211C701.648 196.383 700.648 196.469 699.664 196.469C695.227 196.469 692.008 195.133 690.008 192.461C688.023 189.773 687.031 185.461 687.031 179.523C687.031 175.664 687.57 172.305 688.648 169.445C689.742 166.57 691.273 164.344 693.242 162.766C695.211 161.172 697.508 160.375 700.133 160.375C702.242 160.375 703.93 161.102 705.195 162.555C706.477 164.008 707.117 165.945 707.117 168.367C707.117 172.336 706.133 175.977 704.164 179.289C702.211 182.586 699.414 185.43 695.773 187.82C692.133 190.211 687.789 192.031 682.742 193.281L681.359 187.914C685.344 186.977 688.773 185.586 691.648 183.742C694.539 181.883 696.766 179.664 698.328 177.086C699.891 174.508 700.672 171.664 700.672 168.555C700.656 167.82 700.508 167.281 700.227 166.938C699.945 166.578 699.516 166.398 698.938 166.398C697.719 166.398 696.656 166.953 695.75 168.062C694.844 169.172 694.141 170.727 693.641 172.727C693.141 174.727 692.891 177.07 692.891 179.758C692.891 183.508 693.43 186.227 694.508 187.914C695.602 189.602 697.359 190.445 699.781 190.445C700.703 190.445 701.562 190.383 702.359 190.258C703.156 190.117 703.977 189.898 704.82 189.602ZM732.945 189.602L734.188 195.414C732.938 195.789 731.805 196.055 730.789 196.211C729.773 196.383 728.773 196.469 727.789 196.469C723.352 196.469 720.133 195.133 718.133 192.461C716.148 189.773 715.156 185.461 715.156 179.523C715.156 175.664 715.695 172.305 716.773 169.445C717.867 166.57 719.398 164.344 721.367 162.766C723.336 161.172 725.633 160.375 728.258 160.375C730.367 160.375 732.055 161.102 733.32 162.555C734.602 164.008 735.242 165.945 735.242 168.367C735.242 172.336 734.258 175.977 732.289 179.289C730.336 182.586 727.539 185.43 723.898 187.82C720.258 190.211 715.914 192.031 710.867 193.281L709.484 187.914C713.469 186.977 716.898 185.586 719.773 183.742C722.664 181.883 724.891 179.664 726.453 177.086C728.016 174.508 728.797 171.664 728.797 168.555C728.781 167.82 728.633 167.281 728.352 166.938C728.07 166.578 727.641 166.398 727.062 166.398C725.844 166.398 724.781 166.953 723.875 168.062C722.969 169.172 722.266 170.727 721.766 172.727C721.266 174.727 721.016 177.07 721.016 179.758C721.016 183.508 721.555 186.227 722.633 187.914C723.727 189.602 725.484 190.445 727.906 190.445C728.828 190.445 729.688 190.383 730.484 190.258C731.281 190.117 732.102 189.898 732.945 189.602ZM739.578 182.242L740.562 176.547H764.773L763.789 182.242H739.578ZM213.992 252.469C209.945 252.469 206.523 251.781 203.727 250.406L205.18 244.5C208.383 245.844 211.469 246.516 214.438 246.516C216.641 246.516 218.305 246.211 219.43 245.602C220.555 244.977 221.117 244.07 221.117 242.883C221.117 242.289 220.961 241.789 220.648 241.383C220.336 240.961 219.812 240.531 219.078 240.094L212.281 235.945C210.812 235.039 209.781 233.914 209.188 232.57C208.609 231.227 208.32 229.914 208.32 228.633C208.32 225.227 209.312 222.648 211.297 220.898C213.281 219.133 216.156 218.25 219.922 218.25C224.359 218.25 227.867 219.492 230.445 221.977L227.047 227.18C225.875 226.211 224.656 225.477 223.391 224.977C222.141 224.461 220.891 224.203 219.641 224.203C218.062 224.203 216.859 224.484 216.031 225.047C215.219 225.609 214.812 226.438 214.812 227.531C214.812 228.234 215.016 228.891 215.422 229.5C215.828 230.109 216.414 230.656 217.18 231.141L223.461 234.984C225.039 235.938 226.125 237.016 226.719 238.219C227.312 239.406 227.609 240.703 227.609 242.109C227.609 245.516 226.453 248.094 224.141 249.844C221.844 251.594 218.461 252.469 213.992 252.469ZM246.664 252.469C243.852 252.469 241.664 251.812 240.102 250.5C238.555 249.172 237.781 247.297 237.781 244.875C237.781 244.156 237.797 243.469 237.828 242.812C237.875 242.141 237.953 241.398 238.062 240.586C238.172 239.758 238.328 238.742 238.531 237.539L241.672 219.656H248.117L244.977 237.539C244.711 239.055 244.523 240.203 244.414 240.984C244.32 241.766 244.273 242.594 244.273 243.469C244.273 244.516 244.555 245.273 245.117 245.742C245.68 246.211 246.578 246.445 247.812 246.445C248.984 246.445 250.016 246.367 250.906 246.211C251.797 246.055 252.852 245.781 254.07 245.391L255.219 250.969C254 251.375 252.711 251.727 251.352 252.023C249.992 252.32 248.43 252.469 246.664 252.469ZM233.773 232.992L234.805 227.156H257.539L256.508 232.992H233.773ZM267.359 252.492C265.016 252.492 263.203 251.883 261.922 250.664C260.641 249.445 260 247.727 260 245.508C260 242.695 260.625 240.148 261.875 237.867C263.125 235.57 264.875 233.609 267.125 231.984C269.391 230.359 272.039 229.109 275.07 228.234C278.102 227.359 281.398 226.922 284.961 226.922H285.547L282.57 244.008C282.383 245.102 282.492 245.852 282.898 246.258C283.305 246.664 284.148 246.867 285.43 246.867H286.555L285.617 252.234H283.062C281.359 252.234 280.047 252.055 279.125 251.695C278.219 251.32 277.594 250.836 277.25 250.242C276.906 249.633 276.727 248.977 276.711 248.273C276.711 247.555 276.758 246.844 276.852 246.141L278.398 246.75H275.68L277.156 243.586C276.344 246.414 275.078 248.609 273.359 250.172C271.641 251.719 269.641 252.492 267.359 252.492ZM268.883 246.469C270.93 246.469 272.727 245.594 274.273 243.844C275.836 242.078 276.898 239.586 277.461 236.367L278.656 229.57L280.906 232.945C278.891 233.023 277.008 233.367 275.258 233.977C273.508 234.57 271.977 235.375 270.664 236.391C269.352 237.391 268.328 238.562 267.594 239.906C266.859 241.234 266.492 242.672 266.492 244.219C266.492 244.984 266.688 245.555 267.078 245.93C267.469 246.289 268.07 246.469 268.883 246.469ZM301.648 246.445C303.055 246.445 304.43 246.227 305.773 245.789C307.133 245.352 308.336 244.773 309.383 244.055L311.773 249.211C310.305 250.195 308.625 250.984 306.734 251.578C304.859 252.172 302.938 252.469 300.969 252.469C297.375 252.469 294.586 251.594 292.602 249.844C290.633 248.078 289.648 245.602 289.648 242.414C289.648 239.242 290.258 236.484 291.477 234.141C292.711 231.781 294.438 229.953 296.656 228.656C298.891 227.344 301.5 226.688 304.484 226.688C306.812 226.688 308.742 227.039 310.273 227.742C311.82 228.445 313.125 229.578 314.188 231.141L309.852 235.336C309.086 234.414 308.227 233.75 307.273 233.344C306.32 232.922 305.172 232.711 303.828 232.711C302.281 232.711 300.93 233.078 299.773 233.812C298.633 234.531 297.742 235.547 297.102 236.859C296.477 238.156 296.156 239.68 296.141 241.43C296.156 243.023 296.641 244.258 297.594 245.133C298.562 246.008 299.914 246.445 301.648 246.445ZM338.562 252.469C335.281 252.469 332.719 251.492 330.875 249.539C329.047 247.586 328 244.773 327.734 241.102C330.578 239.992 332.523 238.898 333.57 237.82C334.633 236.727 335.164 235.711 335.164 234.773C335.164 233.398 334.344 232.711 332.703 232.711C331.984 232.711 331.234 232.844 330.453 233.109C329.672 233.359 328.93 233.766 328.227 234.328C327.523 234.875 326.914 235.578 326.398 236.438C325.883 237.281 325.523 238.305 325.32 239.508L326.352 231.656H327.5C327.797 230.656 328.305 229.789 329.023 229.055C329.742 228.305 330.617 227.727 331.648 227.32C332.68 226.898 333.812 226.688 335.047 226.688C337.047 226.688 338.648 227.297 339.852 228.516C341.055 229.719 341.656 231.32 341.656 233.32C341.656 235.68 340.898 237.805 339.383 239.695C337.867 241.57 335.734 243.047 332.984 244.125L333.453 239.836C333.422 242.273 333.922 243.984 334.953 244.969C335.984 245.953 337.531 246.445 339.594 246.445C339.828 246.445 340.008 246.445 340.133 246.445C340.258 246.43 340.398 246.414 340.555 246.398L341 252.211C340.641 252.273 340.266 252.328 339.875 252.375C339.5 252.438 339.062 252.469 338.562 252.469ZM316.672 252L321.148 226.523C321.414 225.086 321.367 224.039 321.008 223.383C320.664 222.711 320.047 222.375 319.156 222.375C318.859 222.375 318.555 222.398 318.242 222.445C317.93 222.477 317.617 222.539 317.305 222.633L316.625 216.727C317.219 216.586 317.812 216.492 318.406 216.445C319 216.383 319.594 216.352 320.188 216.352C323.422 216.352 325.633 217.102 326.82 218.602C328.023 220.102 328.328 222.508 327.734 225.82L323.117 252H316.672ZM378.078 252L378.875 246.094H380.023C382.773 246.094 385.125 245.555 387.078 244.477C389.031 243.383 390.523 241.82 391.555 239.789C392.602 237.742 393.125 235.289 393.125 232.43C393.125 229.82 392.266 227.789 390.547 226.336C388.844 224.883 386.453 224.156 383.375 224.156C381.797 224.156 380.242 224.312 378.711 224.625L378.312 218.719C380.094 218.406 381.977 218.25 383.961 218.25C388.883 218.25 392.719 219.461 395.469 221.883C398.234 224.305 399.617 227.68 399.617 232.008C399.617 236.195 398.797 239.781 397.156 242.766C395.531 245.75 393.188 248.039 390.125 249.633C387.062 251.211 383.367 252 379.039 252H378.078ZM372.453 252L378.312 218.719H384.5L378.688 252H372.453ZM414.359 246.445C415.484 246.445 416.688 246.273 417.969 245.93C419.25 245.586 420.484 245.102 421.672 244.477L423.289 250.031C421.805 250.906 420.219 251.531 418.531 251.906C416.844 252.281 415.227 252.469 413.68 252.469C410.242 252.469 407.555 251.586 405.617 249.82C403.695 248.039 402.734 245.57 402.734 242.414C402.734 239.258 403.367 236.508 404.633 234.164C405.898 231.805 407.664 229.969 409.93 228.656C412.211 227.344 414.867 226.688 417.898 226.688C420.461 226.688 422.461 227.328 423.898 228.609C425.352 229.891 426.078 231.672 426.078 233.953C426.078 236.969 424.531 239.18 421.438 240.586C418.344 241.992 413.828 242.742 407.891 242.836L406.93 238.383C410.992 238.352 414.156 237.992 416.422 237.305C418.688 236.602 419.82 235.648 419.82 234.445C419.82 233.836 419.555 233.359 419.023 233.016C418.492 232.672 417.742 232.5 416.773 232.5C415.164 232.5 413.75 232.883 412.531 233.648C411.312 234.414 410.359 235.484 409.672 236.859C409 238.234 408.656 239.836 408.641 241.664C408.656 243.164 409.164 244.336 410.164 245.18C411.18 246.023 412.578 246.445 414.359 246.445ZM434.258 252L431.328 227.156L437.938 226.688L439.859 245.953H440.375C442.906 243.5 444.828 240.719 446.141 237.609C447.453 234.484 448.18 231 448.32 227.156H454.812C454.609 232.266 453.422 236.891 451.25 241.031C449.094 245.156 445.922 248.812 441.734 252H434.258ZM470.609 246.445C471.734 246.445 472.938 246.273 474.219 245.93C475.5 245.586 476.734 245.102 477.922 244.477L479.539 250.031C478.055 250.906 476.469 251.531 474.781 251.906C473.094 252.281 471.477 252.469 469.93 252.469C466.492 252.469 463.805 251.586 461.867 249.82C459.945 248.039 458.984 245.57 458.984 242.414C458.984 239.258 459.617 236.508 460.883 234.164C462.148 231.805 463.914 229.969 466.18 228.656C468.461 227.344 471.117 226.688 474.148 226.688C476.711 226.688 478.711 227.328 480.148 228.609C481.602 229.891 482.328 231.672 482.328 233.953C482.328 236.969 480.781 239.18 477.688 240.586C474.594 241.992 470.078 242.742 464.141 242.836L463.18 238.383C467.242 238.352 470.406 237.992 472.672 237.305C474.938 236.602 476.07 235.648 476.07 234.445C476.07 233.836 475.805 233.359 475.273 233.016C474.742 232.672 473.992 232.5 473.023 232.5C471.414 232.5 470 232.883 468.781 233.648C467.562 234.414 466.609 235.484 465.922 236.859C465.25 238.234 464.906 239.836 464.891 241.664C464.906 243.164 465.414 244.336 466.414 245.18C467.43 246.023 468.828 246.445 470.609 246.445ZM507.945 245.602L509.188 251.414C507.938 251.789 506.805 252.055 505.789 252.211C504.773 252.383 503.773 252.469 502.789 252.469C498.352 252.469 495.133 251.133 493.133 248.461C491.148 245.773 490.156 241.461 490.156 235.523C490.156 231.664 490.695 228.305 491.773 225.445C492.867 222.57 494.398 220.344 496.367 218.766C498.336 217.172 500.633 216.375 503.258 216.375C505.367 216.375 507.055 217.102 508.32 218.555C509.602 220.008 510.242 221.945 510.242 224.367C510.242 228.336 509.258 231.977 507.289 235.289C505.336 238.586 502.539 241.43 498.898 243.82C495.258 246.211 490.914 248.031 485.867 249.281L484.484 243.914C488.469 242.977 491.898 241.586 494.773 239.742C497.664 237.883 499.891 235.664 501.453 233.086C503.016 230.508 503.797 227.664 503.797 224.555C503.781 223.82 503.633 223.281 503.352 222.938C503.07 222.578 502.641 222.398 502.062 222.398C500.844 222.398 499.781 222.953 498.875 224.062C497.969 225.172 497.266 226.727 496.766 228.727C496.266 230.727 496.016 233.07 496.016 235.758C496.016 239.508 496.555 242.227 497.633 243.914C498.727 245.602 500.484 246.445 502.906 246.445C503.828 246.445 504.688 246.383 505.484 246.258C506.281 246.117 507.102 245.898 507.945 245.602ZM524.141 252.469C521.219 252.469 518.938 251.68 517.297 250.102C515.672 248.508 514.859 246.297 514.859 243.469C514.859 238.188 516.078 234.07 518.516 231.117C520.953 228.164 524.344 226.688 528.688 226.688C531.609 226.688 533.883 227.5 535.508 229.125C537.148 230.75 537.969 233.016 537.969 235.922C537.969 241.125 536.75 245.188 534.312 248.109C531.875 251.016 528.484 252.469 524.141 252.469ZM525.266 246.445C527.203 246.445 528.711 245.609 529.789 243.938C530.883 242.25 531.43 239.914 531.43 236.93C531.43 235.602 531.102 234.57 530.445 233.836C529.789 233.086 528.867 232.711 527.68 232.711C525.711 232.711 524.172 233.555 523.062 235.242C521.953 236.914 521.398 239.242 521.398 242.227C521.398 243.555 521.734 244.594 522.406 245.344C523.094 246.078 524.047 246.445 525.266 246.445ZM546.406 262.781H539.961L546.219 227.156H551.961L551.633 233.039L546.406 262.781ZM547.672 252.469C546.688 252.469 545.719 252.422 544.766 252.328C543.812 252.25 542.844 252.141 541.859 252L544.648 245.859C545.508 246.25 546.93 246.445 548.914 246.445C551.164 246.445 553.18 245.984 554.961 245.062C556.758 244.141 558.172 242.891 559.203 241.312C560.234 239.719 560.75 237.922 560.75 235.922C560.75 234.891 560.492 234.102 559.977 233.555C559.461 232.992 558.734 232.711 557.797 232.711C556.75 232.711 555.703 233.062 554.656 233.766C553.625 234.469 552.688 235.57 551.844 237.07C551 238.57 550.352 240.516 549.898 242.906L550.836 231.633H552.875L551.914 232.945C552.367 230.945 553.328 229.406 554.797 228.328C556.281 227.234 558.078 226.688 560.188 226.688C562.422 226.688 564.156 227.422 565.391 228.891C566.625 230.344 567.242 232.422 567.242 235.125C567.242 237.594 566.75 239.883 565.766 241.992C564.781 244.102 563.406 245.945 561.641 247.523C559.875 249.086 557.805 250.305 555.43 251.18C553.055 252.039 550.469 252.469 547.672 252.469ZM578.586 227.156L578.258 233.555L575.023 252H568.672L573.102 227.156H578.586ZM578.234 252L581.281 234.75C581.531 233.312 581.156 232.594 580.156 232.594C579.578 232.594 579.094 232.891 578.703 233.484C578.328 234.062 578.023 234.945 577.789 236.133L577.695 230.25H579.102C579.57 228.969 580.133 228.055 580.789 227.508C581.461 226.961 582.312 226.688 583.344 226.688C584.594 226.688 585.445 227.211 585.898 228.258C586.367 229.305 586.414 230.969 586.039 233.25L582.734 252H578.234ZM595.648 233.25L592.297 252H585.945L589.016 234.75C589.141 234.062 589.109 233.531 588.922 233.156C588.75 232.781 588.453 232.594 588.031 232.594C587.453 232.594 586.938 232.891 586.484 233.484C586.047 234.062 585.727 234.945 585.523 236.133L585.43 230.25H586.93C587.43 228.953 588.062 228.039 588.828 227.508C589.609 226.961 590.586 226.688 591.758 226.688C595.133 226.688 596.43 228.875 595.648 233.25ZM611.234 246.445C612.359 246.445 613.562 246.273 614.844 245.93C616.125 245.586 617.359 245.102 618.547 244.477L620.164 250.031C618.68 250.906 617.094 251.531 615.406 251.906C613.719 252.281 612.102 252.469 610.555 252.469C607.117 252.469 604.43 251.586 602.492 249.82C600.57 248.039 599.609 245.57 599.609 242.414C599.609 239.258 600.242 236.508 601.508 234.164C602.773 231.805 604.539 229.969 606.805 228.656C609.086 227.344 611.742 226.688 614.773 226.688C617.336 226.688 619.336 227.328 620.773 228.609C622.227 229.891 622.953 231.672 622.953 233.953C622.953 236.969 621.406 239.18 618.312 240.586C615.219 241.992 610.703 242.742 604.766 242.836L603.805 238.383C607.867 238.352 611.031 237.992 613.297 237.305C615.562 236.602 616.695 235.648 616.695 234.445C616.695 233.836 616.43 233.359 615.898 233.016C615.367 232.672 614.617 232.5 613.648 232.5C612.039 232.5 610.625 232.883 609.406 233.648C608.188 234.414 607.234 235.484 606.547 236.859C605.875 238.234 605.531 239.836 605.516 241.664C605.531 243.164 606.039 244.336 607.039 245.18C608.055 246.023 609.453 246.445 611.234 246.445ZM626.234 252L630.617 227.156H636.172L636.008 233.086L632.68 252H626.234ZM640.812 252L643.461 237C643.711 235.594 643.594 234.531 643.109 233.812C642.625 233.078 641.836 232.711 640.742 232.711C639.852 232.711 639.008 232.938 638.211 233.391C637.414 233.844 636.719 234.609 636.125 235.688C635.531 236.75 635.086 238.195 634.789 240.023L635.914 231.656H636.734C637.266 230.078 638.109 228.859 639.266 228C640.422 227.125 641.875 226.688 643.625 226.688C646.281 226.688 648.141 227.547 649.203 229.266C650.281 230.984 650.523 233.516 649.93 236.859L647.258 252H640.812ZM668.539 252.469C665.727 252.469 663.539 251.812 661.977 250.5C660.43 249.172 659.656 247.297 659.656 244.875C659.656 244.156 659.672 243.469 659.703 242.812C659.75 242.141 659.828 241.398 659.938 240.586C660.047 239.758 660.203 238.742 660.406 237.539L663.547 219.656H669.992L666.852 237.539C666.586 239.055 666.398 240.203 666.289 240.984C666.195 241.766 666.148 242.594 666.148 243.469C666.148 244.516 666.43 245.273 666.992 245.742C667.555 246.211 668.453 246.445 669.688 246.445C670.859 246.445 671.891 246.367 672.781 246.211C673.672 246.055 674.727 245.781 675.945 245.391L677.094 250.969C675.875 251.375 674.586 251.727 673.227 252.023C671.867 252.32 670.305 252.469 668.539 252.469ZM655.648 232.992L656.68 227.156H679.414L678.383 232.992H655.648Z" fill="#A05344"/>
<g clip-path="url(#clip0_77_1733)">
<rect width="80" height="80" transform="matrix(-1 -1.74574e-07 -1.75118e-07 1 178 65)" fill="#E79E4F"/>
<path fill-rule="evenodd" clip-rule="evenodd" d="M98 65C142.183 65 178 100.817 178 145L138 145C138 122.909 120.091 105 98 105L98 65Z" fill="#A05344"/>
</g>
<g clip-path="url(#clip1_77_1733)">
<rect width="80" height="80" transform="matrix(-1 -1.74574e-07 -1.75118e-07 1 98 65)" fill="#E79E4F"/>
<path d="M58 105L18 65L18 145L58 105Z" fill="#E79E4F"/>
<path d="M58 105L18 145L98 145L58 105Z" fill="#E79E4F"/>
<path d="M58 105L98 65L98 145L58 105Z" fill="#E79E4F"/>
<path d="M58 105L18 65L98 65L58 105Z" fill="#E79E4F"/>
<path d="M98 65V65C53.8172 65 18 100.817 18 145V145L98 145L98 65Z" fill="#A05344"/>
<path d="M98 105V105C75.9086 105 58 122.909 58 145V145L98 145L98 105Z" fill="#321F28"/>
</g>
<g clip-path="url(#clip2_77_1733)">
<rect width="80" height="80" transform="matrix(-1 -1.74574e-07 -1.75118e-07 1 98 145)" fill="#E79E4F"/>
<path d="M98 145L18 145V145C18 189.183 53.8172 225 98 225V225L98 145Z" fill="#A05344"/>
<path d="M98 145L58 145V145C58 167.091 75.9086 185 98 185V185L98 145Z" fill="#321F28"/>
</g>
<g clip-path="url(#clip3_77_1733)">
<rect width="80" height="80" transform="matrix(-1 0 0 1 178 145)" fill="#E79E4F"/>
<path d="M138 145H98V185V185C120.091 185 138 167.091 138 145V145Z" fill="#A05344"/>
</g>
<defs>
<clipPath id="clip0_77_1733">
<rect width="80" height="80" fill="white" transform="matrix(-1 -1.74574e-07 -1.75118e-07 1 178 65)"/>
</clipPath>
<clipPath id="clip1_77_1733">
<rect width="80" height="80" fill="white" transform="matrix(-1 -1.74574e-07 -1.75118e-07 1 98 65)"/>
</clipPath>
<clipPath id="clip2_77_1733">
<rect width="80" height="80" fill="white" transform="matrix(-1 -1.74574e-07 -1.75118e-07 1 98 145)"/>
</clipPath>
<clipPath id="clip3_77_1733">
<rect width="80" height="80" fill="white" transform="matrix(-1 0 0 1 178 145)"/>
</clipPath>
</defs>
</svg>
